<svg width="19" height="19" viewBox="0 0 19 19" fill="none" xmlns="http://www.w3.org/2000/svg">
<mask id="mask0_10_3528" style="mask-type:luminance" maskUnits="userSpaceOnUse" x="0" y="0" width="19" height="19">
<path d="M18.1027 0H0V18.1027H18.1027V0Z" fill="white"/>
</mask>
<g mask="url(#mask0_10_3528)">
<path d="M0.560772 17.849H0.560037H0.559058C0.462693 17.8496 0.382831 17.8116 0.328559 17.7488C0.276208 17.6882 0.252868 17.6109 0.25293 17.5378C0.252991 17.4646 0.276456 17.3875 0.328308 17.3267C0.382051 17.2638 0.46139 17.2245 0.557832 17.2237C1.31799 17.2181 1.93842 16.5975 1.94345 15.8382C1.94353 15.8293 1.94393 15.8205 1.94463 15.8119L1.94407 15.7303H1.96203C1.97939 15.682 2.00821 15.6408 2.04557 15.6087C2.10613 15.5566 2.1831 15.5331 2.25618 15.5332C2.32926 15.5333 2.40616 15.5568 2.46662 15.6089C2.50392 15.641 2.53273 15.6821 2.5501 15.7303H2.57082L2.57008 15.8397C2.56999 15.8521 2.56979 15.8646 2.56948 15.877C2.57986 16.1848 2.6918 16.4922 2.88244 16.7182C3.0722 16.943 3.29137 17.0913 3.57496 17.1714C3.85878 17.2515 4.14786 17.241 4.43383 17.1389C4.96761 16.9482 5.33449 16.4122 5.33828 15.8382C5.33833 15.8324 5.33851 15.8265 5.33884 15.8208L5.33822 15.7303H5.35685C5.37421 15.682 5.40303 15.6408 5.44039 15.6087C5.50095 15.5566 5.57792 15.5331 5.651 15.5332C5.72408 15.5333 5.80098 15.5568 5.86145 15.6089C5.89874 15.641 5.92756 15.6821 5.94492 15.7303H5.96505L5.96422 15.8398C5.96416 15.8479 5.96405 15.8559 5.96389 15.864C5.96733 16.0317 5.99298 16.1713 6.05525 16.3388C6.09856 16.4538 6.19825 16.6243 6.27721 16.7182C6.46856 16.9445 6.701 17.0971 6.98001 17.1739C7.25907 17.2508 7.54634 17.2391 7.82787 17.139L0.560772 17.849ZM0.560772 17.849C1.0904 17.8454 1.60488 17.6366 1.98131 17.2602C2.08797 17.1536 2.18116 17.0358 2.26005 16.9098M0.560772 17.849L2.26005 16.9098L0.560772 17.849ZM2.26005 16.9098C2.49354 17.2779 2.84432 17.5699 3.27022 17.7286C4.06086 18.0231 4.96925 17.7686 5.49479 17.1286C5.55263 17.0581 5.60549 16.9846 5.65317 16.9083C5.89083 17.2841 6.25038 17.581 6.68689 17.7366C7.4883 18.0222 8.36793 17.7626 8.88891 17.1286C8.94678 17.0582 8.99968 16.9845 9.04736 16.9082C9.28085 17.277 9.63201 17.5697 10.0585 17.7286C10.8491 18.0231 11.7575 17.7686 12.2831 17.1286C12.3409 17.0581 12.3938 16.9846 12.4415 16.9083C12.6791 17.2841 13.0387 17.581 13.4752 17.7366C14.2766 18.0222 15.1562 17.7626 15.6772 17.1286C15.734 17.0594 15.786 16.9872 15.8331 16.9124C15.9116 17.0374 16.0042 17.1543 16.1102 17.2602C16.4866 17.6366 17.0011 17.8454 17.5307 17.849C17.6271 17.8497 17.707 17.8116 17.7613 17.7488C17.8137 17.6883 17.8371 17.6111 17.8372 17.538C17.8372 17.4648 17.8139 17.3876 17.762 17.3268C17.7082 17.2637 17.6288 17.2245 17.5323 17.2237C16.773 17.2187 16.1523 16.5983 16.1467 15.8381C16.1459 15.7421 16.1072 15.6628 16.0446 15.6089C15.9841 15.5568 15.9072 15.5333 15.8341 15.5332C15.761 15.5331 15.6841 15.5566 15.6235 15.6087C15.5608 15.6626 15.5221 15.742 15.5214 15.8381C15.5176 16.4126 15.1515 16.9475 14.617 17.1389L2.26005 16.9098ZM13.0663 16.7183C13.2576 16.9445 13.49 17.0971 13.769 17.1739C14.048 17.2508 14.3353 17.2391 14.6168 17.139L13.0663 16.7183ZM13.0663 16.7183C12.9873 16.6246 12.8876 16.4539 12.8442 16.3389C12.7788 16.1628 12.7538 16.0176 12.7525 15.8382C12.7518 15.7421 12.713 15.6628 12.6504 15.6089C12.59 15.5568 12.5131 15.5333 12.44 15.5332C12.3669 15.5331 12.2899 15.5566 12.2294 15.6087C12.1667 15.6626 12.128 15.742 12.1273 15.8381C12.1235 16.4121 11.7566 16.9482 11.2228 17.1389C10.9368 17.241 10.6478 17.2515 10.3639 17.1714C10.0803 17.0913 9.86115 16.943 9.67142 16.7182C9.47792 16.4888 9.3655 16.1756 9.35806 15.8632C9.3582 15.8554 9.3583 15.8476 9.35837 15.8398L9.35918 15.7303H9.33907C9.32169 15.6821 9.29287 15.641 9.2556 15.6089C9.19514 15.5568 9.11824 15.5333 9.04515 15.5332C8.97206 15.5331 8.89508 15.5566 8.83455 15.6087C8.79718 15.6408 8.76835 15.682 8.75099 15.7303H8.73236L8.73297 15.8208C8.73265 15.8265 8.73247 15.8323 8.73243 15.8381C8.72863 16.4126 8.36254 16.9475 7.82807 17.1389L13.0663 16.7183ZM2.32218 16.8034C2.54258 17.1745 2.88643 17.4697 3.30813 17.6268C4.05483 17.905 4.91442 17.6642 5.41085 17.0596L2.32218 16.8034Z" fill="white"/>
<path d="M0.560772 17.849H0.560037H0.559058C0.462693 17.8496 0.382831 17.8116 0.328559 17.7488C0.276208 17.6882 0.252868 17.6109 0.25293 17.5378C0.252991 17.4646 0.276456 17.3875 0.328308 17.3267C0.382051 17.2638 0.46139 17.2245 0.557832 17.2237C1.31799 17.2181 1.93842 16.5975 1.94345 15.8382C1.94353 15.8293 1.94393 15.8205 1.94463 15.8119L1.94407 15.7303H1.96203C1.97939 15.682 2.00821 15.6408 2.04557 15.6087C2.10613 15.5566 2.1831 15.5331 2.25618 15.5332C2.32926 15.5333 2.40616 15.5568 2.46662 15.6089C2.50391 15.641 2.53273 15.6821 2.5501 15.7303H2.57082L2.57008 15.8397C2.56999 15.8521 2.56979 15.8646 2.56948 15.877C2.57986 16.1848 2.6918 16.4922 2.88244 16.7182C3.0722 16.943 3.29137 17.0913 3.57496 17.1714C3.85878 17.2515 4.14786 17.241 4.43383 17.1389C4.96761 16.9482 5.33449 16.4122 5.33828 15.8382C5.33833 15.8324 5.33851 15.8265 5.33884 15.8208L5.33822 15.7303H5.35685C5.37421 15.682 5.40303 15.6408 5.44039 15.6087C5.50095 15.5566 5.57792 15.5331 5.651 15.5332C5.72408 15.5333 5.80098 15.5568 5.86145 15.6089C5.89874 15.641 5.92756 15.6821 5.94492 15.7303H5.96505L5.96422 15.8398C5.96416 15.8479 5.96405 15.8559 5.96389 15.864C5.96733 16.0317 5.99298 16.1713 6.05525 16.3388C6.09856 16.4538 6.19825 16.6243 6.27721 16.7182C6.46856 16.9445 6.701 17.0971 6.98001 17.1739C7.25907 17.2508 7.54634 17.2391 7.82787 17.139L0.560772 17.849ZM0.560772 17.849C1.0904 17.8454 1.60488 17.6366 1.98131 17.2602C2.08797 17.1536 2.18116 17.0358 2.26005 16.9098M0.560772 17.849L2.26005 16.9098M2.26005 16.9098C2.49354 17.2779 2.84432 17.5699 3.27022 17.7286C4.06086 18.0231 4.96925 17.7686 5.49479 17.1286C5.55263 17.0581 5.60549 16.9846 5.65317 16.9083C5.89083 17.2841 6.25038 17.581 6.68689 17.7366C7.4883 18.0222 8.36793 17.7626 8.88891 17.1286C8.94678 17.0582 8.99968 16.9845 9.04736 16.9082C9.28085 17.277 9.63201 17.5697 10.0585 17.7286C10.8491 18.0231 11.7575 17.7686 12.2831 17.1286C12.3409 17.0581 12.3938 16.9846 12.4415 16.9083C12.6791 17.2841 13.0387 17.581 13.4752 17.7366C14.2766 18.0222 15.1562 17.7626 15.6772 17.1286C15.734 17.0594 15.786 16.9872 15.8331 16.9124C15.9116 17.0374 16.0042 17.1543 16.1102 17.2602C16.4866 17.6366 17.0011 17.8454 17.5307 17.849C17.6271 17.8497 17.707 17.8116 17.7613 17.7488C17.8137 17.6883 17.8371 17.6111 17.8372 17.538C17.8372 17.4648 17.8139 17.3876 17.762 17.3268C17.7082 17.2637 17.6288 17.2245 17.5323 17.2237C16.773 17.2187 16.1523 16.5983 16.1467 15.8381C16.1459 15.7421 16.1072 15.6628 16.0446 15.6089C15.9841 15.5568 15.9072 15.5333 15.8341 15.5332C15.761 15.5331 15.6841 15.5566 15.6235 15.6087C15.5608 15.6626 15.5221 15.742 15.5214 15.8381C15.5176 16.4126 15.1515 16.9475 14.617 17.1389L2.26005 16.9098ZM13.0663 16.7183C13.2576 16.9445 13.49 17.0971 13.769 17.1739C14.048 17.2508 14.3353 17.2391 14.6168 17.139L13.0663 16.7183ZM13.0663 16.7183C12.9873 16.6246 12.8876 16.4539 12.8442 16.3389C12.7788 16.1628 12.7538 16.0176 12.7525 15.8382C12.7518 15.7421 12.713 15.6628 12.6504 15.6089C12.59 15.5568 12.5131 15.5333 12.44 15.5332C12.3669 15.5331 12.2899 15.5566 12.2294 15.6087C12.1667 15.6626 12.128 15.742 12.1273 15.8381C12.1235 16.4121 11.7566 16.9482 11.2228 17.1389C10.9368 17.241 10.6478 17.2515 10.3639 17.1714C10.0803 17.0913 9.86115 16.943 9.67142 16.7182C9.47792 16.4888 9.3655 16.1756 9.35806 15.8632C9.35821 15.8554 9.3583 15.8476 9.35837 15.8398L9.35918 15.7303H9.33907C9.32169 15.6821 9.29287 15.641 9.2556 15.6089C9.19514 15.5568 9.11824 15.5333 9.04515 15.5332C8.97206 15.5331 8.89508 15.5566 8.83455 15.6087C8.79718 15.6408 8.76835 15.682 8.75099 15.7303H8.73236L8.73297 15.8208C8.73265 15.8265 8.73247 15.8323 8.73243 15.8381C8.72863 16.4126 8.36254 16.9475 7.82807 17.1389L13.0663 16.7183ZM9.24908 15.839L9.24941 15.8389M2.32218 16.8034C2.54258 17.1745 2.88643 17.4697 3.30813 17.6268C4.05483 17.905 4.91442 17.6642 5.41085 17.0596L2.32218 16.8034Z" stroke="white" stroke-width="0.217233"/>
<path d="M6.57709 8.69502C6.25057 8.82991 5.9239 8.96463 5.59726 9.09931L5.59639 9.09967C5.26944 9.2345 4.94254 9.36931 4.6158 9.50429C4.19754 9.67634 3.77954 9.84884 3.36141 10.0214C3.23914 10.0719 3.11684 10.1223 2.99452 10.1728C2.88205 10.219 2.76941 10.2655 2.65685 10.3119L2.65638 10.3121C2.65218 10.3138 2.64796 10.3155 2.64374 10.3173C2.66603 10.3649 2.68835 10.4126 2.71069 10.4603C2.73337 10.5087 2.75607 10.5572 2.77877 10.6058C3.18436 11.4734 3.58999 12.3403 3.9956 13.2073L3.9967 13.2096L6.57709 8.69502ZM6.57709 8.69502C7.1422 8.46177 7.70726 8.22853 8.27232 7.99599L8.82937 7.76608C8.85658 7.7548 8.88354 7.74483 8.91257 7.73406C8.92818 7.72827 8.94443 7.72225 8.96172 7.71567C8.98002 7.70868 8.99894 7.70126 9.01806 7.6932C9.09626 7.72539 9.17446 7.75765 9.25271 7.78991L9.25352 7.79023C9.36605 7.83665 9.47866 7.8831 9.59128 7.92937C9.71349 7.97978 9.83567 8.0302 9.95782 8.08062C10.376 8.25321 10.7941 8.42573 11.2125 8.59785C11.5392 8.73282 11.8662 8.86763 12.193 9.00243L12.1941 9.0029C12.5207 9.13756 12.8473 9.27221 13.1736 9.40704L13.1767 9.40829C13.7407 9.64113 14.3049 9.87396 14.869 10.1061L6.57709 8.69502ZM16.0744 10.3021C16.0038 10.4543 15.9327 10.6062 15.8615 10.7581C15.8389 10.8064 15.8163 10.8548 15.7936 10.9032C15.3876 11.7716 14.9816 12.6394 14.5756 13.5071C14.3209 14.0507 14.0667 14.5944 13.8125 15.138L13.812 15.1391C13.812 15.1392 13.812 15.1391 13.812 15.1391C13.7711 15.2267 13.6912 15.275 13.6142 15.2929C13.5381 15.3105 13.4512 15.3021 13.38 15.2605C13.2182 15.166 13.1986 14.9791 13.2629 14.8419C13.3336 14.6897 13.4047 14.5378 13.4758 14.3859C13.4985 14.3375 13.5211 14.2891 13.5438 14.2406C13.9498 13.3722 14.3558 12.5045 14.7617 11.6367C14.968 11.1968 15.1738 10.7568 15.3795 10.3168L14.869 10.1061L1.94954 10.3027C1.90814 10.2143 1.90155 10.1203 1.93732 10.0355C1.97262 9.9517 2.04313 9.89132 2.12841 9.85629L2.17307 9.83803C2.17314 9.83801 2.17322 9.83798 2.17327 9.83796C2.33375 9.77165 2.49423 9.70552 2.65464 9.63942C2.81512 9.57329 2.97562 9.50715 3.13603 9.44089L4.01642 9.07771L4.8967 8.71459C5.55024 8.44459 6.20312 8.17529 6.85665 7.90598L6.89808 8.0064M16.0744 10.3021L15.9761 10.256L16.0746 10.3017C16.0746 10.3019 16.0745 10.302 16.0744 10.3021ZM16.0744 10.3021C16.116 10.2135 16.1223 10.1196 16.0864 10.0348C16.051 9.95139 15.9808 9.89122 15.8963 9.85588L15.8957 9.85566C15.7825 9.80908 15.6691 9.76234 15.5557 9.7156L15.5536 9.7147C15.4409 9.66824 15.3282 9.62179 15.2157 9.5755M15.2157 9.5755C14.9451 9.46397 14.6744 9.3523 14.4038 9.24059L14.401 9.23946C14.1313 9.12815 13.8616 9.01684 13.5918 8.90568M15.2157 9.5755C15.2157 9.57549 15.2157 9.57552 15.2157 9.5755V9.5755ZM13.5918 8.90568C13.2652 8.77076 12.9385 8.63603 12.6118 8.50129L12.6111 8.50102L12.6096 8.50038C12.2831 8.36577 11.9568 8.23118 11.6306 8.09642C11.3476 7.97991 11.0646 7.86315 10.7818 7.74644L10.7811 7.74617L10.7806 7.74597C10.4977 7.62924 10.2148 7.5125 9.93168 7.39592L9.37881 7.16811L9.37857 7.16802C9.35368 7.15783 9.32609 7.14572 9.29702 7.13296C9.23788 7.107 9.17256 7.07832 9.11111 7.05752C8.99134 7.01699 8.89684 7.06046 8.83694 7.08801C8.82865 7.09181 8.82103 7.09532 8.81409 7.09825L8.81449 7.09809L8.85593 7.19845L8.81371 7.09842L8.3963 7.27081L8.43772 7.37123M13.5918 8.90568C13.5918 8.90567 13.5919 8.90568 13.5918 8.90568V8.90568ZM8.43772 7.37123L8.3963 7.27081L6.85665 7.90598L6.89808 8.0064M8.43772 7.37123L8.85593 7.19845C8.86607 7.19418 8.87591 7.18984 8.88555 7.18555C8.94644 7.15841 8.99995 7.13457 9.07629 7.1604C9.13364 7.17983 9.19014 7.20466 9.24633 7.22939C9.27676 7.24277 9.30709 7.25611 9.33743 7.26853L4.93815 8.81497C5.5917 8.54499 6.24454 8.27569 6.89808 8.0064M8.43772 7.37123L6.89808 8.0064L8.43772 7.37123ZM1.94954 10.3027L1.94987 10.3034C2.2041 10.8472 2.45835 11.391 2.71329 11.9349C3.11927 12.8026 3.52526 13.6703 3.93123 14.5387C3.95396 14.5873 3.97668 14.6359 3.99938 14.6844C4.07049 14.8362 4.1414 14.9877 4.21196 15.1396L4.21215 15.14C4.25306 15.2272 4.33291 15.2753 4.40963 15.2933C4.48562 15.311 4.5727 15.3029 4.64411 15.2611C4.80651 15.1658 4.82545 14.9795 4.76107 14.8424L4.75298 14.8251L4.75237 14.8245C4.50074 14.2863 4.24904 13.7479 3.9967 13.2096L1.94954 10.3027ZM4.31048 15.0939C4.3574 15.1939 4.50088 15.219 4.5893 15.1673L4.31048 15.0939Z" fill="white"/>
<path d="M6.57709 8.69502C6.25057 8.82991 5.9239 8.96463 5.59726 9.09931L5.59639 9.09967C5.26944 9.2345 4.94254 9.36931 4.6158 9.50429C4.19754 9.67634 3.77954 9.84884 3.36141 10.0214C3.23914 10.0719 3.11684 10.1223 2.99452 10.1728C2.88205 10.219 2.76941 10.2655 2.65685 10.3119L2.65638 10.3121C2.65218 10.3138 2.64796 10.3155 2.64374 10.3173C2.66603 10.3649 2.68835 10.4126 2.71069 10.4603C2.73337 10.5087 2.75607 10.5572 2.77877 10.6058C3.18436 11.4734 3.58999 12.3403 3.9956 13.2073L3.9967 13.2096M6.57709 8.69502L3.9967 13.2096M6.57709 8.69502C7.1422 8.46177 7.70726 8.22853 8.27232 7.99599L8.82937 7.76608C8.85658 7.7548 8.88354 7.74483 8.91257 7.73406C8.92818 7.72827 8.94443 7.72225 8.96172 7.71567C8.98002 7.70868 8.99894 7.70126 9.01806 7.6932C9.09626 7.72539 9.17446 7.75765 9.2527 7.78991L9.25352 7.79023C9.36605 7.83665 9.47866 7.8831 9.59128 7.92937C9.71349 7.97978 9.83567 8.0302 9.95782 8.08062C10.376 8.25321 10.7941 8.42573 11.2125 8.59785C11.5392 8.73282 11.8662 8.86763 12.193 9.00243L12.1941 9.0029C12.5207 9.13756 12.8473 9.27221 13.1736 9.40704L13.1767 9.40829C13.7407 9.64113 14.3049 9.87396 14.869 10.1061M6.57709 8.69502L14.869 10.1061M3.9967 13.2096C4.24904 13.7479 4.50074 14.2863 4.75237 14.8245L4.75298 14.8251L4.76107 14.8424C4.82545 14.9795 4.80651 15.1658 4.64411 15.2611C4.5727 15.3029 4.48562 15.311 4.40963 15.2933C4.33291 15.2753 4.25306 15.2272 4.21215 15.14L4.21196 15.1396C4.1414 14.9877 4.07049 14.8362 3.99938 14.6844C3.97668 14.6359 3.95396 14.5873 3.93123 14.5387C3.52526 13.6703 3.11927 12.8026 2.71329 11.9349C2.45835 11.391 2.2041 10.8472 1.94987 10.3034L1.94954 10.3027M3.9967 13.2096L1.94954 10.3027M14.869 10.1061L15.3795 10.3168C15.1738 10.7568 14.968 11.1968 14.7617 11.6367C14.3558 12.5045 13.9498 13.3722 13.5438 14.2406C13.5211 14.2891 13.4985 14.3375 13.4758 14.3859C13.4047 14.5378 13.3336 14.6897 13.2629 14.8419C13.1986 14.9791 13.2182 15.166 13.38 15.2605C13.4512 15.3021 13.5381 15.3105 13.6142 15.2929C13.6912 15.275 13.7711 15.2267 13.812 15.1391M14.869 10.1061L1.94954 10.3027M16.0744 10.3021C16.0038 10.4543 15.9327 10.6062 15.8615 10.7581C15.8389 10.8064 15.8163 10.8548 15.7936 10.9032C15.3876 11.7716 14.9816 12.6394 14.5756 13.5071C14.3209 14.0507 14.0667 14.5944 13.8125 15.138L13.812 15.1391M16.0744 10.3021L15.9761 10.256L16.0746 10.3017C16.0746 10.3019 16.0745 10.302 16.0744 10.3021ZM16.0744 10.3021C16.116 10.2135 16.1223 10.1196 16.0864 10.0348C16.051 9.95139 15.9808 9.89122 15.8963 9.85588L15.8957 9.85566C15.7825 9.80908 15.6691 9.76234 15.5557 9.7156L15.5536 9.7147C15.4409 9.66824 15.3282 9.62179 15.2157 9.5755M13.812 15.1391C13.812 15.1392 13.812 15.1391 13.812 15.1391ZM1.94954 10.3027C1.90814 10.2143 1.90155 10.1203 1.93732 10.0355C1.97262 9.9517 2.04313 9.89132 2.12841 9.85629L2.17307 9.83803C2.17314 9.83801 2.17322 9.83798 2.17327 9.83796C2.33375 9.77165 2.49423 9.70552 2.65464 9.63942C2.81512 9.57329 2.97562 9.50715 3.13603 9.44089L4.01642 9.07771L4.8967 8.71459C5.55024 8.44459 6.20312 8.17529 6.85665 7.90598M6.85665 7.90598L6.89808 8.0064M6.85665 7.90598L8.3963 7.27081M6.89808 8.0064C6.24454 8.27569 5.5917 8.54499 4.93816 8.81497L9.33743 7.26853C9.30709 7.25611 9.27676 7.24277 9.24633 7.22939C9.19014 7.20466 9.13364 7.17983 9.07629 7.1604C8.99995 7.13457 8.94644 7.15841 8.88555 7.18555C8.87591 7.18984 8.86607 7.19418 8.85593 7.19845M6.89808 8.0064L8.43772 7.37123M15.2157 9.5755C14.9451 9.46397 14.6744 9.3523 14.4038 9.24059L14.401 9.23946C14.1313 9.12815 13.8616 9.01684 13.5918 8.90568M15.2157 9.5755L15.1743 9.67592M15.2157 9.5755C15.2157 9.57552 15.2157 9.57549 15.2157 9.5755ZM13.5918 8.90568C13.2652 8.77076 12.9385 8.63603 12.6118 8.50129L12.6111 8.50102L12.6096 8.50038C12.2831 8.36577 11.9568 8.23118 11.6306 8.09642C11.3476 7.97991 11.0646 7.86315 10.7818 7.74644L10.7811 7.74617L10.7806 7.74597C10.4977 7.62924 10.2148 7.5125 9.93168 7.39592M13.5918 8.90568L13.5503 9.00606M13.5918 8.90568C13.5919 8.90568 13.5918 8.90567 13.5918 8.90568ZM9.93168 7.39592L9.89032 7.49633M9.93168 7.39592L9.37881 7.16811L9.37857 7.16802C9.35368 7.15783 9.32609 7.14572 9.29702 7.13296C9.23788 7.107 9.17256 7.07832 9.11111 7.05752C8.99134 7.01699 8.89684 7.06046 8.83694 7.08801C8.82865 7.09181 8.82103 7.09532 8.81409 7.09825L8.81449 7.09809L8.85593 7.19845M8.85593 7.19845L8.81371 7.09842L8.3963 7.27081M8.85593 7.19845L8.43772 7.37123M8.3963 7.27081L8.43772 7.37123M4.31048 15.0939C4.3574 15.1939 4.50088 15.219 4.5893 15.1673L4.31048 15.0939Z" stroke="white" stroke-width="0.217233"/>
<path d="M8.69824 9.05088V10.7783V10.7837V10.789V10.7944V10.7997V10.805V10.8104V10.8157V10.821V10.8264V10.8317V10.8371V10.8424V10.8478V10.8531V10.8584V10.8638V10.8691V10.8745V10.8798V10.8851V10.8905V10.8958V10.9012V10.9065V10.9118V10.9172V10.9225V10.9278V10.9332V10.9385V10.9439V10.9492V10.9545V10.9599V10.9652V10.9706V10.9759V10.9812V10.9866V10.9919V10.9973V11.0026V11.0079V11.0133V11.0186V11.024V11.0293V11.0346V11.04V11.0453V11.0506V11.056V11.0613V11.0667V11.072V11.0773V11.0827V11.088V11.0934V11.0987V11.1041V11.1094V11.1147V11.1201V11.1254V11.1307V11.1361V11.1414V11.1468V11.1521V11.1574V11.1628V11.1681V11.1734V11.1788V11.1841V11.1895V11.1948V11.2001V11.2055V11.2108V11.2162V11.2215V11.2268V11.2322V11.2375V11.2429V11.2482V11.2535V11.2589V11.2642V11.2695V11.2749V11.2802V11.2856V11.2909V11.2962V11.3016V11.3069V11.3122V11.3176V11.3229V11.3283V11.3336V11.339V11.3443V11.3496V11.355V11.3603V11.3656V11.371V11.3763V11.3817V11.387V11.3923V11.3977V11.403V11.4083V11.4137V11.419V11.4244V11.4297V11.435V11.4404V11.4457V11.4511V11.4564V11.4617V11.4671V11.4724V11.4778V11.4831V11.4884V11.4938V11.4991V11.5044V11.5098V11.5151V11.5205V11.5258V11.5311V11.5365V11.5418V11.5471V11.5525V11.5578V11.5632V11.5685V11.5738V11.5792V11.5845V11.5899V11.5952V11.6005V11.6059V11.6112V11.6165V11.6219V11.6272V11.6326V11.6379V11.6432V11.6486V11.6539V11.6592V11.6646V11.6699V11.6753V11.6806V11.6859V11.6913V11.6966V11.702V11.7073V11.7126V11.718V11.7233V11.7286V11.734V11.7393V11.7447V11.75V11.7553V11.7607V11.766V11.7713V11.7767V11.782V11.7874V11.7927V11.798V11.8034V11.8087V11.8141V11.8194V11.8247V11.8301V11.8354V11.8407V11.8461V11.8514V11.8568V11.8621V11.8674V11.8728V11.8781V11.8834V11.8888V11.8941V11.8995V11.9048V11.9101V11.9155V11.9208V11.9262V11.9315V11.9368V11.9422V11.9475V11.9528V11.9582V11.9635V11.9688V11.9742V11.9795V11.9849V11.9902V11.9955V12.0009V12.0062V12.0116V12.0169V12.0222V12.0276V12.0329V12.0382V12.0436V12.0489V12.0543V12.0596V12.0649V12.0703V12.0756V12.0809V12.0863V12.0916V12.097V12.1023V12.1076V12.113V12.1183V12.1237V12.129V12.1343V12.1397V12.145V12.1503V12.1557V12.161V12.1664V12.1717V12.177V12.1824V12.1877V12.193V12.1984V12.2037V12.209V12.2144V12.2197V12.2251V12.2304V12.2358V12.2411V12.2464V12.2518V12.2571V12.2624V12.2678V12.2731V12.2784V12.2838V12.2891V12.2945V12.2998V12.3051V12.3105V12.3158V12.3211V12.3265V12.3318V12.3372V12.3425V12.3478V12.3532V12.3585V12.3639V12.3692V12.3745V12.3799V12.3852V12.3905V12.3959V12.4012V12.4066V12.4119V12.4172V12.4226V12.4279V12.4332V12.4386V12.4439V12.4493V12.4546V12.4599V12.4653V12.4706V12.476V12.4813V12.4866V12.492V12.4973V12.5026V12.508V12.5133V12.5187V12.524V12.5293V12.5347V12.54V12.5453V12.5507V12.556V12.5614V12.5667V12.572V12.5774V12.5827V12.5881V12.5934V12.5987V12.6041V12.6094V12.6147V12.6201V12.6254V12.6308V12.6361V12.6414V12.6468V12.6521V12.6574V12.6628V12.6681V12.6735V12.6788V12.6841V12.6895V12.6948V12.7002V12.7055V12.7108V12.7162V12.7215V12.7268V12.7322V12.7375V12.7429V12.7482V12.7535V12.7589V12.7642V12.7695V12.7749V12.7802V12.7856V12.7909V12.7962V12.8016V12.8069V12.8123V12.8176V12.8229V12.8283V12.8336V12.8389V12.8443V12.8496V12.855V12.8603V12.8656V12.871V12.8763V12.8816V12.887V12.8923V12.8977V12.903V12.9084V12.9137V12.919V12.9244V12.9297V12.935V12.9404V12.9457V12.9511V12.9564V12.9617V12.9671V12.9724V12.9777V12.9831V12.9884V12.9938V12.9991V13.0044V13.0098V13.0151V13.0205V13.0258V13.0311V13.0365V13.0418V13.0472V13.0525V13.0578V13.0632V13.0685V13.0738V13.0792V13.0845V13.0899V13.0952V13.1005V13.1059V13.1112V13.1165V13.1219V13.1272V13.1326V13.1379V13.1432V13.1486V13.1539V13.1593V13.1646V13.1699V13.1753V13.1806V13.186V13.1913V13.1966V13.202V13.2073V13.2127V13.218V13.2233V13.2287V13.234V13.2393V13.2447V13.25V13.2554V13.2607V13.266V13.2714V13.2767V13.2821V13.2874V13.2927V13.2981V13.3034V13.3088V13.3141V13.3194V13.3248V13.3301V13.3355V13.3408V13.3461V13.3515V13.3568V13.3621V13.3675V13.3728V13.3782V13.3835V13.3888V13.3942V13.3995V13.4049V13.4102V13.4156V13.4209V13.4262V13.4316V13.4369V13.4423V13.4476V13.4529V13.4583V13.4636V13.4689V13.4743V13.4796V13.485V13.4903V13.4956V13.501V13.5063V13.5117V14.1428C8.69824 14.2393 8.73695 14.3189 8.79984 14.3729C8.86045 14.425 8.93763 14.4485 9.01081 14.4486C9.08397 14.4486 9.16122 14.4253 9.22192 14.3732C9.2849 14.3191 9.32355 14.2394 9.32355 14.1428V9.05088C9.32355 8.9544 9.28485 8.87476 9.22196 8.82074C9.16133 8.76863 9.08415 8.74517 9.01099 8.74512C8.93781 8.74504 8.86056 8.7684 8.79986 8.82052C8.73688 8.8746 8.69824 8.95433 8.69824 9.05088Z" fill="white" stroke="white" stroke-width="0.217233"/>
<path d="M4.23269 7.93878V5.53597H13.6897C13.7216 5.53597 13.7552 5.53653 13.7898 5.5372V7.93878C13.7898 8.03525 13.8285 8.11488 13.8914 8.16892C13.9521 8.221 14.0292 8.24446 14.1024 8.24454C14.1756 8.24459 14.2528 8.22126 14.3135 8.16914C14.3765 8.11507 14.4151 8.03534 14.4151 7.93878V5.22334C14.4151 5.05341 14.2735 4.9107 14.1025 4.9107H5.17271C5.03794 4.9107 4.90186 4.90936 4.76513 4.908C4.48959 4.90529 4.21131 4.90254 3.93544 4.9107H3.93524H3.93504H3.93485H3.93466H3.93447H3.93427H3.93407H3.93387H3.93367H3.93347H3.93327H3.93307H3.93287H3.93267H3.93247H3.93228H3.93209H3.9319H3.9317H3.9315H3.9313H3.9311H3.93092H3.93072H3.93052H3.93032H3.9301H3.9299H3.9297H3.92951H3.92931H3.92909H3.92889H3.92869H3.92849H3.92827H3.92808H3.92788H3.92768H3.9275H3.9273H3.9271H3.9269H3.9267H3.92652H3.92632H3.92612H3.92592H3.92572H3.9255H3.92531H3.92511H3.92491H3.92471H3.92451H3.92431H3.92411H3.92391H3.92371H3.92351H3.92331H3.92312H3.92292H3.92272H3.92252H3.92232H3.92212H3.92192H3.9217H3.9215H3.92131H3.92111H3.92089H3.92069H3.92047H3.92027H3.92006C3.75013 4.9107 3.60742 5.05227 3.60742 5.22334V7.93878C3.60742 8.03525 3.64613 8.11488 3.70901 8.16892C3.76962 8.221 3.84679 8.24446 3.91997 8.24454C3.99312 8.24459 4.07038 8.22126 4.13108 8.16914C4.19404 8.11507 4.23269 8.03534 4.23269 7.93878Z" fill="white" stroke="white" stroke-width="0.217233"/>
<path d="M12.9413 3.42385V3.42593V3.42955V3.43318V3.43678V3.4404V3.44402V3.44764V3.45126V3.45486V3.45848V3.46211V3.46573V3.46935V3.47295V3.47657V3.48019V3.48381V3.48743V3.49104V3.49466V3.49828V3.5019V3.5055V3.50912V3.51274V3.51636V3.51998V3.52359V3.52721V3.53083V3.53445V3.53807V3.54167V3.54529V3.54891V3.55253V3.55616V3.55976V3.56338V3.567V3.57062V3.57422V3.57784V3.58147V3.58509V3.58871V3.59231V3.59593V3.59955V3.60317V3.60677V3.6104V3.61402V3.61764V3.62126V3.62486V3.62848V3.6321V3.63572V3.63933V3.64295V3.64657V3.65019V3.65381V3.65741V3.66103V3.66465V3.66827V3.67188V3.6755V3.67912V3.68274V3.68634V3.68996V3.69358V3.6972V3.70082V3.70443V3.70805V3.71167V3.71529V3.71889V3.72251V3.72613V3.72976V3.73336V3.73698V3.7406V3.74422V3.74784V3.75144V3.75506V3.75869V3.76231V3.76591V3.76953V3.77315V3.77677V3.78037V3.78399V3.78762V3.79124V3.79484V3.79846V3.80208V3.8057V3.80932V3.81293V3.81655V3.82017V3.82379V3.82739V3.83101V3.83463V3.83825V3.84186V3.84548V3.8491V3.85272V3.85632V3.85994V3.86356V3.86718V3.87079V3.87441V3.87803V3.88165V3.88525V3.88887V3.89249V3.89611V3.89972V3.90334V3.90696V3.91058V3.9142V3.9178V3.92142V3.92504V3.92866V3.93227V3.93589V3.93951V3.94313V3.94673V3.95035V3.95397V3.95759V3.9612V3.96482V3.96844V3.97206V3.97566V3.97928V3.9829V3.98652V3.99013V3.99375V3.99737V4.00099V4.00459V4.00821V4.01183V4.01545V4.01906V4.02268V4.0263V4.02992V4.03352V4.03714V4.04076V4.04438V4.04799V4.05161V4.05523V4.05885V4.06245V4.06607V4.06969V4.07331V4.07692V4.08054V4.08416V4.08778V4.0914V4.095V4.09862V4.10224V4.10587V4.10947V4.11309V4.11671V4.12033V4.12393V4.12755V4.13118V4.1348V4.1384V4.14202V4.14564V4.14926V4.15286V4.15648V4.16011V4.16373V4.16733V4.17095V4.17457V4.17819V4.18179V4.18541V4.18904V4.19266V4.19626V4.19988V4.2035V4.20712V4.21072V4.21434V4.21797V4.22159V4.22519V4.22881V4.23243V4.23605V4.23967V4.24328V4.2469V4.25052V4.25414V4.25774V4.26136V4.26498V4.2686V4.27221V4.27583V4.27945V4.28307V4.28667V4.29029V4.29391V4.29753V4.30114V4.30476V4.30838V4.312V4.31562V4.31922V4.32284V4.32646V4.33008V4.33369V4.33731V4.34093V4.34455V4.34815V4.35177V4.35539V4.35901V4.36262V4.36624V4.36986V4.37348V4.3771V4.3807V4.38432V4.38794V4.39157V4.39517V4.39879V4.40241V4.40603V4.40965V4.41325V4.41687V4.4205V4.42412V4.42772V4.43134V4.43496V4.43858V4.44218V4.4458V4.44943V4.45305V4.45667V4.46027V4.46389V4.46751V4.47113V4.47473V4.47836V4.48198V4.4856V4.48922V4.49282V4.49644V4.50006V4.50368V4.5073V4.51091V4.51453V4.51815V4.52177V4.52537V4.52899V4.53261V4.53623V4.53985V4.54346V4.54708V4.5507V4.55432V4.55794V4.56154V4.56516V4.56878V4.57241V4.57601V4.57963V4.58325V4.58687V4.59049V4.59409V4.59772V4.60134V4.60496V4.60858V4.61218V4.6158V4.61942V4.62304V4.62666V4.63027V4.63389V4.63751V4.64113V4.64475V4.64835V4.65197V4.65559V4.65921V4.66284V4.66644V4.67006V4.67368V4.6773V4.68092V4.68452V4.68814V4.69177V4.69539V4.69901V4.70261V4.70623V4.70985V4.71347V4.71709V4.72071V4.72432V4.72794V4.73156V4.73518V4.7388V4.7424V4.74602V4.74964V4.75326V4.75689V4.76051V4.76411V4.76773V4.77135V4.77497V4.77859V4.78221V4.78582V4.78944V4.79306V4.79668V4.8003V4.8039V4.80752V4.81114V4.81476V4.81838V4.82201V4.82561V4.82923V4.83285V4.83647V4.84009V4.84371V4.84732V4.85094V4.85456V4.85818V4.8618V4.86542V4.86904V4.87264V4.87626V4.87988V4.88351V4.88713V4.89075V4.89435V4.89797V4.90159V4.90521V4.90883V4.91245V4.91607V4.91968V4.9233V4.92692V4.93054V4.93416V4.93778V4.9414V4.945V4.94863V4.95225V4.95587V4.95949V4.96311V5.2229C12.9413 5.31938 12.98 5.39902 13.0429 5.45306C13.1036 5.50514 13.1807 5.5286 13.2539 5.52868C13.3271 5.52873 13.4043 5.5054 13.465 5.45327C13.528 5.3992 13.5666 5.31947 13.5666 5.2229V3.11051C13.5666 2.94058 13.4251 2.79785 13.254 2.79785H9.01084C8.91436 2.79785 8.83472 2.83656 8.78068 2.89945C8.7286 2.96008 8.70513 3.03726 8.70508 3.11042C8.70501 3.18358 8.72834 3.26084 8.78046 3.32155C8.8126 3.35897 8.8538 3.38781 8.90221 3.40504V3.42385H9.01084H12.9413Z" fill="white" stroke="white" stroke-width="0.217233"/>
<path d="M5.08137 3.42316H7.21503C7.31151 3.42316 7.39117 3.38446 7.44519 3.32156C7.49727 3.26095 7.52074 3.18377 7.52081 3.1106C7.52086 3.03744 7.49753 2.96019 7.44541 2.89949C7.39133 2.8365 7.3116 2.79785 7.21503 2.79785H4.76871C4.59879 2.79785 4.45605 2.93942 4.45605 3.11051V5.2229C4.45605 5.31938 4.49476 5.39903 4.55765 5.45306C4.61828 5.50514 4.69546 5.5286 4.76862 5.52868C4.8418 5.52873 4.91905 5.5054 4.97975 5.45327C5.04271 5.3992 5.08137 5.31947 5.08137 5.2229V3.42316Z" fill="white" stroke="white" stroke-width="0.217233"/>
<path d="M7.62725 3.11121V0.878238H10.3963V3.11121C10.3963 3.20768 10.435 3.28732 10.4979 3.34135C10.5586 3.39345 10.6357 3.41691 10.7089 3.41697C10.7821 3.41702 10.8593 3.39368 10.92 3.34156C10.983 3.28749 11.0216 3.20776 11.0216 3.11121V0.565584C11.0216 0.395651 10.8801 0.25293 10.709 0.25293H7.31461C7.14467 0.25293 7.00195 0.394503 7.00195 0.565584V3.11121C7.00195 3.20768 7.04066 3.28732 7.10353 3.34135C7.16416 3.39345 7.24134 3.41691 7.31452 3.41697C7.38768 3.41702 7.46493 3.39368 7.52563 3.34156C7.58861 3.28749 7.62725 3.20776 7.62725 3.11121Z" fill="white" stroke="white" stroke-width="0.217233"/>
</g>
</svg>
