<svg width="19" height="19" viewBox="0 0 19 19" fill="none" xmlns="http://www.w3.org/2000/svg">
<mask id="mask0_10_3549" style="mask-type:luminance" maskUnits="userSpaceOnUse" x="0" y="0" width="19" height="19">
<path d="M18.1027 0H0V18.1027H18.1027V0Z" fill="white"/>
</mask>
<g mask="url(#mask0_10_3549)">
<path d="M1.5495 8.21097C1.7284 8.15935 1.89697 8.16486 2.07175 8.22541C2.24652 8.28596 2.39651 8.41531 2.54789 8.52816C2.86784 8.76829 3.24008 8.96165 3.63849 9.02908C4.43733 9.16324 5.18457 8.81715 5.83205 8.37954C7.3802 7.33298 8.94624 6.31394 10.524 5.31212C11.318 4.80776 12.1134 4.30617 12.9068 3.80181C13.2907 3.55824 13.6705 3.30777 14.0572 3.06901C14.3971 2.85915 14.7556 2.67544 15.1375 2.55365C15.8806 2.31764 16.7097 2.34861 17.4068 2.72086C17.4432 2.74012 17.4783 2.76076 17.5134 2.78277C17.5292 2.79311 17.5451 2.80343 17.5602 2.81443C17.6159 2.85433 17.5471 2.80205 17.5767 2.82682C17.6008 2.84745 17.6228 2.86948 17.6448 2.89219C17.6538 2.90113 17.6723 2.93277 17.6496 2.89769C17.6579 2.91076 17.6655 2.92589 17.6744 2.93896C17.6999 2.97338 17.671 2.90457 17.6772 2.94517C17.6779 2.95205 17.682 2.96581 17.6847 2.97338C17.7012 3.01742 17.6606 2.93827 17.684 2.97613C17.6868 2.98094 17.6834 2.99883 17.6834 3.00571C17.6834 2.95068 17.6765 3.02086 17.6703 3.0415C17.684 2.99539 17.6682 3.04494 17.6634 3.05457C17.6545 3.07108 17.6448 3.0869 17.6352 3.10274C17.6111 3.13988 17.6214 3.12544 17.5911 3.15983C17.565 3.18943 17.5368 3.21764 17.5072 3.24517C17.4329 3.31465 17.3524 3.37451 17.2712 3.43438C17.0806 3.57406 16.89 3.71305 16.6987 3.85136C15.9377 4.40112 15.1691 4.94056 14.3958 5.47244C14.2058 5.60318 14.0159 5.73323 13.8253 5.86326C13.6561 5.97818 13.482 6.08895 13.3354 6.23275C13.0575 6.50524 12.937 6.84446 12.8462 7.21394C12.6219 8.12909 12.39 9.04215 12.1554 9.95453C12.0364 10.4162 11.9173 10.8779 11.7976 11.3396C11.6868 11.7683 11.5981 12.21 11.4488 12.6277C11.3352 12.9449 11.166 13.2559 10.9444 13.5112C10.8309 13.6419 10.7056 13.7623 10.5701 13.8703C10.504 13.9226 10.4421 13.9791 10.3781 14.0341C10.3616 14.0479 10.3458 14.0616 10.3127 14.0795C10.2667 14.105 10.3362 14.0802 10.2852 14.0898C10.3203 14.0829 10.2646 14.0795 10.2907 14.0912C10.2226 14.0602 10.3183 14.1139 10.2522 14.0747C10.2563 14.0774 10.2687 14.085 10.2687 14.0919L10.2598 14.0754C10.2687 14.096 10.2701 14.0946 10.2632 14.0713C10.2605 14.0747 10.2625 14.0981 10.2653 14.0678C10.2673 14.0472 10.2667 14.0265 10.2687 14.0059C10.266 14.0382 10.2687 14.0024 10.2701 13.9976C10.2777 13.9446 10.2873 13.891 10.2928 13.838C10.3162 13.6164 10.299 13.3846 10.3004 13.1616C10.3038 12.682 10.3072 12.2025 10.3107 11.7229C10.3141 11.2433 10.3169 10.7754 10.3182 10.3013C10.3189 10.0674 10.3196 9.83342 10.3196 9.59879C10.3196 9.48458 10.3196 9.37035 10.3196 9.25614C10.3196 9.23205 10.3203 9.20866 10.321 9.18458C10.3217 9.14604 10.321 9.17083 10.321 9.18046C10.3258 9.13916 10.3348 9.09858 10.3403 9.05729C10.3692 8.86187 10.3575 8.66371 10.1841 8.5371C10.0107 8.41049 9.79258 8.44697 9.6233 8.56462C9.55518 8.61142 9.49327 8.66715 9.42309 8.71187C9.32606 8.7738 9.22354 8.82954 9.12447 8.88803C8.92973 9.00292 8.73432 9.11853 8.5396 9.23343C7.76966 9.68824 6.99625 10.1389 6.19948 10.547C5.81415 10.7437 5.4247 10.9392 5.02356 11.1029C4.86669 11.1669 4.70706 11.2254 4.5433 11.2708C4.47587 11.2894 4.40706 11.3059 4.33825 11.3197C4.3059 11.3258 4.27357 11.3314 4.24055 11.3362C4.2488 11.3348 4.27907 11.332 4.23849 11.3362C4.21645 11.3382 4.19513 11.341 4.17312 11.3424C4.11325 11.3472 4.0527 11.3486 3.99283 11.3458C3.96394 11.3444 3.93503 11.3417 3.90614 11.3389C3.87174 11.3355 3.95568 11.3486 3.90132 11.3389C3.88481 11.3362 3.86761 11.3334 3.85109 11.33C3.79537 11.319 3.74032 11.3038 3.68733 11.2859C3.67495 11.2818 3.59788 11.2508 3.64055 11.2694C3.6082 11.255 3.57656 11.2398 3.54559 11.2233C3.49193 11.1944 3.43963 11.1628 3.38939 11.1284C3.36325 11.1105 3.3371 11.0912 3.31164 11.072C3.34399 11.0967 3.29238 11.0561 3.29101 11.0548C3.27518 11.0417 3.25935 11.0286 3.24421 11.0148C3.12381 10.9103 3.01302 10.7953 2.90844 10.6756C2.6277 10.355 2.37244 10.0082 2.11371 9.66898C1.97678 9.4894 1.84194 9.30911 1.70913 9.12678C1.57633 8.94443 1.43941 8.77792 1.33758 8.58665C1.31625 8.54605 1.31418 8.54467 1.30455 8.51234C1.29973 8.49652 1.29423 8.48068 1.29079 8.46417C1.29079 8.46417 1.28184 8.4043 1.28459 8.43665C1.28735 8.46348 1.29216 8.35752 1.28597 8.38917C1.27978 8.42083 1.29285 8.37128 1.29285 8.36922C1.30524 8.32174 1.2784 8.39261 1.29423 8.36716C1.30111 8.35546 1.30799 8.34377 1.31556 8.33274C1.29147 8.36853 1.31212 8.33756 1.32106 8.3293C1.33207 8.31967 1.34239 8.30867 1.3534 8.29904C1.32381 8.3238 1.35615 8.29766 1.3651 8.29216C1.44147 8.24811 1.47381 8.23435 1.55363 8.21097C1.80753 8.13459 1.6995 7.73618 1.44354 7.81256C1.28047 7.86142 1.11258 7.93504 1.00111 8.06853C0.889642 8.20202 0.855926 8.36578 0.884825 8.53642C0.917853 8.73115 1.04033 8.89559 1.15111 9.05316C1.2839 9.24237 1.42014 9.42884 1.55845 9.61393C1.84331 9.9958 2.13504 10.3729 2.4316 10.7451C2.64284 11.0107 2.87265 11.2639 3.14995 11.4628C3.3777 11.6258 3.63709 11.7249 3.91577 11.7531C4.20751 11.7827 4.5082 11.7194 4.78481 11.63C5.18457 11.5013 5.56782 11.3169 5.94557 11.1339C6.35842 10.9343 6.76369 10.7217 7.16551 10.5009C7.97331 10.0564 8.76254 9.57953 9.55725 9.11302C9.6405 9.06416 9.71481 9.00774 9.79257 8.94995C9.82491 8.92586 9.85862 8.9011 9.89441 8.88183C9.93018 8.86255 9.91711 8.87012 9.90748 8.87427C9.92399 8.86737 9.93637 8.86806 9.92674 8.86462C9.9983 8.89146 9.94327 8.87012 9.94256 8.86943C9.98248 8.89834 9.94463 8.87083 9.93981 8.86187C9.96666 8.91141 9.93431 8.83779 9.94325 8.87083C9.95153 8.9011 9.94671 8.82472 9.94465 8.88115C9.94465 8.89559 9.93913 8.97816 9.94325 8.9472C9.93844 8.98848 9.92949 9.02908 9.92399 9.07036C9.89028 9.29948 9.90886 9.53824 9.90886 9.76943C9.90886 10.0006 9.90817 10.249 9.90679 10.4885C9.90267 11.4703 9.89372 12.4522 9.88822 13.4341C9.88753 13.5483 9.8896 13.6625 9.88616 13.7768C9.88616 13.7967 9.88409 13.8167 9.88203 13.8366C9.88547 13.8036 9.88203 13.8387 9.88065 13.8442C9.87171 13.8972 9.86344 13.9508 9.85793 14.0052C9.8373 14.2206 9.94465 14.4194 10.1607 14.4827C10.3767 14.546 10.5398 14.4407 10.6884 14.31C10.8274 14.1882 10.9685 14.0829 11.104 13.9467C11.3731 13.677 11.5884 13.3543 11.7405 13.0054C11.9146 12.6063 12.0068 12.1818 12.1155 11.7621C12.3584 10.8222 12.6027 9.88297 12.8414 8.94237C12.9611 8.46898 13.0802 7.9956 13.1971 7.52152C13.2453 7.32542 13.2893 7.09147 13.3595 6.92084C13.4221 6.76946 13.5054 6.64836 13.6114 6.54101C13.7531 6.39791 13.9217 6.29606 14.0903 6.18116C14.285 6.04836 14.4804 5.91487 14.6744 5.78069C15.0728 5.50685 15.4698 5.23024 15.8648 4.95157C16.2597 4.67291 16.6533 4.39218 17.0448 4.10869C17.2341 3.97176 17.4253 3.83621 17.6111 3.69379C17.7632 3.5775 17.9159 3.44745 18.0129 3.27888C18.456 2.50343 17.1473 2.1188 16.6279 2.03346C15.7843 1.89518 14.9607 2.10778 14.2148 2.50412C13.8095 2.71949 13.429 2.98301 13.0423 3.22933C12.6364 3.48805 12.2297 3.74538 11.8231 4.00342C10.1965 5.03345 8.56781 6.06074 6.96324 7.12449C6.56208 7.3901 6.163 7.65843 5.76531 7.92954C5.42264 8.16279 5.07105 8.3933 4.67677 8.52885C4.34857 8.64237 4.00728 8.6871 3.67701 8.61761C3.26693 8.5316 2.94146 8.30385 2.61188 8.05684C2.28229 7.80981 1.85501 7.69422 1.44354 7.81325C1.18895 7.88687 1.29698 8.28528 1.55363 8.21165L1.5495 8.21097Z" fill="white"/>
<mask id="mask1_10_3549" style="mask-type:luminance" maskUnits="userSpaceOnUse" x="0" y="1" width="19" height="14">
<path d="M18.435 1.62891H0.694336V14.8439H18.435V1.62891Z" fill="white"/>
<path d="M1.55048 8.21097C1.72938 8.15935 1.89795 8.16486 2.07273 8.22541C2.24749 8.28596 2.39749 8.41531 2.54887 8.52816C2.86881 8.76829 3.24106 8.96165 3.63947 9.02908C4.4383 9.16324 5.18555 8.81715 5.83303 8.37954C7.38117 7.33298 8.94722 6.31394 10.525 5.31212C11.319 4.80776 12.1144 4.30617 12.9078 3.80181C13.2917 3.55824 13.6715 3.30777 14.0582 3.06901C14.3981 2.85915 14.7566 2.67544 15.1385 2.55365C15.8816 2.31764 16.7107 2.34861 17.4077 2.72086C17.4442 2.74012 17.4793 2.76076 17.5144 2.78277C17.5302 2.79311 17.546 2.80343 17.5612 2.81443C17.6169 2.85433 17.5481 2.80205 17.5777 2.82682C17.6018 2.84745 17.6238 2.86948 17.6458 2.89219C17.6547 2.90113 17.6733 2.93277 17.6506 2.89769C17.6589 2.91076 17.6664 2.92589 17.6754 2.93896C17.7008 2.97338 17.6719 2.90457 17.6781 2.94517C17.6788 2.95205 17.683 2.96581 17.6857 2.97338C17.7022 3.01742 17.6616 2.93827 17.685 2.97613C17.6878 2.98094 17.6843 2.99883 17.6843 3.00571C17.6843 2.95068 17.6774 3.02086 17.6712 3.0415C17.685 2.99539 17.6692 3.04494 17.6644 3.05457C17.6554 3.07108 17.6458 3.0869 17.6362 3.10274C17.6121 3.13988 17.6224 3.12544 17.5921 3.15983C17.566 3.18943 17.5378 3.21764 17.5082 3.24517C17.4339 3.31465 17.3534 3.37451 17.2722 3.43438C17.0816 3.57406 16.891 3.71305 16.6997 3.85136C15.9387 4.40112 15.1701 4.94056 14.3967 5.47244C14.2068 5.60318 14.0169 5.73323 13.8263 5.86326C13.6571 5.97818 13.483 6.08895 13.3364 6.23275C13.0584 6.50524 12.938 6.84446 12.8472 7.21394C12.6229 8.12909 12.391 9.04215 12.1564 9.95453C12.0373 10.4162 11.9183 10.8779 11.7986 11.3396C11.6878 11.7683 11.5991 12.21 11.4497 12.6277C11.3362 12.9449 11.1669 13.2559 10.9454 13.5112C10.8318 13.6419 10.7066 13.7623 10.5711 13.8703C10.505 13.9226 10.4431 13.9791 10.3791 14.0341C10.3626 14.0479 10.3468 14.0616 10.3137 14.0795C10.2676 14.105 10.3371 14.0802 10.2862 14.0898C10.3213 14.0829 10.2656 14.0795 10.2917 14.0912C10.2236 14.0602 10.3192 14.1139 10.2532 14.0747C10.2573 14.0774 10.2697 14.085 10.2697 14.0919L10.2608 14.0754C10.2697 14.096 10.2711 14.0946 10.2642 14.0713C10.2614 14.0747 10.2635 14.0981 10.2663 14.0678C10.2683 14.0472 10.2676 14.0265 10.2697 14.0059C10.2669 14.0382 10.2697 14.0024 10.2711 13.9976C10.2786 13.9446 10.2883 13.891 10.2938 13.838C10.3172 13.6164 10.3 13.3846 10.3013 13.1616C10.3048 12.682 10.3082 12.2025 10.3117 11.7229C10.3151 11.2433 10.3179 10.7754 10.3192 10.3013C10.3199 10.0674 10.3206 9.83342 10.3206 9.59879C10.3206 9.48458 10.3206 9.37035 10.3206 9.25614C10.3206 9.23205 10.3213 9.20866 10.322 9.18458C10.3227 9.14604 10.322 9.17083 10.322 9.18046C10.3268 9.13916 10.3358 9.09858 10.3413 9.05729C10.3701 8.86187 10.3585 8.66371 10.1851 8.5371C10.0117 8.41049 9.79356 8.44697 9.62428 8.56462C9.55616 8.61142 9.49425 8.66715 9.42406 8.71187C9.32703 8.7738 9.22452 8.82954 9.12544 8.88803C8.93071 9.00292 8.73529 9.11853 8.54058 9.23343C7.77063 9.68824 6.99723 10.1389 6.20046 10.547C5.81512 10.7437 5.42568 10.9392 5.02454 11.1029C4.86766 11.1669 4.70803 11.2254 4.54428 11.2708C4.47684 11.2894 4.40803 11.3059 4.33923 11.3197C4.30688 11.3258 4.27454 11.3314 4.24153 11.3362C4.24978 11.3348 4.28005 11.332 4.23946 11.3362C4.21743 11.3382 4.19611 11.341 4.17409 11.3424C4.11423 11.3472 4.05367 11.3486 3.99381 11.3458C3.96492 11.3444 3.93601 11.3417 3.90711 11.3389C3.87272 11.3355 3.95666 11.3486 3.9023 11.3389C3.88579 11.3362 3.86859 11.3334 3.85206 11.33C3.79634 11.319 3.74129 11.3038 3.68831 11.2859C3.67592 11.2818 3.59886 11.2508 3.64153 11.2694C3.60918 11.255 3.57754 11.2398 3.54656 11.2233C3.49291 11.1944 3.44061 11.1628 3.39037 11.1284C3.36423 11.1105 3.33807 11.0912 3.31262 11.072C3.34497 11.0967 3.29336 11.0561 3.29198 11.0548C3.27616 11.0417 3.26032 11.0286 3.24519 11.0148C3.12479 10.9103 3.014 10.7953 2.90942 10.6756C2.62868 10.355 2.37341 10.0082 2.11469 9.66898C1.97776 9.4894 1.84291 9.30911 1.71011 9.12678C1.57731 8.94443 1.44039 8.77792 1.33855 8.58665C1.31722 8.54605 1.31516 8.54467 1.30552 8.51234C1.30071 8.49652 1.2952 8.48068 1.29176 8.46417C1.29176 8.46417 1.28282 8.4043 1.28557 8.43665C1.28832 8.46348 1.29314 8.35752 1.28695 8.38917C1.28075 8.42083 1.29383 8.37128 1.29383 8.36922C1.30621 8.32174 1.27938 8.39261 1.2952 8.36716C1.30208 8.35546 1.30897 8.34377 1.31653 8.33274C1.29245 8.36853 1.31309 8.33756 1.32204 8.3293C1.33305 8.31967 1.34337 8.30867 1.35438 8.29904C1.32479 8.3238 1.35713 8.29766 1.36607 8.29216C1.44245 8.24811 1.47479 8.23435 1.5546 8.21097C1.8085 8.13459 1.70048 7.73618 1.44451 7.81256C1.28144 7.86142 1.11355 7.93504 1.00209 8.06853C0.890619 8.20202 0.856902 8.36578 0.885801 8.53642C0.91883 8.73115 1.04131 8.89559 1.15209 9.05316C1.28488 9.24237 1.42112 9.42884 1.55942 9.61393C1.84429 9.9958 2.13602 10.3729 2.43257 10.7451C2.64382 11.0107 2.87363 11.2639 3.15093 11.4628C3.37868 11.6258 3.63807 11.7249 3.91674 11.7531C4.20849 11.7827 4.50917 11.7194 4.78578 11.63C5.18555 11.5013 5.5688 11.3169 5.94655 11.1339C6.3594 10.9343 6.76467 10.7217 7.16649 10.5009C7.97429 10.0564 8.76351 9.57953 9.55822 9.11302C9.64148 9.06416 9.71579 9.00774 9.79354 8.94995C9.82589 8.92586 9.8596 8.9011 9.89539 8.88183C9.93116 8.86255 9.91809 8.87012 9.90846 8.87427C9.92497 8.86737 9.93735 8.86806 9.92772 8.86462C9.99928 8.89146 9.94425 8.87012 9.94354 8.86943C9.98346 8.89834 9.9456 8.87083 9.94079 8.86187C9.96764 8.91141 9.93529 8.83779 9.94423 8.87083C9.9525 8.9011 9.94769 8.82472 9.94562 8.88115C9.94562 8.89559 9.9401 8.97816 9.94423 8.9472C9.93941 8.98848 9.93047 9.02908 9.92497 9.07036C9.89126 9.29948 9.90983 9.53824 9.90983 9.76943C9.90983 10.0006 9.90915 10.249 9.90777 10.4885C9.90364 11.4703 9.8947 12.4522 9.8892 13.4341C9.88851 13.5483 9.89057 13.6625 9.88713 13.7768C9.88713 13.7967 9.88507 13.8167 9.88301 13.8366C9.88645 13.8036 9.88301 13.8387 9.88163 13.8442C9.87269 13.8972 9.86441 13.9508 9.85891 14.0052C9.83827 14.2206 9.94562 14.4194 10.1617 14.4827C10.3777 14.546 10.5408 14.4407 10.6894 14.31C10.8284 14.1882 10.9695 14.0829 11.105 13.9467C11.3741 13.677 11.5894 13.3543 11.7415 13.0054C11.9156 12.6063 12.0078 12.1818 12.1165 11.7621C12.3594 10.8222 12.6036 9.88297 12.8424 8.94237C12.9621 8.46898 13.0811 7.9956 13.1981 7.52152C13.2463 7.32542 13.2903 7.09147 13.3605 6.92084C13.4231 6.76946 13.5064 6.64836 13.6123 6.54101C13.7541 6.39791 13.9227 6.29606 14.0912 6.18116C14.2859 6.04836 14.4814 5.91487 14.6754 5.78069C15.0738 5.50685 15.4708 5.23024 15.8658 4.95157C16.2607 4.67291 16.6543 4.39218 17.0458 4.10869C17.235 3.97176 17.4263 3.83621 17.6121 3.69379C17.7642 3.5775 17.9169 3.44745 18.0139 3.27888C18.457 2.50343 17.1483 2.1188 16.6288 2.03346C15.7853 1.89518 14.9616 2.10778 14.2158 2.50412C13.8105 2.71949 13.43 2.98301 13.0433 3.22933C12.6373 3.48805 12.2307 3.74538 11.8241 4.00342C10.1974 5.03345 8.56878 6.06074 6.96421 7.12449C6.56306 7.3901 6.16398 7.65843 5.76628 7.92954C5.42362 8.16279 5.07202 8.3933 4.67775 8.52885C4.34954 8.64237 4.00825 8.6871 3.67799 8.61761C3.26791 8.5316 2.94244 8.30385 2.61286 8.05684C2.28326 7.80981 1.85598 7.69422 1.44451 7.81325C1.18993 7.88687 1.29796 8.28528 1.5546 8.21165L1.55048 8.21097Z" fill="black"/>
</mask>
<g mask="url(#mask1_10_3549)">
<path d="M1.55048 8.21097C1.72938 8.15935 1.89795 8.16486 2.07273 8.22541C2.24749 8.28596 2.39749 8.41531 2.54887 8.52816C2.86881 8.76829 3.24106 8.96165 3.63947 9.02908C4.4383 9.16324 5.18555 8.81715 5.83303 8.37954C7.38117 7.33298 8.94722 6.31394 10.525 5.31212C11.319 4.80776 12.1144 4.30617 12.9078 3.80181C13.2917 3.55824 13.6715 3.30777 14.0582 3.06901C14.3981 2.85915 14.7566 2.67544 15.1385 2.55365C15.8816 2.31764 16.7107 2.34861 17.4077 2.72086C17.4442 2.74012 17.4793 2.76076 17.5144 2.78277C17.5302 2.79311 17.546 2.80343 17.5612 2.81443C17.6169 2.85433 17.5481 2.80205 17.5777 2.82682C17.6018 2.84745 17.6238 2.86948 17.6458 2.89219C17.6547 2.90113 17.6733 2.93277 17.6506 2.89769C17.6589 2.91076 17.6664 2.92589 17.6754 2.93896C17.7008 2.97338 17.6719 2.90457 17.6781 2.94517C17.6788 2.95205 17.683 2.96581 17.6857 2.97338C17.7022 3.01742 17.6616 2.93827 17.685 2.97613C17.6878 2.98094 17.6843 2.99883 17.6843 3.00571C17.6843 2.95068 17.6774 3.02086 17.6712 3.0415C17.685 2.99539 17.6692 3.04494 17.6644 3.05457C17.6554 3.07108 17.6458 3.0869 17.6362 3.10274C17.6121 3.13988 17.6224 3.12544 17.5921 3.15983C17.566 3.18943 17.5378 3.21764 17.5082 3.24517C17.4339 3.31465 17.3534 3.37451 17.2722 3.43438C17.0816 3.57406 16.891 3.71305 16.6997 3.85136C15.9387 4.40112 15.1701 4.94056 14.3967 5.47244C14.2068 5.60318 14.0169 5.73323 13.8263 5.86326C13.6571 5.97818 13.483 6.08895 13.3364 6.23275C13.0584 6.50524 12.938 6.84446 12.8472 7.21394C12.6229 8.12909 12.391 9.04215 12.1564 9.95453C12.0373 10.4162 11.9183 10.8779 11.7986 11.3396C11.6878 11.7683 11.5991 12.21 11.4497 12.6277C11.3362 12.9449 11.1669 13.2559 10.9454 13.5112C10.8318 13.6419 10.7066 13.7623 10.5711 13.8703C10.505 13.9226 10.4431 13.9791 10.3791 14.0341C10.3626 14.0479 10.3468 14.0616 10.3137 14.0795C10.2676 14.105 10.3371 14.0802 10.2862 14.0898C10.3213 14.0829 10.2656 14.0795 10.2917 14.0912C10.2236 14.0602 10.3192 14.1139 10.2532 14.0747C10.2573 14.0774 10.2697 14.085 10.2697 14.0919L10.2608 14.0754C10.2697 14.096 10.2711 14.0946 10.2642 14.0713C10.2614 14.0747 10.2635 14.0981 10.2663 14.0678C10.2683 14.0472 10.2676 14.0265 10.2697 14.0059C10.2669 14.0382 10.2697 14.0024 10.2711 13.9976C10.2786 13.9446 10.2883 13.891 10.2938 13.838C10.3172 13.6164 10.3 13.3846 10.3013 13.1616C10.3048 12.682 10.3082 12.2025 10.3117 11.7229C10.3151 11.2433 10.3179 10.7754 10.3192 10.3013C10.3199 10.0674 10.3206 9.83342 10.3206 9.59879C10.3206 9.48458 10.3206 9.37035 10.3206 9.25614C10.3206 9.23205 10.3213 9.20866 10.322 9.18458C10.3227 9.14604 10.322 9.17083 10.322 9.18046C10.3268 9.13916 10.3358 9.09858 10.3413 9.05729C10.3701 8.86187 10.3585 8.66371 10.1851 8.5371C10.0117 8.41049 9.79356 8.44697 9.62428 8.56462C9.55616 8.61142 9.49425 8.66715 9.42406 8.71187C9.32703 8.7738 9.22452 8.82954 9.12544 8.88803C8.93071 9.00292 8.73529 9.11853 8.54058 9.23343C7.77063 9.68824 6.99723 10.1389 6.20046 10.547C5.81512 10.7437 5.42568 10.9392 5.02454 11.1029C4.86766 11.1669 4.70803 11.2254 4.54428 11.2708C4.47684 11.2894 4.40803 11.3059 4.33923 11.3197C4.30688 11.3258 4.27454 11.3314 4.24153 11.3362C4.24978 11.3348 4.28005 11.332 4.23946 11.3362C4.21743 11.3382 4.19611 11.341 4.17409 11.3424C4.11423 11.3472 4.05367 11.3486 3.99381 11.3458C3.96492 11.3444 3.93601 11.3417 3.90711 11.3389C3.87272 11.3355 3.95666 11.3486 3.9023 11.3389C3.88579 11.3362 3.86859 11.3334 3.85206 11.33C3.79634 11.319 3.74129 11.3038 3.68831 11.2859C3.67592 11.2818 3.59886 11.2508 3.64153 11.2694C3.60918 11.255 3.57754 11.2398 3.54656 11.2233C3.49291 11.1944 3.44061 11.1628 3.39037 11.1284C3.36423 11.1105 3.33807 11.0912 3.31262 11.072C3.34497 11.0967 3.29336 11.0561 3.29198 11.0548C3.27616 11.0417 3.26032 11.0286 3.24519 11.0148C3.12479 10.9103 3.014 10.7953 2.90942 10.6756C2.62868 10.355 2.37341 10.0082 2.11469 9.66898C1.97776 9.4894 1.84291 9.30911 1.71011 9.12678C1.57731 8.94443 1.44039 8.77792 1.33855 8.58665C1.31722 8.54605 1.31516 8.54467 1.30552 8.51234C1.30071 8.49652 1.2952 8.48068 1.29176 8.46417C1.29176 8.46417 1.28282 8.4043 1.28557 8.43665C1.28832 8.46348 1.29314 8.35752 1.28695 8.38917C1.28075 8.42083 1.29383 8.37128 1.29383 8.36922C1.30621 8.32174 1.27938 8.39261 1.2952 8.36716C1.30208 8.35546 1.30897 8.34377 1.31653 8.33274C1.29245 8.36853 1.31309 8.33756 1.32204 8.3293C1.33305 8.31967 1.34337 8.30867 1.35438 8.29904C1.32479 8.3238 1.35713 8.29766 1.36607 8.29216C1.44245 8.24811 1.47479 8.23435 1.5546 8.21097C1.8085 8.13459 1.70048 7.73618 1.44451 7.81256C1.28144 7.86142 1.11355 7.93504 1.00209 8.06853C0.890619 8.20202 0.856902 8.36578 0.885801 8.53642C0.91883 8.73115 1.04131 8.89559 1.15209 9.05316C1.28488 9.24237 1.42112 9.42884 1.55942 9.61393C1.84429 9.9958 2.13602 10.3729 2.43257 10.7451C2.64382 11.0107 2.87363 11.2639 3.15093 11.4628C3.37868 11.6258 3.63807 11.7249 3.91674 11.7531C4.20849 11.7827 4.50917 11.7194 4.78578 11.63C5.18555 11.5013 5.5688 11.3169 5.94655 11.1339C6.3594 10.9343 6.76467 10.7217 7.16649 10.5009C7.97429 10.0564 8.76351 9.57953 9.55822 9.11302C9.64148 9.06416 9.71579 9.00774 9.79354 8.94995C9.82589 8.92586 9.8596 8.9011 9.89539 8.88183C9.93116 8.86255 9.91809 8.87012 9.90846 8.87427C9.92497 8.86737 9.93735 8.86806 9.92772 8.86462C9.99928 8.89146 9.94425 8.87012 9.94354 8.86943C9.98346 8.89834 9.9456 8.87083 9.94079 8.86187C9.96764 8.91141 9.93529 8.83779 9.94423 8.87083C9.9525 8.9011 9.94769 8.82472 9.94562 8.88115C9.94562 8.89559 9.9401 8.97816 9.94423 8.9472C9.93941 8.98848 9.93047 9.02908 9.92497 9.07036C9.89126 9.29948 9.90983 9.53824 9.90983 9.76943C9.90983 10.0006 9.90915 10.249 9.90777 10.4885C9.90364 11.4703 9.8947 12.4522 9.8892 13.4341C9.88851 13.5483 9.89057 13.6625 9.88713 13.7768C9.88713 13.7967 9.88507 13.8167 9.88301 13.8366C9.88645 13.8036 9.88301 13.8387 9.88163 13.8442C9.87269 13.8972 9.86441 13.9508 9.85891 14.0052C9.83827 14.2206 9.94562 14.4194 10.1617 14.4827C10.3777 14.546 10.5408 14.4407 10.6894 14.31C10.8284 14.1882 10.9695 14.0829 11.105 13.9467C11.3741 13.677 11.5894 13.3543 11.7415 13.0054C11.9156 12.6063 12.0078 12.1818 12.1165 11.7621C12.3594 10.8222 12.6036 9.88297 12.8424 8.94237C12.9621 8.46898 13.0811 7.9956 13.1981 7.52152C13.2463 7.32542 13.2903 7.09147 13.3605 6.92084C13.4231 6.76946 13.5064 6.64836 13.6123 6.54101C13.7541 6.39791 13.9227 6.29606 14.0912 6.18116C14.2859 6.04836 14.4814 5.91487 14.6754 5.78069C15.0738 5.50685 15.4708 5.23024 15.8658 4.95157C16.2607 4.67291 16.6543 4.39218 17.0458 4.10869C17.235 3.97176 17.4263 3.83621 17.6121 3.69379C17.7642 3.5775 17.9169 3.44745 18.0139 3.27888C18.457 2.50343 17.1483 2.1188 16.6288 2.03346C15.7853 1.89518 14.9616 2.10778 14.2158 2.50412C13.8105 2.71949 13.43 2.98301 13.0433 3.22933C12.6373 3.48805 12.2307 3.74538 11.8241 4.00342C10.1974 5.03345 8.56878 6.06074 6.96421 7.12449C6.56306 7.3901 6.16398 7.65843 5.76628 7.92954C5.42362 8.16279 5.07202 8.3933 4.67775 8.52885C4.34954 8.64237 4.00825 8.6871 3.67799 8.61761C3.26791 8.5316 2.94244 8.30385 2.61286 8.05684C2.28326 7.80981 1.85598 7.69422 1.44451 7.81325C1.18993 7.88687 1.29796 8.28528 1.5546 8.21165L1.55048 8.21097Z" fill="white" stroke="white" stroke-width="0.362054"/>
</g>
<path d="M4.17642 4.65773C4.16339 4.65267 4.15017 4.64751 4.1368 4.64236C4.32089 4.54569 4.49493 4.45647 4.68859 4.41592C4.79775 4.39316 4.9107 4.39419 5.03323 4.39532C5.06032 4.39555 5.08789 4.39581 5.11597 4.39581C5.26299 4.39581 5.39832 4.39785 5.53915 4.40196C5.79422 4.41014 6.04943 4.42789 6.30413 4.45383C6.55891 4.47979 6.74871 4.50573 6.98736 4.54138C7.15446 4.56635 7.32172 4.59202 7.48917 4.61771C7.96601 4.69086 8.44437 4.76426 8.92483 4.82248L8.9251 4.8225C9.017 4.83334 9.09539 4.78926 9.1467 4.73421C9.19761 4.67959 9.23267 4.60339 9.23267 4.52617C9.23267 4.43918 9.198 4.36695 9.14195 4.3155C9.08761 4.26562 9.01711 4.23857 8.94681 4.2299L8.94656 4.22986C8.56221 4.1835 8.17587 4.12379 7.78783 4.06383C7.03671 3.94775 6.27917 3.83067 5.51715 3.80744C5.47421 3.80616 5.43036 3.80455 5.38588 3.8029C5.10424 3.79247 4.79598 3.78108 4.51059 3.8476C4.22485 3.91375 3.95693 4.05987 3.7137 4.1925C3.69918 4.20043 3.68476 4.20828 3.67042 4.21609C3.51796 4.29864 3.391 4.44358 3.38231 4.64055C3.37391 4.83159 3.47748 5.01569 3.65776 5.10074L3.65805 5.10087C3.7265 5.13286 3.79771 5.15764 3.86565 5.18009C3.88066 5.18503 3.89543 5.18987 3.91001 5.19461C3.96291 5.21188 4.01318 5.2283 4.06235 5.24718C4.14317 5.27814 4.22391 5.30912 4.3046 5.34009C4.38527 5.37105 4.46598 5.40203 4.54687 5.433C4.65108 5.4729 4.75528 5.51277 4.85945 5.55263C5.43992 5.77473 6.01977 5.99658 6.59816 6.22339C6.6831 6.25657 6.76962 6.23606 6.83398 6.19677C6.89782 6.1578 6.95166 6.0938 6.97237 6.01874C7.02076 5.84375 6.9072 5.70826 6.77337 5.65631L6.6501 5.60847V5.60937C6.12291 5.40306 5.59417 5.20067 5.06571 4.99899C4.77409 4.88758 4.48247 4.77546 4.19074 4.66331L4.15812 4.74775L4.19093 4.66338C4.18611 4.66152 4.18128 4.65964 4.17642 4.65773Z" fill="white"/>
<path d="M6.98736 4.54138C6.74871 4.50573 6.55891 4.47979 6.30413 4.45383C6.04943 4.42789 5.79422 4.41014 5.53915 4.40196C5.39832 4.39785 5.26299 4.39581 5.11597 4.39581C5.08789 4.39581 5.06032 4.39555 5.03323 4.39532C4.9107 4.39419 4.79775 4.39316 4.68859 4.41592C4.49493 4.45647 4.32089 4.54569 4.1368 4.64236C4.15017 4.64751 4.16339 4.65267 4.17642 4.65773C4.18128 4.65964 4.18611 4.66152 4.19093 4.66338L4.15812 4.74775L4.19074 4.66331C4.48247 4.77546 4.77409 4.88758 5.06571 4.99899C5.59417 5.20067 6.12291 5.40306 6.6501 5.60937V5.60847L6.77337 5.65631C6.9072 5.70826 7.02076 5.84375 6.97237 6.01874C6.95166 6.0938 6.89782 6.1578 6.83398 6.19677C6.76962 6.23606 6.6831 6.25657 6.59816 6.22339C6.01977 5.99658 5.43992 5.77473 4.85945 5.55263C4.75528 5.51277 4.65108 5.4729 4.54687 5.433C4.46598 5.40203 4.38527 5.37105 4.3046 5.34009C4.22391 5.30912 4.14317 5.27814 4.06235 5.24718C4.01318 5.2283 3.96291 5.21188 3.91001 5.19461C3.89543 5.18987 3.88066 5.18503 3.86565 5.18009C3.79771 5.15764 3.7265 5.13286 3.65805 5.10087L3.65776 5.10074C3.47748 5.01569 3.37391 4.83159 3.38231 4.64055C3.391 4.44358 3.51796 4.29864 3.67042 4.21609C3.68476 4.20828 3.69918 4.20043 3.7137 4.1925C3.95693 4.05987 4.22485 3.91375 4.51059 3.8476C4.79598 3.78108 5.10424 3.79247 5.38588 3.8029C5.43036 3.80455 5.47421 3.80616 5.51715 3.80744C6.27917 3.83067 7.03671 3.94775 7.78783 4.06383C8.17587 4.12379 8.56221 4.1835 8.94656 4.22986L8.94681 4.2299C9.01711 4.23857 9.08761 4.26562 9.14195 4.3155C9.198 4.36695 9.23267 4.43918 9.23267 4.52617C9.23267 4.60339 9.19761 4.67959 9.1467 4.73421C9.09539 4.78926 9.017 4.83334 8.9251 4.8225L8.92483 4.82248C8.44437 4.76426 7.96601 4.69086 7.48917 4.61771C7.32172 4.59202 7.15446 4.56635 6.98736 4.54138ZM6.98736 4.54138L7.00068 4.45213" stroke="white" stroke-width="0.181027"/>
<path d="M8.36329 11.5483C8.49832 11.4789 8.67873 11.509 8.76516 11.6575C8.80515 11.7262 8.81279 11.8085 8.79498 11.8811C8.77705 11.9542 8.73107 12.0261 8.654 12.0657C8.59187 12.0976 8.52986 12.1295 8.46784 12.1615L8.4676 12.1616C8.40559 12.1936 8.34337 12.2256 8.28113 12.2576L8.36329 11.5483ZM8.36329 11.5483C8.19474 11.6353 8.02603 11.7221 7.85726 11.809L7.85704 11.8091C7.68837 11.896 7.51966 11.9828 7.35109 12.0698C7.35107 12.0699 7.35111 12.0698 7.35109 12.0698L6.54396 12.4858L5.73688 12.9017C5.73687 12.9017 5.73692 12.9017 5.73688 12.9017C5.67459 12.9337 5.61238 12.9658 5.55032 12.9978C5.48823 13.0298 5.42615 13.0617 5.36392 13.0937C5.28684 13.1333 5.24085 13.2051 5.22293 13.2783C5.20513 13.3509 5.21277 13.4332 5.25275 13.5019C5.33918 13.6503 5.51945 13.6806 5.65449 13.6112C5.82302 13.5242 5.99188 13.4372 6.16064 13.3504C6.32941 13.2635 6.49821 13.1766 6.66687 13.0895L7.47396 12.6736L8.28113 12.2576L8.36329 11.5483Z" fill="white"/>
<path d="M8.36329 11.5483C8.49832 11.4789 8.67873 11.509 8.76516 11.6575C8.80515 11.7262 8.81279 11.8085 8.79498 11.8811C8.77705 11.9542 8.73107 12.0261 8.654 12.0657C8.59187 12.0976 8.52986 12.1295 8.46784 12.1615L8.4676 12.1616C8.40559 12.1936 8.34337 12.2256 8.28113 12.2576M8.36329 11.5483L8.28113 12.2576M8.36329 11.5483C8.19474 11.6353 8.02603 11.7221 7.85726 11.809L7.85704 11.8091C7.68837 11.896 7.51966 11.9828 7.35109 12.0698M8.28113 12.2576L7.47396 12.6736L6.66687 13.0895C6.49821 13.1766 6.32941 13.2635 6.16064 13.3504C5.99188 13.4372 5.82302 13.5242 5.65449 13.6112C5.51945 13.6806 5.33918 13.6503 5.25275 13.5019C5.21277 13.4332 5.20513 13.3509 5.22293 13.2783C5.24085 13.2051 5.28684 13.1333 5.36392 13.0937C5.42615 13.0617 5.48823 13.0298 5.55032 12.9978C5.61238 12.9658 5.67459 12.9337 5.73688 12.9017M7.35109 12.0698C7.35107 12.0699 7.35111 12.0698 7.35109 12.0698ZM7.35109 12.0698L6.54396 12.4858L5.73688 12.9017M5.73688 12.9017C5.73687 12.9017 5.73692 12.9017 5.73688 12.9017Z" stroke="white" stroke-width="0.181027"/>
<path d="M8.36577 13.699L8.36546 13.6991L7.63779 14.0563L6.91009 14.4134C6.52557 14.6022 6.14086 14.7909 5.75613 14.9795L5.7558 14.9797L5.75535 14.9799C5.37068 15.1686 4.98598 15.3572 4.60144 15.5461C4.42536 15.6327 4.24854 15.7194 4.07246 15.8054C3.99316 15.8442 3.94727 15.9178 3.92971 15.9909C3.91229 16.0636 3.91991 16.1463 3.95967 16.2145L3.95983 16.2147C4.04852 16.3656 4.22592 16.3896 4.35959 16.3246L4.35988 16.3244L5.08755 15.9673L5.81524 15.6102C6.19964 15.4214 6.58422 15.2328 6.96882 15.0442L6.96953 15.0439C7.35435 14.8552 7.73924 14.6664 8.1239 14.4775C8.29998 14.3909 8.4768 14.3042 8.65288 14.2182C8.73217 14.1793 8.77808 14.1058 8.79563 14.0326C8.81306 13.96 8.80542 13.8773 8.76566 13.8091L8.7655 13.8088C8.67681 13.658 8.49941 13.634 8.36577 13.699Z" fill="white" stroke="white" stroke-width="0.181027"/>
<path d="M2.27856 6.52235C2.23513 6.54268 2.19186 6.56303 2.1487 6.58332L2.14852 6.58341C2.10539 6.60369 2.06232 6.62393 2.01911 6.64417C1.93757 6.68244 1.89178 6.75752 1.87464 6.83088C1.85766 6.90364 1.86562 6.98656 1.90504 7.05396C1.99509 7.20746 2.17155 7.22654 2.30367 7.16459C2.60304 7.02454 2.90222 6.88432 3.20137 6.74411C3.50054 6.60391 3.79967 6.46371 4.09897 6.3237C4.1424 6.30335 4.18567 6.28302 4.22883 6.26272C4.27201 6.24243 4.31515 6.22215 4.35842 6.20189C4.43996 6.16362 4.48576 6.08852 4.50289 6.01517C4.51987 5.94242 4.5119 5.85951 4.47249 5.79211C4.38244 5.6386 4.206 5.6195 4.07386 5.68147C3.77453 5.82151 3.47538 5.96171 3.17626 6.10189L3.17608 6.10198C2.87695 6.24217 2.57784 6.38235 2.27856 6.52235Z" fill="white" stroke="white" stroke-width="0.181027"/>
<path d="M2.35596 11.684C2.02091 11.8453 1.68588 12.0069 1.35103 12.1683L1.35077 12.1685L1.35053 12.1686C1.01566 12.3301 0.680826 12.4916 0.345823 12.6529C0.322858 12.6639 0.299791 12.675 0.276685 12.6862C0.205345 12.7205 0.133489 12.755 0.0621091 12.7899C-0.0180262 12.8285 -0.0638027 12.9026 -0.0811832 12.9758C-0.0984389 13.0485 -0.0906871 13.1313 -0.0508972 13.1992C0.038179 13.3517 0.216046 13.373 0.348536 13.3094C0.683537 13.1481 1.01849 12.9866 1.35329 12.8251L1.35372 12.8249C1.68867 12.6634 2.02359 12.5019 2.35867 12.3405C2.38168 12.3294 2.40479 12.3183 2.42794 12.3072C2.49923 12.2729 2.57105 12.2384 2.64238 12.2035C2.72251 12.1649 2.7683 12.0908 2.78568 12.0176C2.80293 11.9449 2.79518 11.8621 2.75539 11.7942C2.66632 11.6417 2.48844 11.6204 2.35596 11.684Z" fill="white" stroke="white" stroke-width="0.181027"/>
<path d="M0.321445 10.8471L0.766417 10.6468L1.21123 10.4465L0.321445 10.8471ZM0.321445 10.8471C0.311027 10.8518 0.300745 10.8564 0.290556 10.861C0.258369 10.8756 0.227098 10.8898 0.195259 10.9037M0.321445 10.8471L0.195259 10.9037L0.321445 10.8471ZM0.195259 10.9037L0.19416 10.9042L0.195259 10.9037ZM0.195259 10.9037L0.19416 10.9042L0.195259 10.9037ZM0.19416 10.9042C0.112317 10.9411 0.0659593 11.0177 0.0482273 11.0906C0.0305661 11.1632 0.0368587 11.2492 0.0809407 11.3177M0.19416 10.9042L0.0809407 11.3177L0.19416 10.9042ZM0.0809407 11.3177L0.0811414 11.3181L0.0809407 11.3177ZM0.0809407 11.3177L0.0811414 11.3181L0.0809407 11.3177ZM0.0811414 11.3181C0.125964 11.3872 0.189187 11.4324 0.262321 11.45C0.33427 11.4672 0.408863 11.4561 0.476427 11.4256L0.921235 11.2254L1.3661 11.0252M0.0811414 11.3181L1.3661 11.0252L0.0811414 11.3181ZM1.3661 11.0252C1.37652 11.0205 1.38691 11.0158 1.3971 11.0111C1.42928 10.9965 1.46055 10.9824 1.49239 10.9685M1.3661 11.0252L1.49239 10.9685L1.3661 11.0252ZM1.49239 10.9685L1.49349 10.968L1.49239 10.9685ZM1.49239 10.9685L1.49349 10.968L1.49239 10.9685ZM1.49349 10.968C1.57533 10.9311 1.62169 10.8545 1.63942 10.7816C1.65709 10.709 1.65079 10.623 1.60671 10.5544L1.60651 10.5541M1.49349 10.968L1.60651 10.5541L1.49349 10.968ZM1.60651 10.5541C1.56169 10.485 1.49847 10.4398 1.42533 10.4222L1.60651 10.5541ZM1.60651 10.5541L1.42533 10.4222L1.60651 10.5541ZM1.42533 10.4222C1.3534 10.4049 1.27877 10.4161 1.21123 10.4465L1.42533 10.4222Z" fill="white"/>
<path d="M0.321445 10.8471L0.766417 10.6468L1.21123 10.4465M0.321445 10.8471L1.21123 10.4465M0.321445 10.8471C0.311027 10.8518 0.300745 10.8564 0.290556 10.861C0.258369 10.8756 0.227098 10.8898 0.195259 10.9037M0.321445 10.8471L0.195259 10.9037M1.21123 10.4465C1.27877 10.4161 1.3534 10.4049 1.42533 10.4222M1.21123 10.4465L1.42533 10.4222M0.195259 10.9037L0.19416 10.9042M0.19416 10.9042C0.112317 10.9411 0.0659593 11.0177 0.0482273 11.0906C0.0305661 11.1632 0.0368587 11.2492 0.0809407 11.3177M0.19416 10.9042L0.0809407 11.3177M0.0809407 11.3177L0.0811415 11.3181M0.0811415 11.3181C0.125964 11.3872 0.189187 11.4324 0.262321 11.45C0.33427 11.4672 0.408862 11.4561 0.476427 11.4256L0.921235 11.2254L1.3661 11.0252M0.0811415 11.3181L1.3661 11.0252M1.3661 11.0252C1.37652 11.0205 1.38691 11.0158 1.3971 11.0111C1.42928 10.9965 1.46055 10.9824 1.49239 10.9685M1.3661 11.0252L1.49239 10.9685M1.49239 10.9685L1.49349 10.968M1.49349 10.968C1.57533 10.9311 1.62169 10.8545 1.63942 10.7816C1.65709 10.709 1.65079 10.623 1.60671 10.5544L1.60651 10.5541M1.49349 10.968L1.60651 10.5541M1.60651 10.5541C1.56169 10.485 1.49847 10.4398 1.42533 10.4222M1.60651 10.5541L1.42533 10.4222" stroke="white" stroke-width="0.181027"/>
</g>
</svg>
