<svg width="19" height="19" viewBox="0 0 19 19" fill="none" xmlns="http://www.w3.org/2000/svg">
<path d="M4.27224 10.8617L3.85587 11.4229L4.0369 11.6763C4.07311 11.622 4.10931 11.5496 4.16362 11.4953L4.34465 10.9341C4.30844 10.916 4.29034 10.8798 4.27224 10.8617ZM10.391 10.4996C10.3729 10.4634 10.3548 10.4272 10.3548 10.391C10.3185 10.3367 10.2642 10.2824 10.228 10.2462L10.1918 10.21L9.43151 11.2418L9.93839 11.9298L10.391 10.4996ZM10.5539 10.1919C10.572 10.1919 10.6082 10.1919 10.6263 10.1919L12.8167 10.7893C12.69 10.2462 12.6176 9.5945 12.69 8.96091C12.7624 8.30921 12.9615 7.65751 13.3417 7.18684C13.4322 7.06012 13.5408 6.9515 13.6494 6.86099C14.0839 6.49894 14.5727 6.35411 15.0253 6.39032C15.4778 6.42652 15.9123 6.60755 16.2562 6.89719C16.3649 6.98771 16.4554 7.07822 16.5459 7.18684C16.9803 7.72992 17.1976 8.50834 17.2519 9.30486C17.3062 10.1919 17.1795 11.0789 16.926 11.5858C17.2519 11.7668 17.5053 11.966 17.6864 12.2194C18.0122 12.672 18.0665 13.2513 17.976 13.9935C17.976 14.0659 17.9036 14.1202 17.8312 14.1202H14.4279L14.4822 14.609C14.5003 14.7357 14.4822 14.8443 14.446 14.9529C14.4098 15.0615 14.3555 15.1701 14.2649 15.2607C14.1744 15.3512 14.0839 15.4236 13.9753 15.4779C13.8667 15.5322 13.7581 15.5503 13.6313 15.5503H4.38085C4.25413 15.5503 4.14552 15.5322 4.0369 15.4779C3.92828 15.4236 3.83777 15.3693 3.74726 15.2607C3.65674 15.1701 3.60244 15.0615 3.56623 14.9529C3.53002 14.8443 3.51192 14.7176 3.53002 14.609L3.58433 14.1202H0.633588H0.615485C0.543074 14.1202 0.470663 14.1021 0.398253 14.0659C0.325842 14.0297 0.271533 13.9935 0.217225 13.9392C0.162917 13.8848 0.126712 13.8124 0.108609 13.74C0.0905062 13.6676 0.0724035 13.5952 0.0905062 13.5228L0.253431 12.1108C0.343944 11.3686 1.14046 11.1151 1.14046 11.1151L2.49817 10.735C2.51627 10.735 2.51627 10.735 2.53437 10.735C2.55248 10.7169 2.57058 10.6807 2.58868 10.6445C2.60678 10.6264 2.62489 10.5902 2.64299 10.572V10.3548C2.49817 10.2462 2.37145 10.1376 2.26283 9.99276C2.13611 9.81173 2.0275 9.5764 1.95509 9.28675C1.84647 9.26865 1.77406 9.19624 1.70165 9.08763C1.64734 8.99711 1.61113 8.88849 1.57493 8.77988C1.52062 8.59885 1.52062 8.41782 1.53872 8.30921C1.53872 8.273 1.55683 8.2549 1.55683 8.2368C1.50252 8.12818 1.44821 7.98336 1.43011 7.85664C1.3939 7.6213 1.41201 7.38597 1.48442 7.20494C1.41201 7.07822 1.33959 6.9153 1.32149 6.71617C1.30339 6.53514 1.32149 6.33601 1.3939 6.11878C1.3939 6.10067 1.41201 6.08257 1.41201 6.06447C1.46631 6.01016 1.53872 5.99206 1.61114 6.04637C1.66544 6.10068 1.75596 6.13688 1.82837 6.17309C1.93698 6.20929 2.0456 6.2455 2.13611 6.2636C2.22663 6.2817 2.29904 6.2817 2.38955 6.2817C2.46196 6.2817 2.55248 6.2636 2.62489 6.2636C2.7154 6.2455 2.78781 6.22739 2.84212 6.22739C3.14987 6.15498 3.43951 6.10067 3.78346 6.11878C4.00069 6.11878 4.27224 6.19119 4.48947 6.2998C4.65239 6.39032 4.77911 6.51704 4.86963 6.66186H4.88773C4.92393 6.66186 4.96014 6.67996 4.99635 6.71617C4.99635 6.71617 4.99634 6.71617 5.01445 6.71617C5.15927 6.82478 5.26789 7.02391 5.30409 7.25925C5.3403 7.44028 5.3584 7.65751 5.32219 7.85664C5.30409 7.98336 5.26789 8.11008 5.23168 8.21869C5.24978 8.2549 5.26789 8.2911 5.28599 8.34541C5.30409 8.45403 5.28599 8.72557 5.21358 8.9428C5.21358 8.9428 5.21358 8.9428 5.21358 8.96091C5.19547 9.03332 5.15927 9.10573 5.10496 9.16004C5.05065 9.23245 4.97824 9.28676 4.90583 9.30486C4.85152 9.5945 4.76101 9.81173 4.63429 9.99276C4.54378 10.1195 4.43516 10.2462 4.29034 10.3548V10.6264C4.30844 10.6445 4.32654 10.6626 4.34465 10.6988C4.38085 10.735 4.39895 10.7712 4.39895 10.7893L4.86963 10.916C4.99634 10.8617 5.08686 10.8255 5.08686 10.8255L7.27729 10.2281C7.29539 10.2281 7.3316 10.2281 7.3497 10.2281C7.3859 10.1919 7.42211 10.1376 7.45831 10.1014C7.51262 10.0471 7.54883 9.99276 7.58503 9.95656V9.54019C7.3316 9.37727 7.13247 9.17814 6.95144 8.9428C6.73421 8.65316 6.57128 8.273 6.46267 7.78423C6.44456 7.78423 6.44456 7.78423 6.42646 7.78423C6.28164 7.74802 6.15492 7.63941 6.0644 7.49459C5.97389 7.36787 5.91958 7.18684 5.86528 7.02391C5.79286 6.75237 5.77476 6.46273 5.79286 6.31791C5.79286 6.29981 5.81097 6.2636 5.81097 6.2455C5.68425 6.04637 5.61184 5.81103 5.57563 5.53949C5.52132 5.17744 5.55753 4.76107 5.64804 4.48953C5.52132 4.2904 5.43081 4.01886 5.3946 3.69301C5.3584 3.40337 5.3946 3.07752 5.52132 2.73357C5.52132 2.71547 5.53943 2.67926 5.55753 2.66116C5.62994 2.57064 5.75666 2.57064 5.84717 2.64305C5.93769 2.71547 6.0644 2.78788 6.20923 2.84218C6.37215 2.9146 6.55318 2.9508 6.7161 2.9689C6.86092 2.98701 6.98764 2.98701 7.11436 2.98701C7.24108 2.98701 7.3678 2.9689 7.51262 2.9508H7.53073C7.67555 2.9146 7.78416 2.89649 7.89278 2.87839C8.39966 2.76977 8.83412 2.67926 9.41341 2.69736C9.77546 2.71547 10.2099 2.80598 10.5539 3.00511C10.8073 3.14993 11.0246 3.34906 11.1513 3.6025C11.1694 3.6025 11.1694 3.6025 11.1875 3.6025C11.2418 3.6206 11.3142 3.6387 11.3685 3.67491C11.3685 3.67491 11.3866 3.67491 11.3866 3.69301C11.6219 3.85594 11.7849 4.18179 11.8573 4.56194C11.9116 4.86969 11.9297 5.19554 11.8935 5.50328C11.8573 5.75672 11.803 5.99206 11.7125 6.17309C11.7306 6.20929 11.7487 6.2636 11.7668 6.31791C11.803 6.49894 11.7668 6.8972 11.6581 7.22304C11.6219 7.34976 11.5676 7.45838 11.4952 7.54889C11.4228 7.65751 11.3323 7.72992 11.2056 7.74802C11.1875 7.74802 11.1694 7.74802 11.1694 7.74802C11.0789 8.21869 10.934 8.58075 10.7349 8.88849C10.7349 9.05142 10.5539 9.25055 10.3185 9.41347V9.92035C10.3548 9.95656 10.391 9.99276 10.4272 10.0471C10.4815 10.1014 10.5177 10.1557 10.5539 10.1919ZM13.1426 10.9341C13.3055 11.0246 13.5227 11.1513 13.7038 11.3143L13.9934 11.2056L14.0296 11.1694L14.0477 11.1513L14.0658 11.1332C14.1382 11.0608 14.1744 10.9703 14.2106 10.8798C14.2468 10.7893 14.2468 10.6988 14.2468 10.6264C14.1201 10.5358 14.0296 10.4272 13.921 10.3186C13.6494 9.97466 13.4865 9.52209 13.4865 9.06952C13.4865 8.81608 13.5227 8.38162 13.5951 7.98336C13.6494 7.67561 13.74 7.40407 13.8305 7.22304C13.8486 7.16874 13.9029 7.15063 13.9572 7.15063C14.0296 7.15063 14.102 7.20494 14.102 7.29545C14.102 7.45838 14.2287 7.567 14.4098 7.65751C14.7718 7.82043 15.3149 7.83854 15.4597 7.83854C15.8761 7.83854 16.1114 8.00146 16.22 8.273C16.3286 8.52644 16.3286 8.85229 16.3286 9.28675C16.3286 9.72122 16.1657 10.1195 15.9123 10.4091C15.8399 10.4996 15.7494 10.572 15.677 10.6264C15.677 10.7169 15.677 10.8255 15.7132 10.916C15.7313 11.0065 15.7675 11.097 15.8218 11.1513C15.8399 11.1694 15.8399 11.1694 15.858 11.1875C15.858 11.1875 15.8761 11.2056 15.8942 11.2056L15.9123 11.2237H15.9304C16.2019 11.2962 16.4373 11.3867 16.6545 11.4772C16.8898 11.0065 17.0166 10.1738 16.9622 9.32296C16.9079 8.58075 16.7088 7.85664 16.3105 7.36787C16.2381 7.27735 16.1476 7.18684 16.0571 7.11443C15.7494 6.86099 15.3692 6.69807 14.9709 6.67996C14.5727 6.66186 14.1563 6.77048 13.7943 7.07822C13.7038 7.15063 13.6132 7.25925 13.5227 7.36787C13.1788 7.80233 12.9977 8.38162 12.9434 8.99711C12.8891 9.68501 12.9796 10.391 13.1426 10.9341ZM13.9572 11.6039C14.0296 11.7125 14.102 11.8211 14.1382 11.966C14.1744 12.0022 14.1925 12.0384 14.1744 12.0927C14.1925 12.1832 14.2106 12.2737 14.2287 12.3642L14.283 12.8892L14.5908 13.2331L14.0296 11.5315L13.9572 11.6039ZM14.3555 13.3599L14.4098 13.8667H14.808L14.3555 13.3599ZM4.56188 11.1151C4.57998 11.097 4.61619 11.0789 4.63429 11.0608L4.57998 11.0427L4.56188 11.1151ZM7.65744 10.391C7.65744 10.4272 7.63934 10.4634 7.62124 10.4996L8.07381 11.9298L8.56258 11.2418L7.82037 10.21L7.78416 10.2462C7.74796 10.2824 7.71175 10.3367 7.65744 10.391ZM7.3859 10.6264L5.3403 11.1875C5.28599 11.2056 4.30844 11.5134 4.21793 12.4004L3.96449 14.6633C3.96449 14.7357 3.96449 14.79 3.98259 14.8443C4.00069 14.8986 4.0369 14.9529 4.07311 15.0072C4.10931 15.0615 4.16362 15.0977 4.21793 15.1158C4.27224 15.1339 4.32654 15.152 4.39895 15.152H8.81602L7.91088 12.2737L7.3859 10.6264ZM9.23238 15.152H13.6494C13.7219 15.152 13.7762 15.1339 13.8305 15.1158C13.8848 15.0977 13.9391 15.0615 13.9753 15.0072C14.0115 14.9529 14.0477 14.8986 14.0658 14.8443C14.0839 14.79 14.0839 14.7357 14.0839 14.6633L13.8305 12.4004C13.8305 12.3642 13.8305 12.3461 13.8124 12.3099C13.8124 12.2737 13.7943 12.2556 13.7943 12.2194C13.7943 12.2013 13.7943 12.2013 13.7943 12.1832C13.7762 12.1289 13.7581 12.0746 13.74 12.0203C13.74 12.0203 13.7219 12.0022 13.7219 11.9841C13.7038 11.9479 13.6857 11.8935 13.6494 11.8573C13.6313 11.8211 13.5951 11.7849 13.577 11.7487C13.5589 11.7306 13.5589 11.7125 13.5589 11.7125C13.2331 11.3324 12.7624 11.1694 12.7262 11.1513L10.6806 10.5902L10.1375 12.2737L9.23238 15.152ZM8.18242 12.2556L8.39966 12.9435L8.56258 11.7306L8.18242 12.2556ZM8.54448 13.4142L9.01515 14.8986L9.44961 13.5047L9.17807 11.3505H8.81602L8.79792 11.3686L8.54448 13.4142ZM9.59444 13.034L9.82977 12.2556L9.41341 11.6944L9.59444 13.034ZM9.15997 11.1513L10.047 9.93845V9.5945C10.0108 9.6126 9.97459 9.63071 9.93839 9.64881C9.84788 9.70312 9.66685 9.79363 9.44961 9.84794C9.30479 9.88414 9.14187 9.92035 8.96084 9.92035C8.79792 9.92035 8.61689 9.88414 8.47207 9.84794C8.25484 9.79363 8.07381 9.70312 7.98329 9.64881V9.93845L8.85223 11.1332L9.15997 11.1513ZM6.29974 6.49894C6.26353 6.48083 6.22733 6.46273 6.19112 6.44463C6.19112 6.57135 6.22733 6.73427 6.26354 6.9153C6.29974 7.06012 6.35405 7.20494 6.42646 7.31356C6.48077 7.40407 6.53508 7.45838 6.60749 7.47648C6.62559 7.47648 6.64369 7.47648 6.6618 7.47648H6.6799C6.75231 7.45838 6.82472 7.51269 6.84282 7.5851C6.95144 8.09198 7.11436 8.47213 7.31349 8.76178C7.53073 9.05142 7.78416 9.26865 8.12812 9.44968C8.20053 9.48588 8.36345 9.5764 8.56258 9.63071C8.6893 9.66691 8.83412 9.68501 8.97894 9.68501C9.12377 9.68501 9.26859 9.64881 9.39531 9.6126C9.59444 9.5583 9.75736 9.46778 9.82977 9.43158C10.2099 9.21434 10.4815 8.97901 10.6806 8.68936C10.8797 8.39972 11.0064 8.03767 11.097 7.53079C11.097 7.51269 11.097 7.51269 11.097 7.49459C11.1151 7.42217 11.2056 7.38597 11.278 7.40407C11.2961 7.40407 11.3142 7.42217 11.3323 7.40407C11.3685 7.40407 11.4047 7.36787 11.4409 7.31356C11.4952 7.25925 11.5314 7.16874 11.5676 7.06012C11.64 6.82478 11.6762 6.55324 11.6762 6.39032C11.5857 6.48083 11.4952 6.53514 11.3685 6.55324C11.3504 6.55324 11.3504 6.55324 11.3323 6.55324C11.2237 6.55324 11.1151 6.46273 11.1151 6.35411V6.2636C11.1151 6.22739 11.1151 6.17309 11.1151 6.13688C11.1151 6.01016 11.1151 5.91965 11.1151 5.82913C11.1151 5.46708 11.1151 5.32226 10.8797 4.83348C10.8797 4.83348 10.8616 4.83348 10.8616 4.81538H10.8435C10.1918 4.70677 9.46772 4.85159 8.77981 4.97831C8.0376 5.12313 7.3316 5.26795 6.7161 5.10503L6.75231 6.33601C6.75231 6.35411 6.75231 6.37222 6.75231 6.39032C6.73421 6.49893 6.62559 6.58945 6.51697 6.57135C6.42646 6.55324 6.35405 6.53514 6.29974 6.49894ZM6.33595 6.01016L6.29974 4.81538C6.29974 4.70677 6.39025 4.59815 6.49887 4.59815C6.53508 4.59815 6.57128 4.59815 6.58938 4.61625C7.13247 4.88779 7.89278 4.74297 8.6893 4.58005C9.41341 4.43522 10.1737 4.2904 10.9159 4.41712C10.9702 4.41712 11.0246 4.45333 11.0608 4.47143C11.097 4.48953 11.1513 4.52574 11.1875 4.56194C11.2056 4.58005 11.2237 4.59815 11.2237 4.63435C11.5314 5.23174 11.5314 5.39467 11.5133 5.84724V5.90154C11.5676 5.75672 11.6219 5.5938 11.64 5.41277C11.6763 5.14123 11.6581 4.85159 11.6038 4.59815C11.5495 4.30851 11.4409 4.09127 11.2961 3.98266H11.278C11.2599 3.96455 11.2418 3.96455 11.2418 3.96455C11.2237 3.96455 11.2237 3.96455 11.2056 3.96455C11.097 3.98266 11.0064 3.92835 10.9702 3.83783C10.8978 3.6206 10.7168 3.43957 10.4996 3.33096C10.2099 3.16803 9.84788 3.09562 9.54013 3.07752C9.01515 3.05942 8.58068 3.14993 8.11001 3.25855C7.98329 3.27665 7.85658 3.31286 7.74796 3.33096H7.72986C7.56693 3.36716 7.42211 3.36716 7.27729 3.38527C7.11436 3.38527 6.96954 3.38527 6.80662 3.36716H6.78851C6.60749 3.34906 6.39025 3.29475 6.19112 3.20424C6.11871 3.16803 6.0282 3.13183 5.97389 3.09562C5.93769 3.29475 5.91958 3.47578 5.93769 3.6387C5.97389 3.92835 6.06441 4.16368 6.19112 4.32661C6.24543 4.39902 6.24543 4.47143 6.20923 4.54384L6.19112 4.58005C6.10061 4.79728 6.08251 5.15933 6.11871 5.48518C6.15492 5.66621 6.22733 5.88344 6.33595 6.01016ZM15.0796 13.8667H17.7045C17.7769 13.2513 17.7226 12.7806 17.451 12.4004C17.2519 12.1108 16.9079 11.8754 16.4011 11.6763C16.4192 11.7306 16.4192 11.7668 16.4192 11.8211C16.4192 11.8754 16.383 11.9298 16.3468 11.9841C16.3287 12.0203 16.2924 12.0384 16.2562 12.0565L16.1295 12.1289L16.22 12.2194C16.2562 12.2737 16.3286 12.3642 16.3105 12.4909C16.3105 12.5633 16.2743 12.6539 16.2019 12.7444L15.0796 13.8667ZM14.9528 13.378L15.1882 12.7263C15.1158 12.7444 15.0434 12.7444 14.9709 12.7444C14.8985 12.7444 14.808 12.7444 14.7356 12.7263L14.9528 13.378ZM15.2606 12.4909L15.677 11.3324L15.6588 11.3143C15.5683 11.2237 15.514 11.097 15.4778 10.9703C15.4597 10.8979 15.4416 10.8255 15.4416 10.7531C15.2787 10.8255 15.1158 10.8617 14.9347 10.8617C14.7899 10.8617 14.6451 10.8255 14.5184 10.7712C14.5184 10.8255 14.5003 10.8979 14.4822 10.9522C14.446 11.0789 14.3736 11.2056 14.283 11.3143V11.3324L14.6632 12.4909C14.7899 12.5271 14.8804 12.5271 14.9709 12.5271C15.0615 12.5452 15.152 12.5271 15.2606 12.4909ZM16.1476 11.7668L15.8942 11.5496L15.2787 13.2694L15.9847 12.5452C16.0028 12.5271 16.0209 12.4909 16.0209 12.4728C16.0209 12.4366 16.0028 12.4185 16.0028 12.4004L15.7856 12.1651C15.7856 12.1651 15.7675 12.147 15.7675 12.1289C15.7313 12.0565 15.7494 11.9841 15.8218 11.9479L16.1295 11.7849C16.1295 11.7849 16.1295 11.7849 16.1476 11.7668C16.1476 11.7849 16.1476 11.7849 16.1476 11.7668ZM14.4641 10.4453C14.6089 10.5358 14.7718 10.5902 14.9347 10.5902C15.2606 10.5902 15.5321 10.4453 15.7494 10.21C15.9666 9.97466 16.0933 9.64881 16.0933 9.26865C16.0933 8.8885 16.0933 8.56265 16.0028 8.36352C15.9304 8.20059 15.7856 8.09197 15.4959 8.09197C15.3149 8.09197 14.7356 8.07387 14.3192 7.89284C14.1925 7.83854 14.0658 7.74802 13.9753 7.65751C13.9391 7.76613 13.921 7.89284 13.8848 8.03767C13.8124 8.41782 13.7762 8.83419 13.7762 9.06952C13.7762 9.44968 13.921 9.84794 14.1382 10.1557C14.2468 10.2643 14.3555 10.3548 14.4641 10.4453ZM3.56623 11.5858H3.45761L3.29469 12.8168L3.51192 13.5228L3.71105 12.8711L3.56623 11.5858ZM3.43951 11.3143H3.58433L4.10931 10.6083V10.4996C4.055 10.5358 3.94639 10.5902 3.80156 10.6264C3.71105 10.6626 3.60243 10.6807 3.49382 10.6807C3.3852 10.6807 3.27659 10.6626 3.18607 10.6264C3.09556 10.6083 3.00504 10.572 2.95074 10.5358V10.6083L3.43951 11.3143ZM2.46196 11.0427L1.21288 11.3867C1.21288 11.3867 0.57928 11.5677 0.506869 12.147L0.362047 13.559C0.362047 13.5952 0.362047 13.6314 0.38015 13.6676C0.398253 13.7038 0.416355 13.74 0.434458 13.7581C0.452561 13.7943 0.488766 13.8124 0.524972 13.8305C0.561177 13.8486 0.597383 13.8486 0.633588 13.8486C0.633588 13.8486 0.633588 13.8486 0.651691 13.8486L3.3671 13.8667L2.80591 12.0927L2.46196 11.0427ZM3.07746 12.0565L3.11366 12.1832L3.14987 11.966C3.13176 11.966 3.07746 12.0565 3.07746 12.0565ZM3.18607 11.4229L2.78781 10.8617C2.76971 10.8798 2.7335 10.916 2.7154 10.9341L2.96884 11.7306L3.18607 11.4229ZM1.86457 8.16439C1.88268 8.18249 1.88268 8.18249 1.88268 8.20059L1.99129 7.40407C2.00939 7.33166 2.0637 7.27735 2.13611 7.27735C2.15422 7.27735 2.17232 7.27735 2.17232 7.29545C2.49817 7.45838 2.93263 7.36787 3.3852 7.27735C3.80157 7.18684 4.23603 7.09633 4.7067 7.18684C4.74291 7.18684 4.77911 7.20494 4.79721 7.22304C4.83342 7.24115 4.85152 7.25925 4.86963 7.27735C4.88773 7.29546 4.88773 7.31356 4.90583 7.31356C5.08686 7.67561 5.08686 7.78423 5.08686 8.05577C5.10496 7.98336 5.14117 7.89284 5.14117 7.80233C5.15927 7.63941 5.15927 7.45838 5.12306 7.29545C5.08686 7.11443 5.03255 6.98771 4.94204 6.9153C4.94204 6.9153 4.92393 6.9153 4.92393 6.89719H4.90583C4.83342 6.9153 4.76101 6.87909 4.74291 6.80668C4.6886 6.66186 4.57998 6.57135 4.45326 6.49894C4.27224 6.39032 4.055 6.35411 3.85587 6.33601C3.53002 6.33601 3.25848 6.39032 2.96884 6.44463C2.89643 6.46273 2.80591 6.48083 2.75161 6.49894C2.75161 6.49894 2.75161 6.49894 2.7335 6.49894C2.64299 6.51704 2.55248 6.53514 2.44386 6.53514C2.35335 6.53514 2.24473 6.53514 2.15422 6.51704H2.13611C2.0275 6.49893 1.88268 6.46273 1.75596 6.42652C1.71975 6.40842 1.66544 6.39032 1.62924 6.37222C1.62924 6.48083 1.61114 6.58945 1.62924 6.67996C1.64734 6.86099 1.71975 7.00581 1.77406 7.09632C1.81026 7.15063 1.81026 7.20494 1.79216 7.24115V7.25925C1.73785 7.40407 1.71975 7.6032 1.75596 7.82043C1.75596 7.94715 1.79216 8.07387 1.86457 8.16439ZM1.82837 8.49024C1.82837 8.56265 1.84647 8.63506 1.86457 8.72557C1.88268 8.81608 1.91888 8.8885 1.95509 8.96091C1.97319 8.99711 2.00939 9.03332 2.0275 9.03332C2.0275 9.03332 2.0275 9.03332 2.0456 9.03332C2.11801 9.01521 2.19042 9.06952 2.20852 9.14193C2.28094 9.44968 2.37145 9.66691 2.49817 9.84794C2.62489 10.0109 2.78781 10.1557 2.98694 10.2643C3.02315 10.2824 3.13176 10.3367 3.24038 10.3729C3.31279 10.391 3.4033 10.4091 3.47572 10.4091C3.56623 10.4091 3.63864 10.391 3.71105 10.3729C3.81967 10.3367 3.92828 10.2824 3.96449 10.2643C4.19982 10.1376 4.36275 9.99276 4.47137 9.81173C4.59809 9.63071 4.6705 9.41347 4.7248 9.12383C4.7248 9.10573 4.7248 9.10573 4.7248 9.08763C4.74291 9.01521 4.83342 8.97901 4.90583 8.99711H4.92393C4.94204 8.99711 4.94204 8.97901 4.96014 8.96091C4.97824 8.9247 5.01445 8.88849 5.03255 8.83419V8.81608C5.06876 8.70747 5.08686 8.56265 5.10496 8.47213C5.06876 8.49023 5.01445 8.50834 4.97824 8.52644C4.96014 8.52644 4.96014 8.52644 4.94204 8.52644C4.86963 8.52644 4.79721 8.47213 4.79721 8.39972C4.79721 8.34541 4.79721 8.30921 4.79721 8.2549C4.79721 8.18249 4.79721 8.11008 4.79721 8.05577C4.79721 7.83854 4.79722 7.74802 4.65239 7.44028C4.23603 7.36787 3.83777 7.45838 3.43951 7.53079C3.00504 7.6213 2.60678 7.69372 2.22663 7.5851L2.11801 8.38162V8.39972C2.09991 8.47213 2.0456 8.52644 1.95509 8.50834C1.91888 8.52644 1.88268 8.50834 1.82837 8.49024Z" fill="white"/>
</svg>
