<svg width="18" height="18" viewBox="0 0 18 18" fill="none" xmlns="http://www.w3.org/2000/svg">
<path d="M3.27734 8.9616C3.27734 12.0934 5.82983 14.6278 8.9616 14.6278C12.0934 14.6278 14.6278 12.0934 14.6278 8.9616C14.6278 5.82983 12.0934 3.27734 8.9616 3.27734C5.82983 3.27734 3.27734 5.82983 3.27734 8.9616ZM5.06951 12.2201V8.88919L6.86168 8.43662V13.5778C6.17378 13.27 5.55829 12.7994 5.06951 12.2201ZM10.4641 13.8131C10.265 13.8674 10.0659 13.9217 9.86674 13.958V13.1433C9.86674 12.9804 9.74002 12.8356 9.55899 12.8356H8.36421C8.20128 12.8356 8.05646 12.9623 8.05646 13.1433V13.958C7.85733 13.9217 7.6582 13.8855 7.45907 13.8131V6.2824H10.446V13.8131H10.4641ZM8.65385 14.0304V13.4511H9.25124V14.0304C9.16073 14.0304 9.05211 14.0485 8.9435 14.0485C8.83488 14.0485 8.76247 14.0304 8.65385 14.0304ZM11.0434 13.5778V8.45472L12.8356 8.90729V12.2201C12.3649 12.7994 11.7494 13.27 11.0434 13.5778ZM8.9616 3.89284C11.7675 3.89284 14.0485 6.17378 14.0485 8.9616C14.0485 9.83053 13.8312 10.627 13.4511 11.3512V8.65385C13.4511 8.50903 13.3606 8.40041 13.2338 8.36421L11.0615 7.82113V5.97465C11.0615 5.81172 10.9348 5.68501 10.7719 5.68501H7.16943C7.0065 5.68501 6.87979 5.81172 6.87979 5.97465V7.83923L4.70746 8.38231C4.58074 8.41852 4.49023 8.52713 4.49023 8.67196V11.3512C4.09197 10.627 3.89284 9.83053 3.89284 8.9616C3.89284 6.15568 6.15568 3.89284 8.9616 3.89284Z" fill="white"/>
<path d="M6.28103 9.26953H5.68359V9.86696H6.28103V9.26953Z" fill="white"/>
<path d="M6.28103 10.4629H5.68359V11.0603H6.28103V10.4629Z" fill="white"/>
<path d="M6.28103 11.6406H5.68359V12.2381H6.28103V11.6406Z" fill="white"/>
<path d="M12.2381 9.26953H11.6406V9.86696H12.2381V9.26953Z" fill="white"/>
<path d="M12.2381 10.4629H11.6406V11.0603H12.2381V10.4629Z" fill="white"/>
<path d="M12.2381 11.6406H11.6406V12.2381H12.2381V11.6406Z" fill="white"/>
<path d="M8.65407 7.16895H8.05664V8.36381H8.65407V7.16895Z" fill="white"/>
<path d="M9.86696 7.16895H9.26953V8.36381H9.86696V7.16895Z" fill="white"/>
<path d="M8.65407 8.96094H8.05664V10.1558H8.65407V8.96094Z" fill="white"/>
<path d="M9.86696 8.96094H9.26953V10.1558H9.86696V8.96094Z" fill="white"/>
<path d="M8.65407 10.7529H8.05664V11.9478H8.65407V10.7529Z" fill="white"/>
<path d="M9.86696 10.7529H9.26953V11.9478H9.86696V10.7529Z" fill="white"/>
<path d="M3.89153 2.10006C4.27171 2.10006 4.61569 1.84661 4.72431 1.50263H5.97349C6.0459 1.50263 6.10022 1.48453 6.15453 1.44832L7.27698 0.615536H8.05545V0H7.15025C7.07783 0 7.02352 0.018104 6.96921 0.054312L5.88297 0.887096H4.72431C4.59758 0.54312 4.27171 0.289664 3.89153 0.289664C3.40272 0.289664 2.98633 0.687952 2.98633 1.17676C2.98633 1.66557 3.38462 2.10006 3.89153 2.10006ZM3.89153 0.887096C4.05446 0.887096 4.18119 1.01382 4.18119 1.19486C4.18119 1.3759 4.05446 1.50263 3.89153 1.50263C3.72859 1.50263 3.58376 1.3759 3.58376 1.19486C3.58376 1.01382 3.71049 0.887096 3.89153 0.887096Z" fill="white"/>
<path d="M17.3236 6.87904H16.7443C16.5632 6.20923 16.2917 5.55754 15.9478 4.94204L16.3641 4.52568C16.5994 4.29035 16.5994 3.91019 16.3641 3.67485L14.2461 1.57494C14.0108 1.3396 13.6306 1.3396 13.3953 1.57494L12.9789 1.9732C12.3815 1.62925 11.7298 1.3577 11.0419 1.17668V0.59739C11.0419 0.271541 10.7704 0 10.4445 0H9.86523V0.59739H10.4626V1.17668C10.4626 1.44822 10.6437 1.68355 10.9152 1.75596C11.5488 1.91889 12.1462 2.17233 12.7074 2.49818C12.9427 2.6249 13.2323 2.58869 13.4315 2.40766L13.8478 1.9913L15.9659 4.10932L15.5495 4.52568C15.3685 4.70671 15.3142 5.01445 15.459 5.24979C15.7848 5.81097 16.0383 6.40836 16.2012 7.04196C16.2736 7.3135 16.5089 7.49453 16.7805 7.49453H17.3598V10.4815H16.7443C16.4727 10.4815 16.2374 10.6625 16.165 10.934C16.0021 11.5676 15.7486 12.165 15.4228 12.7262C15.2961 12.9616 15.3323 13.2512 15.5133 13.4503L15.9296 13.8667L13.8116 15.9304L13.3953 15.514C13.2142 15.3149 12.9065 15.2787 12.6712 15.4235C12.11 15.7494 11.5126 16.0028 10.879 16.1657C10.6074 16.2381 10.4264 16.4735 10.4264 16.745V17.3243H9.86523V17.9217H10.4626C10.7885 17.9217 11.06 17.6502 11.06 17.3243V16.745C11.7298 16.564 12.3815 16.2925 12.997 15.9485L13.4134 16.3649C13.6487 16.6002 14.0289 16.6002 14.2642 16.3649L16.3822 14.2468C16.6176 14.0115 16.6176 13.6314 16.3822 13.396L15.984 12.9797C16.3279 12.3823 16.5994 11.7306 16.7805 11.0427H17.3598C17.6856 11.0427 17.9572 10.7711 17.9572 10.4453V7.47643C17.9209 7.13247 17.6494 6.87904 17.3236 6.87904Z" fill="white"/>
<path d="M6.15453 16.4916C6.10022 16.4554 6.0459 16.4373 5.97349 16.4373H4.72431C4.59758 16.0933 4.27171 15.8398 3.89153 15.8398C3.40272 15.8398 2.98633 16.2381 2.98633 16.745C2.98633 17.2339 3.38462 17.6321 3.89153 17.6321C4.27171 17.6321 4.61569 17.3787 4.72431 17.0347H5.88297L7.00542 17.8675C7.05973 17.9037 7.11404 17.9218 7.18646 17.9218H8.09166V17.3244H7.29508L6.15453 16.4916ZM3.89153 17.0347C3.72859 17.0347 3.58376 16.908 3.58376 16.7269C3.58376 16.5459 3.71049 16.4192 3.89153 16.4192C4.05446 16.4192 4.18119 16.5459 4.18119 16.7269C4.18119 16.908 4.05446 17.0347 3.89153 17.0347Z" fill="white"/>
<path d="M3.76668 14.3374L4.58136 15.1521C4.63567 15.2064 4.70809 15.2426 4.79861 15.2426H6.30124V14.6452H4.92534L4.11066 13.8305C4.05635 13.7762 3.98393 13.74 3.89341 13.74H2.62613C2.4994 13.396 2.17353 13.1426 1.79335 13.1426C1.30454 13.1426 0.90625 13.5409 0.90625 14.0478C0.90625 14.5366 1.30454 14.9349 1.79335 14.9349C2.17353 14.9349 2.51751 14.6814 2.62613 14.3374H3.76668ZM1.79335 14.3374C1.63041 14.3374 1.50368 14.2107 1.50368 14.0478C1.50368 13.8848 1.63041 13.74 1.79335 13.74C1.95628 13.74 2.10111 13.8667 2.10111 14.0478C2.10111 14.2288 1.95628 14.3374 1.79335 14.3374Z" fill="white"/>
<path d="M1.79196 4.77975C2.17215 4.77975 2.51612 4.5263 2.62475 4.18232H3.89203C3.96444 4.18232 4.05496 4.14611 4.10927 4.0918L4.92395 3.27712H6.29986V2.67969H4.79723C4.72481 2.67969 4.63429 2.7159 4.57998 2.77021L3.7653 3.58489H2.62475C2.49802 3.24091 2.17215 2.98746 1.79196 2.98746C1.30315 2.98746 0.904866 3.38574 0.904866 3.89266C0.886762 4.38146 1.30315 4.77975 1.79196 4.77975ZM1.79196 3.58489C1.9549 3.58489 2.09973 3.71162 2.09973 3.89266C2.09973 4.05559 1.973 4.18232 1.79196 4.18232C1.62903 4.18232 1.5023 4.05559 1.5023 3.89266C1.5023 3.71162 1.62903 3.58489 1.79196 3.58489Z" fill="white"/>
<path d="M0.887096 8.05597C1.26728 8.05597 1.61126 7.80251 1.71988 7.45854H2.67939V6.8611H1.71988C1.59315 6.51713 1.26728 6.26367 0.887096 6.26367C0.398288 6.26367 0 6.66196 0 7.15077C0 7.65768 0.398288 8.05597 0.887096 8.05597ZM0.887096 6.87921C1.05003 6.87921 1.19486 7.00594 1.19486 7.16887C1.19486 7.33181 1.06814 7.47664 0.887096 7.47664C0.706056 7.47664 0.597432 7.33181 0.597432 7.16887C0.597432 7.00594 0.72416 6.87921 0.887096 6.87921Z" fill="white"/>
<path d="M1.73798 11.043H2.6975V10.4455H1.73798C1.61126 10.1016 1.28538 9.86621 0.887096 9.86621C0.398288 9.86621 0 10.2645 0 10.7714C0 11.2783 0.398288 11.6585 0.887096 11.6585C1.28538 11.6404 1.61126 11.4051 1.73798 11.043ZM0.597432 10.7533C0.597432 10.5904 0.72416 10.4455 0.887096 10.4455C1.05003 10.4455 1.19486 10.5723 1.19486 10.7533C1.19486 10.9343 1.06814 11.043 0.887096 11.043C0.706056 11.043 0.597432 10.9162 0.597432 10.7533Z" fill="white"/>
<path d="M9.24978 17.3242H8.65234V17.9217H9.24978V17.3242Z" fill="white"/>
</svg>
