<svg width="19" height="19" viewBox="0 0 19 19" fill="none" xmlns="http://www.w3.org/2000/svg">
<path d="M17.9225 13.7362H16.6951C16.5626 13.7362 16.4355 13.6835 16.3418 13.5898C16.2481 13.4961 16.1955 13.369 16.1955 13.2365C16.1955 13.104 16.2481 12.9769 16.3418 12.8832C16.4355 12.7895 16.5626 12.7369 16.6951 12.7369H16.925V3.54434H8.46021V12.7369H12.3288C12.4613 12.7369 12.5884 12.7895 12.6821 12.8832C12.7758 12.9769 12.8284 13.104 12.8284 13.2365C12.8284 13.369 12.7758 13.4961 12.6821 13.5898C12.5884 13.6835 12.4613 13.7362 12.3288 13.7362H7.46094V2.54688H17.9225V13.7362Z" fill="white"/>
<path d="M8.4606 13.7374H6.50537C6.37285 13.7374 6.24575 13.6848 6.15205 13.5911C6.05834 13.4974 6.0057 13.3703 6.0057 13.2378C6.0057 13.1052 6.05834 12.9782 6.15205 12.8844C6.24575 12.7907 6.37285 12.7381 6.50537 12.7381H7.46126V7.1856H4.32022C4.28963 7.18607 4.25944 7.19259 4.23138 7.20479C4.20333 7.21699 4.17796 7.23462 4.15676 7.25667C4.13555 7.27871 4.11892 7.30474 4.10782 7.33325C4.09673 7.36176 4.09138 7.39218 4.09211 7.42276V10.0967H2.13687C1.88302 10.0972 1.6397 10.1983 1.4602 10.3778C1.2807 10.5573 1.17965 10.8006 1.17917 11.0544V12.7381H2.13687C2.26939 12.7381 2.39649 12.7907 2.49019 12.8844C2.5839 12.9782 2.63654 13.1052 2.63654 13.2378C2.63654 13.3703 2.5839 13.4974 2.49019 13.5911C2.39649 13.6848 2.26939 13.7374 2.13687 13.7374H0.181641V11.0544C0.18212 10.536 0.388271 10.039 0.754844 9.6724C1.12142 9.30582 1.61846 9.09967 2.13687 9.09919H3.09276V7.42276C3.09372 7.09752 3.22335 6.78586 3.45333 6.55588C3.68332 6.32589 3.99497 6.19627 4.32022 6.19531H8.4606V13.7374Z" fill="white"/>
<path d="M4.31912 15.5562C3.86044 15.5562 3.41207 15.4202 3.03069 15.1654C2.64931 14.9105 2.35206 14.5483 2.17653 14.1246C2.001 13.7008 1.95508 13.2345 2.04456 12.7847C2.13405 12.3348 2.35492 11.9216 2.67926 11.5972C3.00359 11.2729 3.41682 11.052 3.86669 10.9625C4.31655 10.873 4.78285 10.919 5.20661 11.0945C5.63038 11.27 5.99258 11.5673 6.2474 11.9487C6.50223 12.33 6.63825 12.7784 6.63825 13.2371C6.63777 13.852 6.39328 14.4416 5.95846 14.8764C5.52365 15.3112 4.93405 15.5557 4.31912 15.5562ZM4.31912 11.9173C4.05766 11.9173 3.80207 11.9949 3.5847 12.1402C3.36732 12.2855 3.19793 12.492 3.09796 12.7336C2.99798 12.9752 2.97192 13.241 3.02306 13.4974C3.0742 13.7538 3.20025 13.9893 3.38526 14.1741C3.57027 14.3588 3.80592 14.4845 4.06241 14.5353C4.31889 14.5861 4.58467 14.5597 4.82613 14.4594C5.06759 14.3591 5.27387 14.1894 5.41887 13.9718C5.56387 13.7542 5.64107 13.4986 5.64072 13.2371C5.64024 12.8869 5.50079 12.5512 5.25299 12.3038C5.0052 12.0563 4.66932 11.9173 4.31912 11.9173Z" fill="white"/>
<path d="M14.511 15.5562C14.0525 15.5551 13.6047 15.4182 13.224 15.1627C12.8433 14.9072 12.5469 14.5447 12.3722 14.1208C12.1975 13.697 12.1524 13.2308 12.2425 12.7813C12.3326 12.3318 12.5539 11.9191 12.8784 11.5953C13.203 11.2715 13.6162 11.0512 14.0659 10.9621C14.5157 10.8731 14.9817 10.9193 15.4051 11.095C15.8286 11.2707 16.1905 11.568 16.445 11.9492C16.6996 12.3305 16.8355 12.7786 16.8355 13.2371C16.8353 13.542 16.7749 13.8439 16.658 14.1255C16.541 14.4072 16.3697 14.663 16.1538 14.8783C15.9379 15.0937 15.6817 15.2644 15.3998 15.3808C15.1179 15.4971 14.8159 15.5567 14.511 15.5562ZM14.511 11.9173C14.2494 11.9169 13.9937 11.9942 13.776 12.1393C13.5584 12.2844 13.3888 12.4907 13.2885 12.7323C13.1883 12.9739 13.1619 13.2397 13.2129 13.4963C13.2638 13.7528 13.3897 13.9885 13.5746 14.1734C13.7596 14.3583 13.9952 14.4842 14.2518 14.5352C14.5083 14.5861 14.7742 14.5598 15.0157 14.4595C15.2573 14.3593 15.4637 14.1896 15.6088 13.972C15.7538 13.7544 15.8311 13.4986 15.8307 13.2371C15.8298 12.8874 15.6904 12.5522 15.4431 12.3049C15.1958 12.0576 14.8607 11.9183 14.511 11.9173Z" fill="white"/>
<path d="M12.3284 10.0965C12.1962 10.0969 12.0693 10.0448 11.9754 9.95171L9.79023 7.76656C9.6966 7.67245 9.64419 7.545 9.64453 7.41225C9.64487 7.2795 9.69793 7.15232 9.79204 7.05869C9.88615 6.96507 10.0136 6.91266 10.1464 6.91299C10.2791 6.91333 10.4063 6.9664 10.4999 7.0605L12.3284 8.89263L15.6143 5.61218C15.6599 5.56268 15.7151 5.52291 15.7765 5.49526C15.8379 5.4676 15.9042 5.45264 15.9715 5.45128C16.0388 5.44991 16.1057 5.46215 16.1682 5.48729C16.2307 5.51242 16.2874 5.54991 16.335 5.59752C16.3826 5.64513 16.4201 5.70187 16.4452 5.76433C16.4704 5.82679 16.4826 5.89369 16.4813 5.96101C16.4799 6.02832 16.4649 6.09466 16.4373 6.15605C16.4096 6.21744 16.3699 6.27261 16.3203 6.31824L12.6814 9.95714C12.5864 10.0477 12.4597 10.0977 12.3284 10.0965Z" fill="white"/>
</svg>
