<svg width="121" height="23" viewBox="0 0 121 23" fill="none" xmlns="http://www.w3.org/2000/svg">
<g clip-path="url(#clip0_10_3521)">
<path d="M100.702 14.4745H109.023C109.36 14.4745 109.528 14.2223 109.528 13.9701V6.23677C109.528 5.90054 109.276 5.73242 109.023 5.73242H100.702C100.365 5.73242 100.197 5.9846 100.197 6.23677V13.886C100.197 14.2223 100.449 14.4745 100.702 14.4745ZM104.232 6.573H105.661V8.59039H104.232V6.573ZM101.038 6.573H103.391V8.92662L103.476 9.43097H106.081L106.586 9.34691V6.573H108.855V13.6339H101.122V6.573H101.038Z" fill="#048C4C"/>
<path d="M119.782 13.0459L117.345 9.09515C117.261 8.92703 117.008 8.75892 116.84 8.75892H113.73V8.00239C113.73 7.75022 113.478 7.49805 113.226 7.49805H111.293C111.04 7.49805 110.872 7.66616 110.872 7.91834C110.872 8.17051 111.04 8.33863 111.293 8.33863H112.89V16.7444H109.023C108.855 15.9879 108.266 15.3154 107.426 15.1473C106.837 14.9792 106.333 15.1473 105.829 15.3995C105.324 15.6517 104.988 16.156 104.904 16.7444H103.223V15.9038C103.223 15.6517 103.055 15.4836 102.803 15.4836C102.551 15.4836 102.382 15.6517 102.382 15.9038V17.0807C102.382 17.3328 102.635 17.585 102.887 17.585H104.82C104.82 17.6691 104.904 17.8372 104.904 17.9212H0.251953V18.7618H105.324V18.5937C105.577 18.9299 105.997 19.1821 106.417 19.2662C106.585 19.2662 106.753 19.3502 106.922 19.3502C107.846 19.3502 108.771 18.6778 108.939 17.7531V17.6691H114.319C114.403 18.0894 114.571 18.4256 114.907 18.7618C115.327 19.1821 115.832 19.3502 116.42 19.3502C116.924 19.3502 117.513 19.1821 117.933 18.7618C118.269 18.4256 118.437 18.0894 118.522 17.6691H118.858C119.53 17.6691 120.119 17.0807 120.119 16.4082V13.6343C119.95 13.3821 119.951 13.214 119.782 13.0459ZM118.774 12.9618H116.252L115.916 11.0285H117.597L118.774 12.9618ZM108.098 17.5009C107.93 18.1734 107.258 18.5937 106.585 18.4256C105.913 18.2575 105.493 17.585 105.661 16.9125C105.829 16.3241 106.333 15.9038 106.922 15.9038C107.006 15.9038 107.09 15.9038 107.174 15.9038C107.846 16.156 108.266 16.8285 108.098 17.5009ZM117.261 18.1734C116.756 18.6778 116 18.6778 115.495 18.1734C114.991 17.6691 114.991 16.9125 115.495 16.4082C115.748 16.156 116.084 16.072 116.42 16.072C116.756 16.072 117.093 16.156 117.345 16.4082C117.765 16.8285 117.765 17.6691 117.261 18.1734ZM118.774 16.8285H118.437C118.353 16.4082 118.185 16.072 117.849 15.8198C117.008 14.9792 115.664 14.9792 114.907 15.8198C114.571 16.156 114.403 16.4922 114.319 16.8285H113.73V9.5995H116.756L117.177 10.1879H115.748C115.579 10.1879 115.411 10.272 115.327 10.356C115.243 10.5241 115.159 10.6922 115.243 10.8604L115.664 13.214C115.748 13.5502 116 13.7183 116.336 13.7183H119.362V16.3241C119.11 16.6604 118.942 16.8285 118.774 16.8285Z" fill="#048C4C"/>
</g>
<defs>
<clipPath id="clip0_10_3521">
<rect width="120.203" height="22.8554" fill="white"/>
</clipPath>
</defs>
</svg>
