<svg width="143" height="17" viewBox="0 0 143 17" fill="none" xmlns="http://www.w3.org/2000/svg">
<path d="M119.799 10.4H129.699C130.099 10.4 130.299 10.1 130.299 9.8V0.6C130.299 0.2 129.999 0 129.699 0H119.799C119.399 0 119.199 0.3 119.199 0.6V9.7C119.199 10.1 119.499 10.4 119.799 10.4ZM123.999 1H125.699V3.4H123.999V1ZM120.199 1H122.999V3.8L123.099 4.4H126.199L126.799 4.3V1H129.499V9.4H120.299V1H120.199Z" fill="#F57539"/>
<path d="M142.5 8.7001L139.6 4.0001C139.5 3.8001 139.2 3.6001 139 3.6001H135.3V2.7001C135.3 2.4001 135 2.1001 134.7 2.1001H132.4C132.1 2.1001 131.9 2.3001 131.9 2.6001C131.9 2.9001 132.1 3.1001 132.4 3.1001H134.3V13.1001H129.7C129.5 12.2001 128.8 11.4001 127.8 11.2001C127.1 11.0001 126.5 11.2001 125.9 11.5001C125.3 11.8001 124.9 12.4001 124.8 13.1001H122.8V12.1001C122.8 11.8001 122.6 11.6001 122.3 11.6001C122 11.6001 121.8 11.8001 121.8 12.1001V13.5001C121.8 13.8001 122.1 14.1001 122.4 14.1001H124.7C124.7 14.2001 124.8 14.4001 124.8 14.5001H0.299805V15.5001H125.3V15.3001C125.6 15.7001 126.1 16.0001 126.6 16.1001C126.8 16.1001 127 16.2001 127.2 16.2001C128.3 16.2001 129.4 15.4001 129.6 14.3001V14.2001H136C136.1 14.7001 136.3 15.1001 136.7 15.5001C137.2 16.0001 137.8 16.2001 138.5 16.2001C139.1 16.2001 139.8 16.0001 140.3 15.5001C140.7 15.1001 140.9 14.7001 141 14.2001H141.4C142.2 14.2001 142.9 13.5001 142.9 12.7001V9.4001C142.7 9.1001 142.7 8.9001 142.5 8.7001ZM141.3 8.6001H138.3L137.9 6.3001H139.9L141.3 8.6001ZM128.6 14.0001C128.4 14.8001 127.6 15.3001 126.8 15.1001C126 14.9001 125.5 14.1001 125.7 13.3001C125.9 12.6001 126.5 12.1001 127.2 12.1001C127.3 12.1001 127.4 12.1001 127.5 12.1001C128.3 12.4001 128.8 13.2001 128.6 14.0001ZM139.5 14.8001C138.9 15.4001 138 15.4001 137.4 14.8001C136.8 14.2001 136.8 13.3001 137.4 12.7001C137.7 12.4001 138.1 12.3001 138.5 12.3001C138.9 12.3001 139.3 12.4001 139.6 12.7001C140.1 13.2001 140.1 14.2001 139.5 14.8001ZM141.3 13.2001H140.9C140.8 12.7001 140.6 12.3001 140.2 12.0001C139.2 11.0001 137.6 11.0001 136.7 12.0001C136.3 12.4001 136.1 12.8001 136 13.2001H135.3V4.6001H138.9L139.4 5.3001H137.7C137.5 5.3001 137.3 5.4001 137.2 5.5001C137.1 5.7001 137 5.9001 137.1 6.1001L137.6 8.9001C137.7 9.3001 138 9.5001 138.4 9.5001H142V12.6001C141.7 13.0001 141.5 13.2001 141.3 13.2001Z" fill="#F57539"/>
</svg>
