<svg width="130" height="15" viewBox="0 0 130 15" fill="none" xmlns="http://www.w3.org/2000/svg">
<path d="M108.155 9.38921H117.093C117.454 9.38921 117.634 9.11836 117.634 8.84752V0.541685C117.634 0.180562 117.364 0 117.093 0H108.155C107.794 0 107.613 0.270842 107.613 0.541685V8.75724C107.613 9.11836 107.884 9.38921 108.155 9.38921ZM111.947 0.902808H113.482V3.06955H111.947V0.902808ZM108.516 0.902808H111.044V3.43067L111.134 3.97236H113.933L114.475 3.88208V0.902808H116.912V8.4864H108.606V0.902808H108.516Z" fill="#04275E"/>
<path d="M128.649 7.85453L126.031 3.61133C125.94 3.43077 125.67 3.25021 125.489 3.25021H122.149V2.43768C122.149 2.16684 121.878 1.896 121.607 1.896H119.531C119.26 1.896 119.079 2.07656 119.079 2.3474C119.079 2.61824 119.26 2.7988 119.531 2.7988H121.246V11.8269H117.093C116.912 11.0144 116.28 10.2921 115.378 10.1116C114.746 9.93099 114.204 10.1116 113.662 10.3824C113.121 10.6532 112.759 11.1949 112.669 11.8269H110.864V10.9241C110.864 10.6532 110.683 10.4727 110.412 10.4727C110.141 10.4727 109.961 10.6532 109.961 10.9241V12.188C109.961 12.4589 110.232 12.7297 110.502 12.7297H112.579C112.579 12.82 112.669 13.0005 112.669 13.0908H0.269531V13.9936H113.121V13.8131C113.391 14.1742 113.843 14.445 114.294 14.5353C114.475 14.5353 114.655 14.6256 114.836 14.6256C115.829 14.6256 116.822 13.9033 117.003 12.9103V12.82H122.781C122.871 13.2714 123.051 13.6325 123.413 13.9936C123.864 14.445 124.406 14.6256 125.038 14.6256C125.579 14.6256 126.211 14.445 126.663 13.9936C127.024 13.6325 127.204 13.2714 127.295 12.82H127.656C128.378 12.82 129.01 12.188 129.01 11.4658V8.4865C128.829 8.21565 128.829 8.03509 128.649 7.85453ZM127.566 7.76425H124.857L124.496 5.68779H126.302L127.566 7.76425ZM116.1 12.6394C115.919 13.3617 115.197 13.8131 114.475 13.6325C113.753 13.4519 113.301 12.7297 113.482 12.0075C113.662 11.3755 114.204 10.9241 114.836 10.9241C114.926 10.9241 115.016 10.9241 115.107 10.9241C115.829 11.1949 116.28 11.9172 116.1 12.6394ZM125.94 13.3617C125.399 13.9033 124.586 13.9033 124.045 13.3617C123.503 12.82 123.503 12.0075 124.045 11.4658C124.315 11.1949 124.677 11.1046 125.038 11.1046C125.399 11.1046 125.76 11.1949 126.031 11.4658C126.482 11.9172 126.482 12.82 125.94 13.3617ZM127.566 11.9172H127.204C127.114 11.4658 126.934 11.1046 126.572 10.8338C125.67 9.93099 124.225 9.93099 123.413 10.8338C123.051 11.1949 122.871 11.556 122.781 11.9172H122.149V4.15302H125.399L125.85 4.78498H124.315C124.135 4.78498 123.954 4.87526 123.864 4.96554C123.774 5.14611 123.683 5.32667 123.774 5.50723L124.225 8.03509C124.315 8.39622 124.586 8.57678 124.947 8.57678H128.197V11.3755C127.927 11.7366 127.746 11.9172 127.566 11.9172Z" fill="#04275E"/>
</svg>
