<svg width="220" height="98" viewBox="0 0 220 98" fill="none" xmlns="http://www.w3.org/2000/svg">
<path d="M25.8083 34.2056H39.8692C42.637 34.2056 45.1275 34.4028 46.7117 34.9699C48.1436 35.4449 49.4212 36.2966 50.4103 37.4357C51.3042 38.5021 51.5384 39.8275 51.748 41.233C51.8898 42.7287 51.8234 44.2369 51.5507 45.7145C51.2529 47.7904 50.4577 49.7635 49.2329 51.4658C48.1855 52.8388 46.8864 53.9998 45.4049 54.8871C43.9779 55.7795 42.401 56.406 40.7507 56.7364C38.8496 57.1265 36.9154 57.3329 34.9747 57.3528H20.9199L25.8083 34.2056ZM32.6816 39.4453L29.9014 52.0823H32.9405C35.5295 52.0823 37.6131 52.1809 38.7596 51.7987C41.4412 50.9234 42.9391 47.6871 43.3398 45.8316C43.8822 43.3658 43.648 41.572 42.4583 40.672C41.2686 39.772 38.9816 39.4391 35.7699 39.4391L32.6816 39.4453Z" fill="#111111"/>
<path d="M54.7194 34.2056H70.4509C73.8783 34.2056 76.3132 34.822 77.7557 36.0549C79.1982 37.2878 79.6811 39.0384 79.2043 41.3069C78.7112 43.6432 77.2194 46.5836 75.0804 47.9028C72.9413 49.222 69.9701 49.8754 66.1543 49.8754H59.3735L57.7523 57.3343H49.8311L54.7194 34.2056ZM60.3721 44.9254H65.6674C67.5372 44.9254 68.9016 44.648 69.7605 44.0932C70.1511 43.8654 70.4892 43.5576 70.7527 43.1901C71.0161 42.8225 71.199 42.4035 71.2893 41.9604C71.3742 41.5798 71.3623 41.1839 71.2546 40.8091C71.1469 40.4344 70.9469 40.0926 70.6728 39.8152C70.1304 39.1987 68.9468 38.9336 67.1406 38.9336H61.5064L60.3721 44.9316V44.9254Z" fill="#111111"/>
<path d="M132.631 34.2056H123.514L117.627 40.5734L114.717 34.2056H105.372L112.153 45.3015L100.441 56.6069L101.396 52.0823H85.8496L86.6695 48.1864H101.23L102.228 43.4706H87.6619L88.5866 39.1556H104.3L105.372 34.2056H81.9476L77.0469 57.3343H109.028L115.383 50.3131L118.841 57.3343H128.23L121.159 45.4063L132.631 34.2056Z" fill="#111111"/>
<path d="M78.249 63.7327L76.5908 60.2437H77.4415L78.4155 62.5615C78.5163 62.7929 78.6048 63.0295 78.6805 63.2704C78.8408 62.9005 78.9333 62.6539 78.9641 62.6231L80.1538 60.2745H81.1525L82.0463 62.0375C82.2514 62.4302 82.4146 62.8435 82.5333 63.2704C82.6134 63.0546 82.7182 62.8019 82.8477 62.5183L83.8278 60.2745H84.66L82.9463 63.7635H82.1511L80.8319 61.1067C80.721 60.8847 80.6532 60.7491 80.6347 60.6998C80.5689 60.8601 80.5073 60.9957 80.4497 61.1067L79.1244 63.7635H78.249V63.7327Z" fill="#111111"/>
<path d="M85.0664 62.0315C85.0657 61.7498 85.1439 61.4735 85.292 61.2338C85.4402 60.9942 85.6524 60.8007 85.9048 60.6754C86.5672 60.3218 87.312 60.1516 88.0623 60.1822C88.5914 60.1761 89.118 60.2552 89.6219 60.4165C90.0253 60.5248 90.3931 60.7374 90.6883 61.0329C90.9231 61.2859 91.0531 61.6186 91.052 61.9637C91.0509 62.3174 90.9141 62.6572 90.6698 62.9131C90.3667 63.2109 89.9903 63.4235 89.5787 63.5295C89.0845 63.6757 88.5715 63.7484 88.0561 63.7452C87.5204 63.7534 86.9871 63.6721 86.4781 63.5048C86.0803 63.3957 85.7187 63.183 85.4301 62.8884C85.205 62.654 85.0754 62.3441 85.0664 62.0192V62.0315ZM85.9233 62.0315C85.9224 62.239 85.9797 62.4425 86.0887 62.619C86.1976 62.7955 86.3539 62.938 86.5397 63.0302C87.0179 63.2704 87.5456 63.3955 88.0808 63.3955C88.6159 63.3955 89.1437 63.2704 89.6219 63.0302C89.8107 62.9302 89.9682 62.78 90.0769 62.5962C90.1857 62.4123 90.2416 62.202 90.2383 61.9884C90.2455 61.7195 90.1558 61.457 89.9856 61.2487C89.7861 61.0141 89.5227 60.8427 89.2274 60.7555C88.8679 60.6351 88.4906 60.5767 88.1116 60.5829C87.5885 60.5684 87.0699 60.6828 86.6013 60.9158C86.3898 61.0145 86.2125 61.1739 86.0917 61.3736C85.971 61.5734 85.9123 61.8046 85.9233 62.0377V62.0315Z" fill="#111111"/>
<path d="M92.3525 63.7327V60.2437H94.6272C94.9768 60.2365 95.3261 60.2675 95.669 60.3361C95.8847 60.3937 96.0807 60.5088 96.2361 60.669C96.3704 60.8109 96.4473 60.9976 96.4519 61.193C96.4484 61.3174 96.4139 61.439 96.3515 61.5467C96.289 61.6543 96.2006 61.7447 96.0943 61.8094C95.766 62.0072 95.3925 62.1175 95.0094 62.13C95.1512 62.1715 95.2878 62.2295 95.4162 62.3026C95.6229 62.4336 95.8115 62.5911 95.9772 62.7711L96.871 63.7204H96.0203L95.3423 62.993C95.1899 62.8248 95.0273 62.6663 94.8553 62.5183C94.7517 62.4228 94.6356 62.3419 94.5101 62.2779C94.4113 62.235 94.3079 62.204 94.2019 62.1855C94.0766 62.1774 93.951 62.1774 93.8258 62.1855H93.043V63.7327H92.3525ZM93.0306 61.7848H94.4854C94.7293 61.7891 94.9731 61.7684 95.2128 61.7231C95.3618 61.688 95.4996 61.6159 95.6135 61.5135C95.6984 61.4307 95.7471 61.3177 95.7491 61.1992C95.747 61.1134 95.7211 61.03 95.6743 60.9581C95.6275 60.8863 95.5616 60.8289 95.484 60.7923C95.2251 60.668 94.9384 60.6128 94.6519 60.632H93.043L93.0306 61.7848Z" fill="#111111"/>
<path d="M97.7344 63.7327V60.2437H98.5912V63.3258H101.673V63.7389H97.759L97.7344 63.7327Z" fill="#111111"/>
<path d="M102.173 63.7329V60.2439H104.324C104.697 60.2394 105.069 60.2559 105.44 60.2932C105.757 60.3293 106.067 60.4146 106.358 60.5459C106.656 60.681 106.912 60.8939 107.098 61.1624C107.261 61.4088 107.345 61.6991 107.339 61.9946C107.346 62.2394 107.289 62.482 107.172 62.6973C107.068 62.8943 106.923 63.0667 106.747 63.2028C106.576 63.337 106.384 63.4432 106.18 63.5172C105.938 63.6033 105.688 63.6632 105.434 63.6959C105.1 63.7351 104.765 63.7537 104.429 63.7514H102.173V63.7329ZM102.999 63.3199H104.337C104.66 63.3268 104.984 63.3062 105.304 63.2583C105.5 63.2287 105.69 63.1662 105.865 63.0733C106.055 62.9728 106.213 62.8212 106.321 62.6357C106.438 62.4313 106.495 62.1988 106.488 61.9637C106.497 61.8093 106.473 61.6548 106.417 61.5103C106.362 61.3658 106.277 61.2346 106.167 61.1254C105.945 60.9173 105.67 60.7745 105.372 60.7124C105.018 60.6555 104.658 60.6328 104.3 60.6446H102.98V63.3076L102.999 63.3199Z" fill="#111111"/>
<path d="M109.422 63.7327L107.764 60.2437H108.614L109.564 62.5615C109.662 62.8019 109.755 63.0361 109.829 63.2704L110.106 62.6231L111.296 60.2745H112.294L113.194 62.0375C113.398 62.4303 113.559 62.8436 113.675 63.2704C113.755 63.0546 113.86 62.8019 113.99 62.5183L114.97 60.2745H115.802L114.088 63.7635H113.287L111.968 61.1067C111.863 60.8847 111.795 60.7491 111.777 60.6998C111.711 60.8601 111.649 60.9957 111.592 61.1067L110.266 63.7635H109.422V63.7327Z" fill="#111111"/>
<path d="M117.004 63.7327V60.2437H117.836V63.7327H117.004Z" fill="#111111"/>
<path d="M119.322 63.7329V60.2438H121.48C121.85 60.2395 122.221 60.256 122.589 60.2932C122.907 60.3293 123.217 60.4146 123.508 60.5459C123.807 60.679 124.063 60.8924 124.248 61.1623C124.394 61.389 124.478 61.6499 124.492 61.9191C124.506 62.1884 124.449 62.4566 124.328 62.6973C124.224 62.8943 124.079 63.0667 123.902 63.2027C123.729 63.3371 123.536 63.4432 123.329 63.5171C123.088 63.6039 122.838 63.6639 122.583 63.6959C122.252 63.7353 121.918 63.7538 121.585 63.7514H119.322V63.7329ZM120.148 63.3199H121.486C121.81 63.327 122.134 63.3064 122.454 63.2582C122.65 63.2287 122.84 63.1662 123.015 63.0733C123.206 62.9729 123.366 62.8214 123.477 62.6356C123.591 62.4301 123.648 62.1984 123.643 61.9637C123.653 61.8087 123.628 61.6535 123.572 61.5088C123.515 61.3642 123.428 61.2333 123.317 61.1253C123.097 60.9247 122.826 60.7882 122.534 60.7308C122.179 60.674 121.82 60.6513 121.461 60.663H120.167V63.326L120.148 63.3199Z" fill="#111111"/>
<path d="M125.807 63.7327V60.2437H128.975V60.6567H126.386V61.7231H128.796V62.1361H126.374V63.3197H129.068V63.7327H125.807Z" fill="#111111"/>
</svg>
