<svg width="220" height="98" viewBox="0 0 220 98" fill="none" xmlns="http://www.w3.org/2000/svg">
<path d="M81.522 50.8495C81.522 45.3016 81.522 39.7906 81.522 34.255C79.1179 34.2057 76.7014 34.2057 74.2788 34.2057C74.2788 38.0851 74.2788 41.9646 74.2788 45.844C73.4206 44.9733 72.3625 44.3258 71.1966 43.9577C68.7726 43.2789 66.1863 43.4821 63.898 44.531C62.6964 45.112 61.6234 45.9279 60.7425 46.9306C59.8616 47.9332 59.1906 49.1023 58.7692 50.3687C58.5283 49.7605 58.2504 49.1676 57.937 48.5934C56.7264 46.4484 54.7416 44.8474 52.3891 44.118C50.509 43.4461 48.4624 43.5016 46.4775 43.5817C44.4881 43.7634 42.5782 44.451 40.9295 45.579C39.9644 46.3035 39.1125 47.1678 38.4021 48.1434C38.4021 46.966 38.4021 45.7824 38.4021 44.605C35.3199 44.605 32.2686 44.605 29.2049 44.605C29.2049 43.2735 29.2049 41.942 29.2049 40.6105C32.5418 40.6105 35.8747 40.6105 39.2035 40.6105C39.2035 38.4714 39.2035 36.3324 39.2035 34.1934C33.1131 34.2057 27.0227 34.2057 20.9199 34.2057C20.9199 43.744 20.9199 53.2721 20.9199 62.7899C23.6754 62.7899 26.4679 62.7899 29.1864 62.7899C29.1864 58.7954 29.1864 54.7988 29.1864 50.8002C31.8555 50.8002 34.5186 50.8002 37.2001 50.8002C37.0341 51.7177 36.9495 52.648 36.9473 53.5803C36.8994 55.7621 37.6145 57.8921 38.9692 59.6029C40.8038 61.8419 43.4406 63.2754 46.3172 63.5975C48.7932 63.94 51.3158 63.6122 53.622 62.6482C55.9722 61.5628 57.8135 59.6133 58.7631 57.205C56.4206 57.205 54.072 57.205 51.7233 57.205C51.3212 57.722 50.8256 58.159 50.2624 58.4934C49.5681 58.777 48.8179 58.8973 48.0697 58.8449C47.3215 58.7925 46.5953 58.5689 45.9473 58.1913C45.4113 57.8607 44.9592 57.4103 44.6266 56.8755C44.294 56.3407 44.0898 55.7361 44.0302 55.1091C44.2755 55.0339 44.5325 55.0047 44.7884 55.0228C49.3007 55.0228 53.8192 55.0228 58.3501 55.0228C58.5231 56.3545 58.9613 57.638 59.6387 58.7975C60.3162 59.9569 61.2192 60.9688 62.2944 61.7734C63.3696 62.5779 64.5952 63.1588 65.8987 63.4816C67.2022 63.8044 68.5572 63.8627 69.8836 63.6529C71.6384 63.2972 73.2106 62.3321 74.322 60.9283L74.3836 60.8482C74.3836 61.4646 74.3836 62.081 74.3836 62.6975C76.6644 62.6975 78.9453 62.7345 81.2322 62.6975H81.5405C81.5035 58.7338 81.5281 54.7762 81.522 50.8495ZM44.2829 50.794C44.5561 49.8703 45.1368 49.0677 45.9288 48.5194C46.6886 48.053 47.5743 47.8334 48.464 47.8908C49.3537 47.9482 50.2037 48.2798 50.8973 48.8399C51.4437 49.3779 51.8354 50.0528 52.0316 50.794C49.4487 50.8495 46.8658 50.8064 44.2829 50.794ZM72.7007 57.4084C71.9608 58.0018 71.0459 58.3348 70.0976 58.356C69.1494 58.3771 68.2206 58.0853 67.4548 57.5256C66.7361 56.9287 66.1999 56.1415 65.9077 55.2541C65.6156 54.3666 65.5792 53.4149 65.8028 52.5077C65.9067 51.6407 66.2682 50.8247 66.8408 50.1654C67.4133 49.506 68.1705 49.0336 69.0144 48.8091C69.5863 48.6817 70.1783 48.674 70.7533 48.7864C71.3283 48.8989 71.8738 49.1291 72.3555 49.4625C73.2753 50.2464 73.8689 51.3457 74.0199 52.5447C74.2418 54.2399 73.9891 56.1386 72.7007 57.4084Z" fill="#111111"/>
<path d="M125.302 62.7837C122.503 62.8207 119.698 62.7837 116.893 62.7837C116.567 62.7837 116.172 62.833 115.926 62.5803C114.563 61.1563 113.219 59.7015 111.802 58.3269C110.569 59.6275 109.28 60.8728 108.103 62.2104C107.85 62.4693 107.604 62.8269 107.16 62.7775C98.5297 62.7775 89.8872 62.7775 81.2324 62.7775C81.2324 62.7775 81.2324 62.7159 81.2324 62.6851H81.5406C81.5406 58.7275 81.5406 54.77 81.5406 50.8186C81.5406 45.2707 81.5406 39.7597 81.5406 34.2241C87.2612 34.2241 92.9756 34.2241 98.6838 34.2241C98.6838 36.3529 98.6838 38.4796 98.6838 40.6043C95.4043 40.6782 92.1126 40.6043 88.8208 40.6043C88.7333 41.9397 88.7601 43.2802 88.9009 44.6111C92.1742 44.6111 95.4413 44.6111 98.7146 44.6111C98.653 46.6515 98.7146 48.6981 98.6776 50.7385C95.4167 50.7385 92.1619 50.7385 88.9071 50.7385C88.7755 51.8243 88.7364 52.9193 88.79 54.0118C88.7507 54.8003 88.7858 55.5908 88.8948 56.3728C92.1249 56.3728 95.3612 56.3296 98.5975 56.3728C98.8132 56.9892 98.6345 57.6549 98.69 58.2899C98.7516 59.6645 98.5358 61.0577 98.8564 62.4077C100.028 61.3351 101.045 60.1269 102.197 59.0358C103.159 57.9015 104.269 56.8782 105.28 55.781C105.994 55.1279 106.661 54.4255 107.277 53.6789C107.196 53.5293 107.097 53.3905 106.981 53.2659L102.05 48.1741C100.971 46.9721 99.7194 45.8933 98.7208 44.6296C100.866 44.5618 103.036 44.6296 105.163 44.5988C106.044 44.5988 106.926 44.5556 107.801 44.6296C109.373 45.9549 110.593 47.6193 112.221 48.8954C113.361 47.6625 114.557 46.4851 115.667 45.2275C115.944 44.9501 116.221 44.5248 116.702 44.6111C119.495 44.6111 122.287 44.5741 125.08 44.6111C124.722 45.1334 124.309 45.615 123.847 46.0474C121.443 48.5625 118.989 51.0221 116.634 53.5741C117.491 54.807 118.749 55.744 119.717 56.8844C121.091 58.2159 122.386 59.6091 123.724 60.9714C124.297 61.5324 124.825 62.1385 125.302 62.7837Z" fill="#111111"/>
</svg>
