<svg width="220" height="98" viewBox="0 0 220 98" fill="none" xmlns="http://www.w3.org/2000/svg">
<path d="M62.3978 63.5567C62.3978 61.6002 62.3978 60.035 62.3978 58.4698V58.3915C62.3196 56.435 61.0674 54.948 59.2674 54.948C55.6674 54.8698 52.1457 54.8698 48.5457 54.948C46.2761 55.0263 45.0239 57.4524 46.1978 59.3307C46.8239 60.2698 47.6848 60.6611 48.7804 60.6611C50.9717 60.6611 53.0848 60.6611 55.2761 60.6611C55.8239 60.6611 55.9804 60.8176 55.9804 61.3654C55.9804 63.1654 55.9022 64.8872 55.9804 66.6872C55.9804 67.4698 55.7457 67.8611 55.1196 68.1741C52.2239 69.8959 49.0935 70.6002 45.7283 70.2872C41.6587 69.8959 38.45 68.0176 36.4152 64.4959C34.6935 61.522 34.2239 58.235 34.6935 54.8698C35.3196 50.8002 37.3544 47.5915 40.9544 45.4785C43.9283 43.7567 47.0587 43.6785 50.3457 44.3828C52.3804 44.8524 54.1022 45.8698 55.8239 47.0437C57.3891 48.1394 59.2674 47.748 60.2848 46.2611C61.3022 44.8524 60.9891 42.8176 59.5022 41.722C58.563 41.0176 57.5457 40.3915 56.45 39.922C52.537 38.0437 48.3109 37.6524 44.0848 38.2002C39.2326 38.8263 35.2413 41.0176 32.1109 44.7741C27.7283 49.7828 26.7109 55.7307 28.1196 62.1481C29.3717 67.7046 32.6587 71.8524 37.8239 74.3567C41.1891 76.0002 44.7891 76.4698 48.5457 76.235C52.85 75.922 56.763 74.5133 60.2848 72.0872C61.4587 71.3046 62.163 70.2089 62.2413 68.722C62.4761 66.922 62.3196 65.0437 62.3978 63.5567Z" fill="#111111"/>
<path d="M94.5633 47.0435C93.859 47.0435 93.1546 47.1217 92.372 47.2C84.9372 48.1391 79.5372 54.2435 79.459 61.6782C79.459 66.7652 81.4938 70.7565 85.6416 73.7304C89.0068 76.0782 92.6851 76.7826 96.6764 76.1565C106.929 74.6695 112.172 63.9478 107.711 55.0261C105.129 49.6261 100.433 47.2 94.5633 47.0435ZM99.4155 69.113C94.8764 72.3217 87.7546 70.5217 86.2677 63.7913C85.5633 60.6608 86.1112 57.6869 88.459 55.2608C92.2155 51.2695 99.0242 52.1304 101.685 56.9043C102.546 58.3913 103.016 60.0348 102.937 61.8348C102.859 64.8087 101.92 67.313 99.4155 69.113Z" fill="#111111"/>
<path d="M156.468 47.0433C147.938 46.8868 141.051 53.3042 141.051 61.7564C141.051 69.8955 147.468 76.3129 155.842 76.3912C164.294 76.4694 170.946 70.052 171.025 61.9129C171.025 53.6172 164.686 47.1999 156.468 47.0433ZM162.651 67.5477C161.164 69.4259 159.207 70.4433 156.859 70.5999C151.538 71.0694 148.016 66.9216 147.625 62.6955C147.39 59.7216 148.094 57.139 150.207 55.0259C151.694 53.539 153.651 52.7564 155.999 52.7564C160.459 52.7564 164.216 56.3564 164.451 60.8172C164.607 63.2433 164.138 65.5129 162.651 67.5477Z" fill="#111111"/>
<path d="M194.268 32.9566C193.642 26.5392 188.242 21.687 181.747 21.687C177.755 21.687 174.547 23.2522 171.964 26.3044C170.086 28.574 169.147 31.1566 169.068 34.1305C169.068 36.9479 169.929 39.4522 171.573 41.8001C173.764 44.9305 175.955 47.9827 178.147 51.1131C178.929 52.2087 179.868 52.7566 181.199 52.6783C181.668 52.6783 182.216 52.6783 182.686 52.6783C183.625 52.6783 184.486 52.287 185.034 51.5044C187.46 48.0609 189.886 44.6957 192.312 41.2522C193.955 38.6696 194.581 35.8522 194.268 32.9566ZM186.99 37.6522C185.347 40.0783 183.625 42.4261 181.981 44.774C181.747 45.087 181.59 45.1653 181.355 44.774C179.712 42.4261 177.99 40.1566 176.425 37.7305C175.016 35.6957 174.938 33.5044 176.034 31.3131C177.207 29.0435 179.164 27.8696 181.825 27.7914C184.251 27.9479 186.129 28.9653 187.303 31.1566C188.477 33.4261 188.399 35.6174 186.99 37.6522Z" fill="#111111"/>
<path d="M134.71 47.4349C133.536 47.7479 132.91 48.6871 132.441 49.7827C130.563 54.4784 128.763 59.174 126.884 63.8697C126.336 65.2001 125.789 66.6088 125.241 67.9392C125.006 67.7827 125.006 67.6262 124.928 67.4697C122.971 62.461 121.015 57.4523 119.058 52.4436C118.667 51.3479 118.276 50.2523 117.806 49.2349C116.632 46.7305 113.658 46.8088 112.328 48.4523C111.31 49.7045 111.467 50.9566 112.093 52.2871C114.832 58.4697 117.493 64.7305 120.232 70.9131C120.78 72.1653 121.171 73.4175 121.954 74.5131C123.519 76.7827 126.65 76.861 128.293 74.6697C128.606 74.2784 128.841 73.8088 129.076 73.261C131.58 67.4697 134.084 61.7566 136.589 55.9653C137.215 54.5566 137.841 53.1479 138.467 51.661C138.936 50.4871 138.858 49.3131 137.919 48.374C137.136 47.3566 135.963 47.1218 134.71 47.4349Z" fill="#111111"/>
<path d="M70.6939 36.713C69.207 36.9478 68.1113 38.2782 68.1113 39.9217C68.1113 50.7999 68.1113 61.6782 68.1113 72.6347C68.1113 74.5912 69.4418 75.9999 71.32 75.9999C73.1983 75.9999 74.607 74.5912 74.607 72.6347C74.607 67.2347 74.607 61.7565 74.607 56.3565C74.607 50.9565 74.607 45.4782 74.607 40.0782C74.607 39.6869 74.607 39.2956 74.4505 38.9043C73.9026 37.2608 72.3374 36.3999 70.6939 36.713Z" fill="#111111"/>
<path d="M181.668 54.7915C179.712 54.7915 178.146 56.3567 178.146 58.3132C178.146 60.1915 179.712 61.7567 181.668 61.7567C183.625 61.7567 185.268 60.1915 185.19 58.235C185.19 56.3567 183.625 54.7915 181.668 54.7915Z" fill="#111111"/>
</svg>
