<svg width="220" height="98" viewBox="0 0 220 98" fill="none" xmlns="http://www.w3.org/2000/svg">
<path d="M51.2629 35.1142H56.32V34.5142H42.9486V35.1142C44.6629 35.1142 45.52 35.8856 45.52 37.5142V49.9427H36.0915V41.7999C36.0915 37.5142 34.5486 35.6284 33.6915 35.1142H38.6629V34.5142H25.4629V35.1142C27.0915 35.1142 28.0343 35.8856 28.0343 37.5142V59.2856C28.0343 64.9427 30.6915 65.5427 30.6915 65.5427H25.4629V66.1427H38.6629V65.5427C37.0343 65.5427 36.0915 64.7713 36.0915 63.057V50.9713H45.4343V59.2856C45.4343 64.9427 48.1772 65.5427 48.1772 65.5427H42.9486V66.1427H56.2343V65.5427H56.1486C54.52 65.5427 53.5772 64.7713 53.5772 63.057V41.7999C53.6629 37.5142 52.12 35.6284 51.2629 35.1142Z" fill="#111111"/>
<path d="M63.0916 66.1429H74.5773V65.5429C73.5487 65.5429 72.6059 64.7715 72.6059 63.1429V47.9715C72.6059 43.4286 70.8916 42.6572 70.2059 42.4857H74.5773V41.8857H63.0916V42.4857C64.2059 42.4857 65.063 43.2572 65.063 44.9715V60.1429C65.063 65.6286 67.7201 65.6286 67.7201 65.6286H63.0059V66.1429H63.0916Z" fill="#111111"/>
<path d="M66.8632 39.3141C68.9204 39.3141 70.6347 37.6855 70.6347 35.6284C70.6347 33.5712 68.9204 31.8569 66.8632 31.8569C64.8061 31.8569 63.0918 33.5712 63.0918 35.6284C63.0918 37.6855 64.8061 39.3141 66.8632 39.3141Z" fill="#111111"/>
<path d="M90.1771 31.8569H78.6914V32.4569C79.72 32.4569 80.6628 33.2284 80.6628 34.9426V60.0569C80.6628 65.5426 83.32 65.5426 83.32 65.5426H78.6914V66.1426H90.1771V65.5426C89.0628 65.5426 88.2057 64.7712 88.2057 63.1426V58.2569C88.2057 57.3141 88.2057 55.5998 88.2057 53.6284V38.0284C88.2057 33.4855 86.4914 32.6284 85.8914 32.5426H85.8057H90.1771V31.8569Z" fill="#111111"/>
<path d="M134.748 65.5424C133.634 65.5424 132.777 64.771 132.777 63.1424V50.371C132.777 45.9996 131.491 41.7996 126.006 41.7996C122.406 41.7996 119.406 44.1139 117.691 48.3996C117.691 48.4853 117.606 48.571 117.606 48.571C117.263 44.8853 115.634 41.7139 110.834 41.7139C107.234 41.7139 104.32 44.0282 102.606 48.3139V46.2567C102.606 44.7996 102.177 41.7139 99.0056 41.7139H93.0913V42.3139C94.1199 42.3139 95.0628 43.0853 95.0628 44.7996V59.971C95.0628 65.4567 97.8056 65.4567 97.8056 65.4567H92.9199V66.0567H104.577V65.4567C103.463 65.4567 102.606 64.6853 102.606 63.0567V50.371C102.606 48.0567 104.32 45.7424 106.291 45.4853C108.863 45.1424 110.148 46.8567 110.148 49.9424V60.0567C110.148 65.5424 112.806 65.5424 112.806 65.5424H107.92V66.1424H119.577V65.5424C118.548 65.5424 117.606 64.771 117.606 63.1424V58.2567C117.606 57.3996 117.52 55.5996 117.606 50.371C117.606 48.0567 119.32 45.7424 121.291 45.4853C123.863 45.1424 125.148 46.8567 125.148 49.9424V60.0567C125.148 65.5424 127.806 65.5424 127.806 65.5424H122.92V66.1424H134.663L134.748 65.5424Z" fill="#111111"/>
<path d="M138.777 66.1429H150.263V65.5429C149.149 65.5429 148.291 64.7715 148.291 63.1429V47.9715C148.291 43.4286 146.577 42.6572 145.891 42.4857H150.263V41.8857H138.777V42.4857C139.891 42.4857 140.749 43.2572 140.749 44.9715V60.1429C140.749 65.6286 143.406 65.6286 143.406 65.6286H138.691V66.1429H138.777Z" fill="#111111"/>
<path d="M142.549 39.3141C144.606 39.3141 146.234 37.6855 146.234 35.6284C146.234 33.5712 144.52 31.8569 142.549 31.8569C140.492 31.8569 138.777 33.5712 138.777 35.6284C138.777 37.6855 140.406 39.3141 142.549 39.3141Z" fill="#111111"/>
<path d="M180.777 65.5424C179.662 65.5424 178.805 64.771 178.805 63.1424V50.371C178.805 50.2853 178.719 49.0853 178.719 48.571C178.377 44.8853 176.748 41.7139 172.034 41.7139C168.434 41.7139 165.519 44.0282 163.805 48.3139V46.2567C163.805 44.7996 163.377 41.7139 160.205 41.7139H154.291V42.3139C155.405 42.3139 156.262 43.0853 156.262 44.7996V59.971C156.262 65.4567 158.919 65.4567 158.919 65.4567H154.205V66.0567H165.777V65.4567C164.662 65.4567 163.805 64.6853 163.805 63.0567V58.171C163.805 57.2282 163.805 55.5139 163.805 50.2853C163.805 47.971 165.434 45.6567 167.491 45.3996C170.062 45.0567 171.434 46.771 171.434 49.8567V59.971C171.434 65.4567 174.091 65.4567 174.091 65.4567H169.377V66.0567H180.862L180.777 65.5424Z" fill="#111111"/>
<path d="M193.033 59.3712V43.9426C193.033 42.9141 194.062 42.3998 195.348 42.3998V41.7998H193.033V34.8569H192.091C190.033 39.6569 187.291 41.7998 183.348 41.7998V42.3998C184.548 42.3998 185.576 42.9141 185.576 43.9426V58.4284C185.576 62.9712 187.462 66.1426 191.576 66.1426H196.376V65.2855C194.062 65.2855 193.033 62.6284 193.033 59.3712Z" fill="#111111"/>
</svg>
