<svg width="124" height="98" viewBox="0 0 124 98" fill="none" xmlns="http://www.w3.org/2000/svg">
<path d="M135.683 41.2699C136.677 41.3244 137.617 41.7363 138.331 42.4296C139.044 43.1229 139.483 44.0509 139.567 45.0425C139.684 46.1397 139.684 47.8473 139.684 48.9384C139.708 50.117 139.668 51.2961 139.567 52.4706C139.209 55.0288 137.446 56.4897 135.683 56.4897H132.601C130.955 56.4897 129.069 55.0288 128.717 52.4706C128.618 51.3372 128.579 50.1992 128.6 49.0617C128.6 47.8288 128.6 46.1397 128.717 45.0425C128.825 44.04 129.287 43.1089 130.021 42.4171C130.754 41.7254 131.711 41.3185 132.718 41.2699C133.18 41.1628 133.656 41.1213 134.13 41.1466L135.683 41.2699ZM134.506 34.2055C136.552 34.1927 138.597 34.3142 140.627 34.5692C143.066 34.9231 145.327 36.048 147.081 37.7794C148.834 39.5108 149.988 41.7578 150.373 44.1918C150.591 45.7648 150.709 47.3503 150.724 48.9384C150.72 50.5289 150.602 52.1172 150.373 53.6911C149.985 56.1388 148.831 58.4004 147.076 60.1506C145.322 61.9007 143.057 63.0492 140.608 63.4308C138.839 63.548 136.719 63.7945 134.487 63.7945H133.778C131.424 63.7945 129.42 63.548 127.54 63.4308C125.102 63.0495 122.851 61.8986 121.114 60.1462C119.377 58.3939 118.246 56.132 117.887 53.6911C117.657 52.1172 117.54 50.5289 117.535 48.9384C117.551 47.3503 117.668 45.7648 117.887 44.1918C118.731 39.1987 122.633 35.1795 127.565 34.5692C129.593 34.3178 131.636 34.1963 133.68 34.2055H134.506Z" fill="#111111"/>
<path d="M92.0142 48.9383C91.9959 47.3437 92.153 45.7519 92.4827 44.1917C93.3087 39.1986 97.1923 35.1794 102.136 34.5691C104.166 34.3137 106.211 34.1922 108.257 34.2054C110.459 34.19 112.66 34.3115 114.847 34.5691C115.19 34.6315 115.499 34.8167 115.716 35.0901C115.932 35.3635 116.042 35.7063 116.024 36.0547V40.4376C116.038 40.619 116.015 40.8013 115.957 40.9737C115.898 41.1461 115.806 41.305 115.685 41.4412C115.565 41.5774 115.418 41.688 115.254 41.7666C115.09 41.8451 114.912 41.89 114.73 41.8986C114.73 41.8986 112.492 41.7753 111.315 41.7753C109.903 41.7753 108.726 41.7753 107.431 41.8986C106.436 41.952 105.495 42.3643 104.78 43.0592C104.066 43.754 103.628 44.6842 103.548 45.6773C103.411 46.7676 103.333 47.8643 103.314 48.9629V49.0862C103.333 50.1848 103.412 51.2815 103.548 52.3718C103.624 53.3777 104.057 54.3231 104.769 55.0375C105.482 55.752 106.426 56.1883 107.431 56.2677C108.721 56.415 110.017 56.4973 111.315 56.5143C112.492 56.5143 114.73 56.391 114.73 56.391C114.911 56.4004 115.089 56.4458 115.253 56.5247C115.417 56.6035 115.563 56.7141 115.683 56.8501C115.804 56.9861 115.896 57.1447 115.955 57.3168C116.013 57.4888 116.037 57.6707 116.024 57.852V62.2349C116.035 62.5788 115.922 62.915 115.706 63.1829C115.49 63.4508 115.185 63.6327 114.847 63.6958C112.961 63.6958 110.729 63.8191 108.257 63.8191C106.02 63.8191 103.899 63.5725 102.136 63.4492C99.6974 63.0707 97.4441 61.9206 95.7068 60.1678C93.9695 58.4149 92.8395 56.1515 92.4827 53.7095C92.1469 52.1919 91.9897 50.6403 92.0142 49.0862V48.9629V48.9383Z" fill="#111111"/>
<path d="M88.8327 56.1261C89.212 56.1374 89.572 56.2964 89.8357 56.5694C90.0995 56.8423 90.2461 57.2075 90.2443 57.5871V61.9453C90.2554 62.1359 90.2269 62.3267 90.1606 62.5057C90.0942 62.6847 89.9915 62.848 89.8588 62.9853C89.7262 63.1226 89.5665 63.2309 89.3899 63.3033C89.2132 63.3758 89.0235 63.4108 88.8327 63.4062H72.0039C71.2632 63.3958 70.5319 63.2393 69.8518 62.9456C69.1717 62.6519 68.5563 62.2268 68.0409 61.6948C67.5255 61.1627 67.1202 60.5342 66.8482 59.8452C66.5762 59.1561 66.4429 58.4202 66.456 57.6795V40.4193C66.4429 39.6786 66.5762 38.9427 66.8482 38.2536C67.1202 37.5646 67.5255 36.936 68.0409 36.404C68.5563 35.872 69.1717 35.4469 69.8518 35.1532C70.5319 34.8595 71.2632 34.703 72.0039 34.6925H88.8327C89.0159 34.685 89.1987 34.7148 89.3701 34.7799C89.5416 34.8451 89.698 34.9444 89.8299 35.0717C89.9619 35.1991 90.0666 35.3519 90.1379 35.5208C90.2091 35.6898 90.2453 35.8715 90.2443 36.0549V40.3145C90.2554 40.505 90.2269 40.6959 90.1606 40.8749C90.0942 41.0539 89.9915 41.2172 89.8588 41.3545C89.7262 41.4918 89.5665 41.6001 89.3899 41.6725C89.2132 41.745 89.0235 41.78 88.8327 41.7754H78.4765C78.293 41.7576 78.1078 41.7794 77.9335 41.8393C77.7591 41.8992 77.5997 41.9958 77.4658 42.1226C77.332 42.2494 77.227 42.4034 77.1578 42.5743C77.0886 42.7452 77.0569 42.9289 77.0649 43.1131V45.7946L85.8923 45.6713C86.2642 45.7035 86.612 45.8692 86.8714 46.1377C87.1309 46.4062 87.2845 46.7594 87.3039 47.1323V50.7877C87.3057 51.1673 87.1591 51.5325 86.8953 51.8054C86.6316 52.0784 86.2716 52.2375 85.8923 52.2487H77.0649V54.6836C77.0537 54.8742 77.0822 55.065 77.1486 55.2441C77.2149 55.4231 77.3177 55.5864 77.4503 55.7237C77.583 55.8609 77.7427 55.9692 77.9193 56.0417C78.0959 56.1141 78.2856 56.1492 78.4765 56.1446L88.8327 56.1261Z" fill="#111111"/>
<path d="M45.9908 63.4309C44.7948 63.4139 43.6356 63.0146 42.6828 62.2914C41.7301 61.5682 41.0337 60.5591 40.6956 59.4117L34.9258 36.4001V36.0549C34.9257 35.8723 34.9623 35.6915 35.0335 35.5234C35.1046 35.3552 35.2088 35.2031 35.3399 35.076C35.471 34.9489 35.6264 34.8495 35.7967 34.7836C35.967 34.7177 36.1488 34.6868 36.3313 34.6925H44.9614C45.2869 34.6855 45.6049 34.7908 45.862 34.9906C46.119 35.1904 46.2995 35.4726 46.373 35.7898L50.8176 55.0288C50.8243 55.102 50.8459 55.173 50.881 55.2376C50.916 55.3021 50.9638 55.3589 51.0214 55.4044C51.0791 55.45 51.1454 55.4833 51.2163 55.5025C51.2872 55.5216 51.3613 55.5262 51.434 55.5158C51.5581 55.5044 51.6741 55.4491 51.7611 55.3598C51.8481 55.2705 51.9004 55.1532 51.9087 55.0288L56.4641 35.7898C56.5292 35.4889 56.6922 35.218 56.9275 35.0195C57.1628 34.821 57.4573 34.706 57.7648 34.6925H62.5854C62.7686 34.685 62.9514 34.7148 63.1229 34.7799C63.2943 34.8451 63.4507 34.9444 63.5826 35.0717C63.7146 35.1991 63.8193 35.3519 63.8906 35.5208C63.9618 35.6898 63.998 35.8715 63.997 36.0549V36.4247L58.4491 58.9494C58.2157 60.2146 57.5465 61.3581 56.5578 62.1812C55.5691 63.0044 54.3233 63.4553 53.0367 63.4556L45.9908 63.4309Z" fill="#111111"/>
<path d="M22.3316 34.6923H30.6905C30.8735 34.6857 31.0559 34.716 31.227 34.7815C31.398 34.847 31.554 34.9463 31.6858 35.0735C31.8176 35.2006 31.9224 35.3531 31.9939 35.5216C32.0654 35.6902 32.1022 35.8715 32.1021 36.0546V61.945C32.1123 62.1354 32.0832 62.3258 32.0165 62.5044C31.9498 62.683 31.847 62.8459 31.7146 62.983C31.5821 63.1201 31.4228 63.2284 31.2466 63.3012C31.0704 63.374 30.8811 63.4097 30.6905 63.406H22.3316C21.9527 63.3932 21.5937 63.2336 21.3302 62.961C21.0668 62.6884 20.9197 62.3241 20.9199 61.945V36.0546C20.9386 35.6909 21.0948 35.3478 21.3569 35.0949C21.619 34.842 21.9674 34.6981 22.3316 34.6923Z" fill="#111111"/>
</svg>
