<svg width="220" height="98" viewBox="0 0 220 98" fill="none" xmlns="http://www.w3.org/2000/svg">
<path d="M54.5197 34.1714C51.1768 34.1714 48.0911 35.4571 45.7768 37.6C43.4626 35.4571 40.4626 34.1714 37.034 34.1714C29.834 34.1714 23.834 40.1714 23.834 47.5428V56.5428C23.834 58.9428 25.8911 60.9142 28.2054 60.9142C30.5197 60.9142 32.5768 58.9428 32.5768 56.5428V47.5428C32.5768 45.1428 34.5483 43.0857 36.9483 43.0857C39.3483 43.0857 41.234 45.1428 41.234 47.5428V56.5428C41.234 58.9428 43.2054 60.9142 45.6054 60.9142C48.0054 60.9142 49.9768 58.9428 49.9768 56.5428V47.5428C49.9768 45.1428 51.9483 43.0857 54.3483 43.0857C56.7483 43.0857 58.7197 45.1428 58.7197 47.5428V56.5428C58.7197 58.9428 60.6911 60.9142 63.0911 60.9142C65.4911 60.9142 67.5483 58.9428 67.5483 56.5428V47.5428C67.7197 40.1714 61.7197 34.1714 54.5197 34.1714ZM45.7768 65.9714C43.3768 65.9714 41.4054 67.9428 41.4054 70.4285C41.4054 72.9142 43.3768 74.8857 45.7768 74.8857C48.1768 74.8857 50.1483 72.9142 50.1483 70.4285C50.1483 67.9428 48.1768 65.9714 45.7768 65.9714Z" fill="#111111"/>
<path d="M75.9478 32.0288C78.3478 32.0288 80.2335 30.0573 80.2335 27.6573C80.2335 25.2573 78.3478 23.2002 75.9478 23.2002C73.5478 23.2002 71.6621 25.1716 71.6621 27.6573C71.6621 30.0573 73.5478 32.0288 75.9478 32.0288ZM75.9478 34.1716C73.5478 34.1716 71.6621 36.1431 71.6621 38.5431V56.4573C71.6621 58.8573 73.5478 60.8288 75.9478 60.8288C78.3478 60.8288 80.2335 58.8573 80.2335 56.4573V38.5431C80.2335 36.1431 78.3478 34.1716 75.9478 34.1716Z" fill="#111111"/>
<path d="M139.034 47.6288C138.948 40.2573 133.034 34.2573 125.834 34.2573C118.634 34.2573 112.72 40.2573 112.72 47.6288C112.72 55.0002 118.634 61.0002 125.834 61.0002C133.034 61.0002 138.948 55.0002 139.034 47.6288ZM125.834 52.1716C123.348 52.1716 121.291 50.2002 121.291 47.6288C121.291 45.0573 123.348 43.0002 125.834 43.0002C128.32 43.0002 130.463 44.9716 130.463 47.6288C130.463 50.2859 128.32 52.1716 125.834 52.1716Z" fill="#111111"/>
<path d="M167.32 35.5431C165.606 33.8288 162.948 33.8288 161.148 35.5431L150.948 45.9145V27.6573C150.948 25.2573 149.063 23.2002 146.663 23.2002C144.263 23.2002 142.377 25.1716 142.377 27.6573V56.5431C142.377 57.743 142.548 58.6002 143.663 59.7145C144.52 60.4859 145.634 61.0002 146.748 61.0002C147.863 61.0002 148.977 60.5716 149.834 59.7145L167.32 41.7145C169.034 40.0859 169.034 37.2573 167.32 35.5431ZM164.32 52.1716C161.92 52.1716 159.948 54.1431 159.948 56.6288C159.948 59.1145 161.92 61.0002 164.32 61.0002C166.72 61.0002 168.606 59.0288 168.606 56.6288C168.606 54.1431 166.634 52.1716 164.32 52.1716Z" fill="#111111"/>
<path d="M184.892 61C192.092 61 198.006 55 198.006 47.6285V38.6285C198.006 36.2285 196.034 34.1714 193.634 34.1714C191.234 34.1714 189.263 36.1428 189.263 38.6285V47.6285C189.263 50.0285 187.292 52.0857 184.892 52.0857C182.492 52.0857 180.52 50.1142 180.52 47.6285V38.6285C180.52 36.2285 178.549 34.1714 176.149 34.1714C173.749 34.1714 171.777 36.1428 171.777 38.6285V47.6285C171.692 55 177.606 61 184.892 61Z" fill="#111111"/>
<path d="M96.4336 34.1718C94.8908 34.1718 93.3479 34.429 91.9765 34.9433V27.6576C91.9765 25.2576 90.0051 23.2861 87.6051 23.2861C85.2051 23.2861 83.3193 25.2576 83.3193 27.6576V46.8576C83.3193 47.1147 83.3193 47.2861 83.3193 47.629V56.5433C83.3193 59.029 85.2908 61.0004 87.6908 61.0004C90.0908 61.0004 92.0622 59.029 92.0622 56.5433V47.629C92.0622 45.1433 94.1193 43.0861 96.4336 43.0861C98.8336 43.0861 100.805 45.1433 100.805 47.629V56.5433C100.805 59.029 102.862 61.0004 105.262 61.0004C107.662 61.0004 109.634 59.029 109.634 56.5433V47.629C109.634 40.1718 103.719 34.1718 96.4336 34.1718Z" fill="#111111"/>
</svg>
