<svg width="220" height="98" viewBox="0 0 220 98" fill="none" xmlns="http://www.w3.org/2000/svg">
<path d="M147.506 42.8354C144.965 42.8521 142.452 43.3652 140.109 44.3457L138.358 48.106C140.342 47.1454 142.504 46.61 144.707 46.5341C147.031 46.5341 147.235 47.767 146.698 48.9012L146.557 49.2033C140.941 49.2033 135.603 51.3053 133.42 55.9841C132.021 58.9861 133.057 61.4519 136.453 61.4519C138.582 61.414 140.637 60.6654 142.291 59.3252H142.396L141.884 61.1005H146.816C147.283 59.6578 147.853 58.2507 148.523 56.8902L151.525 50.4546C153.374 46.4971 153.553 42.8354 147.531 42.8354M144.023 54.9978C143.88 55.3153 143.705 55.6169 143.499 55.8978C143.085 56.4349 142.562 56.8777 141.963 57.1966C141.365 57.5155 140.705 57.7032 140.029 57.7471C138.944 57.7471 138.253 57.0628 138.987 55.4786C140.059 53.1916 142.685 52.5505 145.151 52.5444L144.005 55.0101L144.023 54.9978Z" fill="#111111"/>
<path d="M90.7746 43.1868L85.6458 54.2149C85.4218 54.6964 85.129 55.1429 84.7767 55.5403C84.3949 56.0125 83.9209 56.4021 83.3835 56.6851C82.8462 56.968 82.2568 57.1385 81.6513 57.1861C79.8821 57.1861 79.8883 55.6327 81.0349 53.13L85.6767 43.1868H80.1904L75.2034 53.8759C72.7746 59.0971 73.8596 61.4766 77.5767 61.4766C79.9546 61.3781 82.2238 60.4538 83.9938 58.8629H84.0924L83.3157 61.1129H88.2102C88.6587 59.6582 89.2235 58.2419 89.8993 56.8779C90.6575 55.3122 96.2794 43.1807 96.2794 43.1807L90.7746 43.1868Z" fill="#111111"/>
<path d="M113.342 57.63C111.191 57.63 111.333 55.1642 112.763 52.1313C113.965 49.5546 116.092 46.6635 118.465 46.6635C120.703 46.6635 120.148 49.5423 118.946 52.119C117.559 55.0902 115.377 57.63 113.398 57.63H113.342ZM111.493 61.4642C115.537 61.4642 121.356 58.9676 124.58 52.0142C127.181 46.5341 125.579 42.8354 120.407 42.8354C115.235 42.8354 110.001 46.195 107.172 52.2608C104.459 58.0615 106.438 61.5074 111.487 61.5074L111.493 61.4642Z" fill="#111111"/>
<path d="M171.583 57.63C169.432 57.63 169.58 55.1642 171.01 52.1313C172.243 49.5546 174.333 46.6635 176.706 46.6635C178.95 46.6635 178.395 49.5423 177.187 52.119C175.8 55.0902 173.618 57.63 171.639 57.63H171.583ZM169.734 61.4642C173.79 61.4642 179.597 58.9676 182.833 52.0142C185.429 46.5341 183.826 42.8354 178.648 42.8354C173.47 42.8354 168.249 46.1889 165.413 52.2546C162.707 58.0553 164.686 61.5012 169.728 61.5012L169.734 61.4642Z" fill="#111111"/>
<path d="M200.408 42.928C200.037 42.8496 199.658 42.8165 199.28 42.8294C197.652 42.8294 195.205 43.8958 193.22 46.2075H193.078L194.25 43.1869H189.515C188.862 44.7897 188.073 46.6143 187.019 48.8766L181.311 61.1191H184.232C185.033 61.1331 185.819 60.9053 186.487 60.4653C187.156 60.0254 187.676 59.3939 187.98 58.6534L191.063 52.0636C191.297 51.5451 191.58 51.0498 191.907 50.5842C192.449 49.7858 193.17 49.1249 194.012 48.6541C194.854 48.1832 195.795 47.9154 196.758 47.8718C197.201 47.8615 197.644 47.9007 198.078 47.989L200.42 42.9527L200.408 42.928Z" fill="#111111"/>
<path d="M160.038 57.1432C158.62 57.1432 158.275 56.3542 159.267 54.2275L162.639 46.9966H165.943L167.719 43.1871H164.421L166.64 38.4158H163.798C162.995 38.406 162.207 38.639 161.538 39.0845C160.869 39.53 160.351 40.1671 160.05 40.9124L159.002 43.1871H156.629L154.86 46.9966H157.227L153.571 54.8254C152.339 57.4884 152.154 59.0542 152.745 60.059C153.251 60.9405 154.471 61.4336 156.173 61.4336C157.418 61.4523 158.66 61.3157 159.871 61.0268L161.715 57.0138C161.162 57.1367 160.597 57.1906 160.032 57.174" fill="#111111"/>
<path d="M136.244 38.4218C135.44 38.4102 134.651 38.6426 133.982 39.0883C133.313 39.534 132.795 40.1721 132.496 40.9184L123.07 61.1252H125.992C126.796 61.1351 127.583 60.902 128.252 60.4565C128.921 60.011 129.44 59.3739 129.74 58.6286L139.166 38.4218H136.244Z" fill="#111111"/>
<path d="M110.655 42.928C110.286 42.8496 109.91 42.8164 109.533 42.8294C107.906 42.8294 105.452 43.8958 103.467 46.2075H103.332L104.503 43.1869H99.7686C99.109 44.7897 98.3261 46.6143 97.2658 48.8767L91.5576 61.1191H94.4795C95.279 61.1327 96.0639 60.9046 96.7316 60.4647C97.3993 60.0247 97.9185 59.3934 98.2213 58.6534L101.304 52.0636C101.542 51.5461 101.827 51.0509 102.154 50.5842C102.693 49.7846 103.413 49.1227 104.254 48.6516C105.096 48.1805 106.036 47.9134 106.999 47.8719C107.442 47.8615 107.885 47.9008 108.319 47.989L110.661 42.9527L110.655 42.928Z" fill="#111111"/>
<path d="M77.5399 44.3091C78.9946 40.7769 79.0008 36.77 71.1782 36.77H64.1878L52.833 61.1193H55.7056C56.5058 61.1325 57.2913 60.9043 57.9599 60.4645C58.6284 60.0246 59.1489 59.3936 59.4536 58.6536L62.4803 52.1563C62.9879 52.212 63.4983 52.2387 64.009 52.2365C66.857 52.2365 70.044 51.9467 72.6762 50.2269C74.8597 48.8096 76.5537 46.7541 77.5275 44.3399M65.8152 48.1186C65.3402 48.1346 64.8649 48.0995 64.3974 48.0139L67.8618 40.6166C68.5236 40.5546 69.189 40.5401 69.8529 40.5734C72.5344 40.5734 73.1878 41.9173 72.1214 44.3029C71.0549 46.6885 68.6755 48.131 65.8152 48.131" fill="#111111"/>
<path d="M45.09 36.7698C44.2867 36.7608 43.4993 36.9942 42.8307 37.4396C42.1621 37.8849 41.6433 38.5216 41.3421 39.2664L31.1523 61.1191H35.4304L46.8099 36.7698H45.09Z" fill="#111111"/>
<path d="M59.0771 36.77H49.7874L38.4326 61.1193H45.1395C45.9389 61.133 46.7239 60.9049 47.3915 60.4649C48.0592 60.0249 48.5784 59.3936 48.8812 58.6536C49.6395 57.0139 59.0771 36.77 59.0771 36.77Z" fill="#111111"/>
<path d="M33.3165 50.0542H22.7692C22.6243 50.055 22.481 50.0843 22.3474 50.1405C22.2138 50.1967 22.0927 50.2787 21.9908 50.3817C21.8889 50.4848 21.8083 50.6069 21.7536 50.7411C21.6989 50.8752 21.6711 51.0189 21.6719 51.1638C21.6703 51.3082 21.6979 51.4514 21.753 51.5848C21.8081 51.7183 21.8895 51.8393 21.9925 51.9405L29.1062 59.0789L33.3103 50.0542H33.3165Z" fill="#111111"/>
</svg>
