<svg width="204" height="98" viewBox="0 0 204 98" fill="none" xmlns="http://www.w3.org/2000/svg">
<path d="M180.778 69.2288H174.863V55.2574C174.863 51.1431 175.978 48.0574 178.12 46.0859C180.349 44.1145 183.006 43.0859 186.006 43.0859C189.006 43.0859 191.663 44.1145 193.892 46.0859C196.12 48.0574 197.235 51.2288 197.235 55.2574V69.2288H191.32V55.2574C191.32 50.9717 189.178 48.6574 186.006 48.6574C182.749 48.6574 180.778 50.8859 180.778 55.2574V69.2288Z" fill="#111111"/>
<path d="M101.919 43.343V48.9145H98.9195C93.0052 48.9145 89.6623 51.6573 89.6623 56.2859C89.6623 60.9145 93.0909 63.6573 98.9195 63.6573H101.919V69.2288H98.9195C94.1195 69.2288 90.348 68.0288 87.6909 65.543C85.0338 63.0573 83.748 59.9716 83.748 56.2002C83.748 52.4288 85.0338 49.4288 87.6909 46.943C90.348 44.4573 94.1195 43.2573 98.9195 43.2573H101.919V43.343Z" fill="#111111"/>
<path d="M57.8628 46.9431C60.5199 44.2859 63.6913 43.0859 67.4628 43.0859C71.2342 43.0859 74.3199 44.3717 76.9771 46.9431C79.6342 49.5145 80.9199 52.6859 80.9199 56.2859C80.9199 59.9717 79.6342 63.0574 76.9771 65.7145C74.3199 68.2859 71.1485 69.5717 67.4628 69.5717C63.7771 69.5717 60.5199 68.2859 57.8628 65.7145C55.2056 63.1431 53.9199 59.9717 53.9199 56.2859C53.9199 52.6002 55.2056 49.6002 57.8628 46.9431ZM59.8342 56.2859C59.8342 58.5145 60.6056 60.4002 61.9771 61.8574C63.4342 63.2288 65.2342 64.0002 67.4628 64.0002C69.6056 64.0002 71.4056 63.2288 72.8628 61.8574C74.3199 60.4002 75.0914 58.6002 75.0914 56.2859C75.0914 54.0574 74.3199 52.1716 72.8628 50.8002C71.4056 49.3431 69.6056 48.5717 67.4628 48.5717C65.3199 48.5717 63.5199 49.3431 61.9771 50.8002C60.6056 52.2574 59.8342 54.0574 59.8342 56.2859Z" fill="#111111"/>
<path d="M133.72 46.9431C136.377 44.2859 139.549 43.0859 143.32 43.0859C147.092 43.0859 150.177 44.3717 152.834 46.9431C155.492 49.5145 156.777 52.6859 156.777 56.2859C156.777 59.9717 155.492 63.0574 152.834 65.7145C150.177 68.2859 147.006 69.5717 143.32 69.5717C139.634 69.5717 136.377 68.2859 133.72 65.7145C131.063 63.1431 129.777 59.9717 129.777 56.2859C129.777 52.6002 131.063 49.6002 133.72 46.9431ZM135.692 56.2859C135.692 58.5145 136.463 60.4002 137.834 61.8574C139.292 63.2288 141.092 64.0002 143.32 64.0002C145.463 64.0002 147.263 63.2288 148.72 61.8574C150.177 60.4002 150.949 58.6002 150.949 56.2859C150.949 54.0574 150.177 52.1716 148.72 50.8002C147.263 49.3431 145.463 48.5717 143.32 48.5717C141.177 48.5717 139.377 49.3431 137.834 50.8002C136.463 52.2574 135.692 54.0574 135.692 56.2859Z" fill="#111111"/>
<path d="M165.778 69.2285H159.863V53.7999C159.863 46.3428 164.149 43.3428 169.892 43.3428H171.349V48.9142H170.235C167.235 48.9142 165.778 50.5428 165.778 53.7999V69.2285Z" fill="#111111"/>
<path d="M118.634 55.6861L128.92 43.3432H121.891L112.377 54.4861V38.8861C112.377 36.2289 113.577 34.0861 116.491 34.0861H117.863V28.5146H116.491C110.577 28.5146 106.377 31.4289 106.377 38.8861V69.2289H112.291V56.7146L122.663 69.3147H129.691L118.634 55.6861Z" fill="#111111"/>
<path d="M53.6624 69.2287L44.9195 54.4859C46.2052 53.8001 47.4052 52.943 48.5195 51.8287C51.2624 49.1716 52.6338 46.0001 52.6338 42.143C52.6338 38.2859 51.2624 35.2001 48.5195 32.4573C45.7767 29.7144 42.5195 28.4287 38.5767 28.4287C34.6338 28.4287 31.4624 29.7144 28.7195 32.1144C25.9767 34.6001 24.5195 37.943 24.5195 42.3144V69.2287H30.691V53.3716C30.8624 53.543 31.2052 53.7144 31.5481 53.9716C31.9767 54.3144 32.9195 54.6573 34.2052 55.0859C35.5767 55.5144 37.0338 55.7716 38.491 55.7716H38.5767L46.5481 69.143L53.6624 69.2287ZM30.691 42.143C30.691 37.6001 34.0338 34.2573 38.5767 34.2573C43.1195 34.2573 46.4624 37.6859 46.4624 42.143C46.4624 46.6001 43.0338 50.0287 38.5767 50.0287C34.1195 50.1144 30.691 46.7716 30.691 42.143Z" fill="#111111"/>
</svg>
